<svg width="200" height="200" viewBox="0 0 200 200" fill="none" xmlns="http://www.w3.org/2000/svg">
<path d="M43.5459 32.4975H179.893C183.206 32.4975 185.893 35.1838 185.893 38.4975V155.381C185.893 158.695 183.206 161.381 179.893 161.381H153.402M43.5459 32.4975V161.381M43.5459 32.4975C40.8967 14.9767 14.1074 17.5688 14.1074 32.4975V161.381M43.5459 161.381C39.9479 143.198 15.7667 146.47 14.1074 161.381M43.5459 161.381H153.402M14.1074 161.381V161.381C14.1074 171.493 22.3049 179.691 32.417 179.691H147.402C150.716 179.691 153.402 177.005 153.402 173.691V161.381" stroke="#337AB7" stroke-width="3"/>
<path d="M70.8135 47.8955V57.8525" stroke="#337AB7" stroke-width="3" stroke-linecap="round"/>
<path d="M158.72 47.8955V57.8525" stroke="#337AB7" stroke-width="3" stroke-linecap="round"/>
<path d="M158.15 52.874L70.8135 52.874" stroke="#337AB7" stroke-width="3" stroke-linecap="round"/>
<path d="M70.8135 136.655V146.612" stroke="#337AB7" stroke-width="3" stroke-linecap="round"/>
<path d="M158.72 136.655V146.612" stroke="#337AB7" stroke-width="3" stroke-linecap="round"/>
<path d="M158.15 141.634H70.8135" stroke="#337AB7" stroke-width="3" stroke-linecap="round"/>
<path d="M80.0605 84.8786V118.247C80.0605 121.283 82.329 123.841 85.3437 124.204L114.341 127.693M114.341 127.693L144.337 123.304C147.224 122.881 149.389 120.442 149.466 117.525L150.328 84.8786M114.341 127.693V69.8691M114.341 69.8691L144.156 72.9708C145.869 73.1489 147.422 74.0542 148.422 75.4564L152.791 81.5877C153.247 82.2274 152.821 83.1188 152.037 83.1663L127.299 84.6634C125.107 84.7961 123.018 83.7206 121.852 81.8596L114.341 69.8691ZM114.341 69.8691L106.435 82.0273C105.285 83.796 103.291 84.8307 101.183 84.7525L72.7475 83.697C71.956 83.6676 71.5112 82.7736 71.9651 82.1246L77.3038 74.4904C78.3493 72.9953 80.0183 72.0572 81.839 71.9411L114.341 69.8691Z" stroke="#337AB7" stroke-width="3" stroke-linecap="round"/>
</svg>
