<svg width="200" height="200" viewBox="0 0 200 200" fill="none" xmlns="http://www.w3.org/2000/svg">
<path d="M27.8555 106.047V71.9316C27.8555 68.6179 30.5418 65.9316 33.8555 65.9316H167.256C170.57 65.9316 173.256 68.6179 173.256 71.9316V106.047C173.256 109.361 170.57 112.047 167.256 112.047H33.8555C30.5418 112.047 27.8555 109.361 27.8555 106.047Z" stroke="#337AB7" stroke-width="3" stroke-linecap="round"/>
<path d="M57.7959 112.702V144.246C57.7959 147.56 60.4822 150.246 63.7959 150.246H137.144C140.457 150.246 143.144 147.56 143.144 144.246V112.702" stroke="#337AB7" stroke-width="3" stroke-linecap="round"/>
<path d="M66.916 112.047V135.561C66.916 138.874 69.6023 141.561 72.916 141.561H128.622C131.936 141.561 134.622 138.874 134.622 135.561V112.047" stroke="#337AB7" stroke-width="3" stroke-linecap="round"/>
<path d="M133.854 65.7148L133.854 55.7539C133.854 52.4402 131.167 49.7539 127.854 49.7539L72.1475 49.7539C68.8338 49.7539 66.1475 52.4402 66.1475 55.7539L66.1475 65.7148" stroke="#337AB7" stroke-width="3" stroke-linecap="round"/>
<path d="M144.611 122.903H158.933H166.095M57.7519 122.903H32.78M32.78 122.903V122.903C29.4663 122.903 26.7441 125.59 26.7441 128.903V131.218C26.7441 134.532 29.4304 137.218 32.7441 137.218H66.7438M32.78 122.903V112.264M166.095 122.903H167.256C170.57 122.903 173.256 125.59 173.256 128.903V131.218C173.256 134.532 170.57 137.218 167.256 137.218H134.54M166.095 122.903V112.264M78.4447 122.903H121.635" stroke="#337AB7" stroke-width="3" stroke-linecap="round"/>
<path d="M94.6191 131.474L121.595 131.474" stroke="#337AB7" stroke-width="3" stroke-linecap="round"/>
<path d="M27.8555 75.3779L150.371 75.3779" stroke="#337AB7" stroke-width="3" stroke-linecap="round"/>
<path d="M79.3047 131.474L88.7686 131.474" stroke="#337AB7" stroke-width="3" stroke-linecap="round"/>
<path d="M87.3916 85.1865H92.8984" stroke="#337AB7" stroke-width="3" stroke-linecap="round"/>
<path d="M87.3916 93.2744H92.8984" stroke="#337AB7" stroke-width="3" stroke-linecap="round"/>
<path d="M162.588 75.3779L172.052 75.3779" stroke="#337AB7" stroke-width="3" stroke-linecap="round"/>
<path d="M36.9756 75.3779V93.8125C36.9756 97.1262 39.6619 99.8125 42.9756 99.8125H70.8229C74.1366 99.8125 76.8229 97.1262 76.8229 93.8125V75.3779" stroke="#337AB7" stroke-width="3" stroke-linecap="round"/>
<path d="M47.0049 76.2559V84.3662C47.0049 87.6799 49.6912 90.3662 53.0049 90.3662H60.793C64.1067 90.3662 66.793 87.6799 66.793 84.3662V76.2559" stroke="#337AB7" stroke-width="3" stroke-linecap="round"/>
</svg>
