<svg width="201" height="200" viewBox="0 0 201 200" fill="none" xmlns="http://www.w3.org/2000/svg">
<path d="M91.9864 133.039H140.783C144.097 133.039 146.783 130.353 146.783 127.039V55.7666C146.783 52.4529 144.097 49.7666 140.783 49.7666H69.5107C66.197 49.7666 63.5107 52.4529 63.5107 55.7666V112.4" stroke="#337AB7" stroke-width="3"/>
<path d="M46.9756 120.208L46.9747 112.442C46.9746 112.166 47.1989 111.943 47.4747 111.928C52.116 111.669 55.7998 107.823 55.7998 103.117C55.7998 98.4104 52.116 94.5646 47.4746 94.3054C47.1989 94.29 46.9746 94.0676 46.9746 93.7915L46.9746 86.5249C46.9746 86.2487 47.1989 86.0263 47.4746 86.0109C52.116 85.7517 55.7998 81.9059 55.7998 77.1997C55.7998 72.4935 52.116 68.6476 47.4746 68.3884C47.1989 68.373 46.9746 68.1506 46.9746 67.8745L46.9746 60.6079C46.9746 60.3317 47.1989 60.1094 47.4746 60.094C52.116 59.8347 55.7998 55.9889 55.7998 51.2827C55.7998 46.5765 52.1161 42.7307 47.4747 42.4714C47.1989 42.456 46.9746 42.2336 46.9747 41.9574L46.9755 33.9849C46.9756 33.7088 47.1994 33.485 47.4756 33.485L56.6275 33.4853C56.9036 33.4853 57.126 33.7096 57.1414 33.9853C57.4006 38.6267 61.2464 42.3105 65.9527 42.3105C70.6589 42.3105 74.5047 38.6267 74.7639 33.9853C74.7793 33.7096 75.0017 33.4853 75.2778 33.4853L82.5444 33.4844C82.8206 33.4844 83.043 33.7087 83.0584 33.9844C83.3176 38.6258 87.1635 42.3096 91.8697 42.3096C96.5759 42.3096 100.422 38.6258 100.681 33.9844C100.696 33.7087 100.919 33.4844 101.195 33.4844H108.461C108.738 33.4844 108.96 33.7087 108.975 33.9844C109.235 38.6258 113.08 42.3096 117.787 42.3096C122.493 42.3096 126.339 38.6258 126.598 33.9844C126.613 33.7087 126.836 33.4844 127.112 33.4844H134.378C134.655 33.4844 134.877 33.7087 134.892 33.9844C135.152 38.6258 138.997 42.3096 143.704 42.3096C148.41 42.3096 152.256 38.6258 152.515 33.9844C152.53 33.7087 152.753 33.4844 153.029 33.4844L161.001 33.4853C161.278 33.4853 161.501 33.7092 161.501 33.9854L161.5 43.7926C161.5 44.0687 161.276 44.291 161 44.3064C156.359 44.5656 152.675 48.4115 152.675 53.1177C152.675 57.8239 156.359 61.6698 161 61.929C161.276 61.9444 161.5 62.1667 161.5 62.4428L161.501 69.7094C161.501 69.9856 161.277 70.208 161.001 70.2234C156.36 70.4827 152.676 74.3285 152.676 79.0347C152.676 83.7409 156.36 87.5867 161.001 87.846C161.277 87.8614 161.501 88.0837 161.501 88.3599V95.6265C161.501 95.9026 161.277 96.125 161.001 96.1404C156.36 96.3996 152.676 100.245 152.676 104.952C152.676 109.658 156.36 113.504 161.001 113.763C161.277 113.778 161.501 114.001 161.501 114.277L161.501 121.543C161.501 121.82 161.277 122.042 161.001 122.057C156.36 122.317 152.676 126.162 152.676 130.869C152.676 135.575 156.36 139.421 161.001 139.68C161.277 139.695 161.501 139.918 161.501 140.194L161.501 148.166C161.501 148.442 161.277 148.666 161.001 148.666H151.848C151.572 148.666 151.35 148.442 151.334 148.166C151.075 143.525 147.229 139.841 142.523 139.841C137.817 139.841 133.971 143.525 133.712 148.166C133.696 148.442 133.474 148.666 133.198 148.666L125.931 148.667C125.655 148.667 125.433 148.443 125.417 148.167C125.158 143.526 121.312 139.842 116.606 139.842C111.9 139.842 108.054 143.526 107.795 148.167C107.779 148.443 107.557 148.667 107.281 148.667H100.014C99.738 148.667 99.5156 148.443 99.5002 148.167C99.2819 144.259 96.5211 141.03 92.8451 140.107" stroke="#337AB7" stroke-width="3"/>
<circle cx="65.9531" cy="139.6" r="26.916" stroke="#337AB7" stroke-width="3"/>
<circle cx="65.9531" cy="139.6" r="18.2568" stroke="#337AB7" stroke-width="3"/>
<path d="M74.4717 83.0023C78.059 77.1907 89.151 68.2365 104.82 78.9125C120.49 89.5884 132.586 81.4952 136.676 76.1141" stroke="#337AB7" stroke-width="3" stroke-linecap="round"/>
<path d="M74.4717 95.2709C78.059 89.4592 89.151 80.505 104.82 91.181C120.49 101.857 132.586 93.7637 136.676 88.3826" stroke="#337AB7" stroke-width="3" stroke-linecap="round"/>
<path d="M74.4717 106.967C78.059 101.156 89.151 92.2013 104.82 102.877C120.49 113.553 132.586 105.46 136.676 100.079" stroke="#337AB7" stroke-width="3" stroke-linecap="round"/>
</svg>
