<svg width="201" height="200" viewBox="0 0 201 200" fill="none" xmlns="http://www.w3.org/2000/svg">
<ellipse cx="39.9406" cy="53.8291" rx="16.8264" ry="19.1943" stroke="#337AB7" stroke-width="3"/>
<ellipse cx="38.8082" cy="54.4194" rx="4.42639" ry="5.04932" stroke="#337AB7" stroke-width="3"/>
<path d="M166.348 53.8291C166.348 43.2284 158.815 34.6348 149.522 34.6348H40.2764" stroke="#337AB7" stroke-width="3" stroke-linecap="round"/>
<path d="M56.7664 52.4033L55.4244 150.599C55.3134 158.721 61.8671 165.365 69.99 165.365C70.1869 165.365 70.3834 165.365 70.5792 165.365C78.2998 165.365 84.5567 158.99 84.5567 151.27V151.27C84.5567 143.676 78.4006 137.406 70.8066 137.406V137.406M89.3692 165.365H165.348C171.975 165.365 177.348 159.992 177.348 153.365V149.406C177.348 142.778 171.975 137.406 165.348 137.406H73.223" stroke="#337AB7" stroke-width="3" stroke-linecap="round"/>
<path d="M166.349 137.174V54.2344" stroke="#337AB7" stroke-width="3" stroke-linecap="round"/>
<path d="M41.9018 73.0234H55.2227" stroke="#337AB7" stroke-width="3" stroke-linecap="round"/>
</svg>
