<svg width="200" height="200" viewBox="0 0 200 200" fill="none" xmlns="http://www.w3.org/2000/svg">
<g clip-path="url(#clip0_221_684)">
<path d="M128.644 93.2175C131.03 90.8312 131.03 86.9622 128.644 84.5759C126.257 82.1896 122.388 82.1896 120.002 84.5759L97.8402 106.738C93.4596 102.465 86.9284 96.0155 83.1698 91.9402C80.8818 89.4595 77.0159 89.3032 74.5352 91.5912C72.0544 93.8792 71.8982 97.7451 74.1862 100.226C78.3301 104.719 85.4145 111.695 89.7505 115.919C94.3142 120.364 101.573 120.288 106.056 115.805L128.644 93.2175Z" stroke="#337AB7" stroke-width="3" stroke-linecap="round"/>
<circle cx="100" cy="99.9995" r="48.8726" stroke="#337AB7" stroke-width="3"/>
<path d="M139.031 44.7801L142.417 52.1998C144.296 56.3158 147.425 59.7343 151.359 61.9688L158.45 65.9967C166.35 70.4833 169.823 80.0418 166.646 88.5529L163.793 96.1937C162.211 100.432 162.006 105.062 163.208 109.424L165.375 117.287C167.788 126.045 163.485 135.26 155.22 139.031L147.8 142.417C143.684 144.296 140.266 147.424 138.031 151.359L134.003 158.45C129.517 166.35 119.958 169.823 111.447 166.646L103.806 163.793C99.5677 162.211 94.938 162.006 90.5762 163.208L82.7134 165.375C73.9551 167.788 64.7405 163.485 60.9688 155.22L57.5828 147.8C55.7045 143.684 52.5756 140.266 48.6415 138.031L41.5497 134.003C33.6502 129.517 30.1774 119.958 33.3545 111.447L36.2068 103.806C37.789 99.5676 37.9938 94.9379 36.792 90.5761L34.6255 82.7133C32.2123 73.955 36.5155 64.7404 44.7802 60.9687L52.1999 57.5827C56.3159 55.7044 59.7344 52.5755 61.9689 48.6414L65.9968 41.5496C70.4834 33.6501 80.0419 30.1773 88.553 33.3544L96.1938 36.2067C100.432 37.7889 105.062 37.9937 109.424 36.7919L117.287 34.6254C126.045 32.2122 135.26 36.5154 139.031 44.7801Z" stroke="#337AB7" stroke-width="3"/>
</g>
<defs>
<clipPath id="clip0_221_684">
<rect width="200" height="200" fill="white"/>
</clipPath>
</defs>
</svg>
