<svg width="201" height="200" viewBox="0 0 201 200" fill="none" xmlns="http://www.w3.org/2000/svg">
<path d="M155.591 38.7012L155.787 42.1133C155.96 45.1257 157.689 47.8307 160.351 49.2521L160.94 49.5666C163.395 50.8778 164.928 53.435 164.928 56.2185V60.3531C164.928 62.7208 162.844 64.5474 160.497 64.2368V64.2368C158.149 63.9261 156.065 65.7527 156.065 68.1205V78.2112C156.065 80.9136 157.884 83.2773 160.497 83.9691V83.9691C163.109 84.661 164.928 87.0247 164.928 89.7271V100.09C164.928 102.451 162.832 104.261 160.497 103.918V103.918C158.161 103.574 156.065 105.385 156.065 107.746V117.012C156.065 119.609 158.028 121.786 160.611 122.053V122.053C163.096 122.311 165.023 124.341 165.151 126.835L165.717 137.885C165.853 140.545 163.532 142.67 160.894 142.3V142.3C158.343 141.942 156.065 143.923 156.065 146.498L156.065 152.41C156.066 153.705 157.022 154.801 158.305 154.976V154.976C160.648 155.295 161.372 158.33 159.425 159.673L152.575 164.394" stroke="#337AB7" stroke-width="4"/>
<rect x="28.8311" y="35.3008" width="121.998" height="129.393" rx="20" stroke="#337AB7" stroke-width="4"/>
<path d="M136.639 35.8066L157.027 39.8799C166.377 41.748 173.109 49.9572 173.109 59.4923V144.699C173.109 155.745 164.154 164.699 153.109 164.699H58.4521" stroke="#337AB7" stroke-width="4"/>
<path d="M71.9951 35.877V81.1571C71.9951 82.048 73.0723 82.4942 73.7022 81.8642L84.205 71.3615C84.5955 70.9709 85.2287 70.9709 85.6192 71.3615L96.122 81.8642C96.7519 82.4942 97.8291 82.048 97.8291 81.1571V35.877" stroke="#337AB7" stroke-width="3" stroke-linecap="round"/>
</svg>
