<svg width="201" height="200" viewBox="0 0 201 200" fill="none" xmlns="http://www.w3.org/2000/svg">
<path d="M30.9883 161.232L170.283 161.232C172.492 161.232 174.283 159.442 174.283 157.232L174.283 138.062C174.283 135.852 172.492 134.062 170.283 134.062L52.792 134.062" stroke="#337AB7" stroke-width="3"/>
<path d="M160.638 150.16L160.638 160.906" stroke="#337AB7" stroke-width="3" stroke-linecap="round"/>
<path d="M152.72 154.685L152.72 161.233" stroke="#337AB7" stroke-width="3" stroke-linecap="round"/>
<path d="M134.251 150.16L134.251 160.906" stroke="#337AB7" stroke-width="3" stroke-linecap="round"/>
<path d="M126.333 154.685L126.333 161.233" stroke="#337AB7" stroke-width="3" stroke-linecap="round"/>
<path d="M107.864 150.16L107.864 160.906" stroke="#337AB7" stroke-width="3" stroke-linecap="round"/>
<path d="M99.9463 154.685L99.9463 161.233" stroke="#337AB7" stroke-width="3" stroke-linecap="round"/>
<path d="M81.4775 150.16L81.4775 160.906" stroke="#337AB7" stroke-width="3" stroke-linecap="round"/>
<path d="M73.5596 154.685L73.5596 161.233" stroke="#337AB7" stroke-width="3" stroke-linecap="round"/>
<path d="M27.041 100.336V90.3789C27.041 87.0652 29.7273 84.3789 33.041 84.3789H46.7676C50.0813 84.3789 52.7676 87.0652 52.7676 90.3789V155.233C52.7676 158.547 50.0813 161.233 46.7676 161.233H33.041C29.7273 161.233 27.041 158.547 27.041 155.233V112.806" stroke="#337AB7" stroke-width="3" stroke-linecap="round"/>
<path d="M53.5569 103.364L123.855 63.3654C126.722 61.7339 130.368 62.7233 132.018 65.5803L138.914 77.5238C140.565 80.3844 139.594 84.0419 136.741 85.7064L54.9619 133.414" stroke="#337AB7" stroke-width="3" stroke-linecap="round"/>
<path d="M123.944 63.3082L162.799 41.1385C164.889 39.9461 167.549 40.6662 168.752 42.7499V42.7499C169.967 44.8546 169.233 47.5465 167.117 48.7423L133.86 67.5384" stroke="#337AB7" stroke-width="3" stroke-linecap="round"/>
<circle cx="40.2007" cy="148.343" r="2.74072" fill="#337AB7"/>
</svg>
