<svg width="201" height="200" viewBox="0 0 201 200" fill="none" xmlns="http://www.w3.org/2000/svg">
<path d="M109.887 88.0879H61.6982C52.8617 88.0879 45.6982 95.2513 45.6982 104.088V156.059C45.6982 164.895 52.8617 172.059 61.6982 172.059H109.887C118.723 172.059 125.887 164.895 125.887 156.059V104.088C125.887 95.2513 118.723 88.0879 109.887 88.0879Z" stroke="#337AB7" stroke-width="3" stroke-linecap="round"/>
<path d="M64.1914 122.72V154.14C64.1914 155.245 65.0868 156.14 66.1914 156.14H105.953C107.057 156.14 107.953 155.245 107.953 154.14V100.292C107.953 99.1874 107.057 98.292 105.953 98.292H66.1914C65.0868 98.292 64.1914 99.1874 64.1914 100.292V111.101C64.1914 111.631 64.4021 112.14 64.7772 112.515L84.3581 132.096C85.1391 132.877 86.4054 132.877 87.1865 132.096L104.431 114.852" stroke="#337AB7" stroke-width="3" stroke-linecap="round"/>
<rect x="58.375" y="80.0371" width="53.5459" height="8.05078" rx="4.02539" stroke="#337AB7" stroke-width="3"/>
<rect x="62.2939" y="58.6611" width="45.6582" height="21.376" rx="2" stroke="#337AB7" stroke-width="3"/>
<path d="M72.2217 59.1572V80.0371" stroke="#337AB7" stroke-width="3" stroke-linecap="round"/>
<path d="M81.0215 59.1572V80.0371" stroke="#337AB7" stroke-width="3" stroke-linecap="round"/>
<path d="M90.1934 59.1572V80.0371" stroke="#337AB7" stroke-width="3" stroke-linecap="round"/>
<path d="M98.6943 58.9092V79.7891" stroke="#337AB7" stroke-width="3" stroke-linecap="round"/>
<path d="M94.8911 57.9951L91.381 42.3435C90.7738 39.6361 88.3703 37.7119 85.5957 37.7119V37.7119C82.7977 37.7119 80.3805 39.668 79.797 42.4045L76.4727 57.9951" stroke="#337AB7" stroke-width="3" stroke-linecap="round"/>
<path d="M50.5156 93.5537V29.9424C50.5156 28.8378 51.4111 27.9424 52.5156 27.9424H123.254M123.254 27.9424L156.164 60.8527M123.254 27.9424V58.8527C123.254 59.9573 124.15 60.8527 125.254 60.8527H156.164M156.164 60.8527V162.824C156.164 163.929 155.269 164.824 154.164 164.824H123.254" stroke="#337AB7" stroke-width="3" stroke-linecap="round"/>
</svg>
