<svg width="200" height="201" viewBox="0 0 200 201" fill="none" xmlns="http://www.w3.org/2000/svg">
<path d="M55.4596 29.4475H53.8555C50.5418 29.4475 47.8555 26.7612 47.8555 23.4475V22.4111C47.8555 19.0974 50.5418 16.4111 53.8555 16.4111H146.145C149.458 16.4111 152.145 19.0974 152.145 22.4111V23.4475C152.145 26.7612 149.458 29.4475 146.145 29.4475H142.095M55.4596 29.4475V128.848M55.4596 29.4475H142.095M142.095 29.4475V128.848" stroke="#337AB7" stroke-width="3" stroke-linecap="round"/>
<path d="M91.5801 130.206H51.4111C48.0974 130.206 45.4111 132.892 45.4111 136.206V139.415C45.4111 142.728 48.0974 145.415 51.4111 145.415H99.9998M104.888 130.206H148.588C151.902 130.206 154.588 132.892 154.588 136.206V139.415C154.588 142.728 151.902 145.415 148.588 145.415H99.9998M99.9998 145.415V167.685M89.3399 167.685H112.832C120.144 167.685 126.072 173.612 126.072 180.924V180.924C126.072 182.612 124.704 183.98 123.017 183.98H79.1555C77.4681 183.98 76.1002 182.612 76.1002 180.924V180.924C76.1002 173.612 82.0278 167.685 89.3399 167.685Z" stroke="#337AB7" stroke-width="3" stroke-linecap="round"/>
<path d="M72.6419 96.9389L80.6444 75.7889C81.5876 73.296 84.6592 72.4055 86.7895 74.0074L102.717 85.9838C103.841 86.8293 105.327 87.022 106.63 86.4912L114.991 83.085C116.894 82.3096 119.075 83.1026 120.036 84.9192L126.153 96.4843C127.562 99.1483 125.631 102.354 122.617 102.354H76.383C73.5852 102.354 71.6517 99.5557 72.6419 96.9389Z" stroke="#337AB7" stroke-width="3" stroke-linecap="round"/>
<circle cx="113.825" cy="62.4419" r="8.48486" stroke="#337AB7" stroke-width="3"/>
</svg>
