<svg width="201" height="201" viewBox="0 0 201 201" fill="none" xmlns="http://www.w3.org/2000/svg">
<path d="M74.1252 84.1025C54.7527 86.482 41.0098 92.4656 41.0098 99.4708C41.0098 108.565 64.1725 115.938 92.7451 115.938C93.9025 115.938 95.051 115.926 96.1894 115.902M139.579 92.4653C142.723 94.5911 144.48 96.9656 144.48 99.4708C144.48 105.5 134.3 110.772 119.113 113.642" stroke="#337AB7" stroke-width="3"/>
<path d="M101.235 72.1141C100.656 71.9948 100.075 71.872 99.4925 71.7458C70.1221 65.3806 47.9551 52.6423 49.9811 43.2939C52.007 33.9455 77.4588 31.5271 106.829 37.8923C136.2 44.2574 158.367 56.9957 156.341 66.3441C154.882 73.0759 141.276 76.2141 122.806 75.0668" stroke="#337AB7" stroke-width="3"/>
<path d="M156.032 67.2884L151.319 83.6349C149.87 90.3189 137.721 93.7792 120.987 93.3148M49.7969 43.7969L46.3291 60.9431C44.2074 70.7333 66.4848 83.8091 95.3009 90.0541C96.6216 90.3404 97.9343 90.6074 99.2374 90.8555" stroke="#337AB7" stroke-width="3"/>
<path d="M144.188 101.251L144.44 157.557C144.44 166.651 121.278 174.024 92.7051 174.024C64.1324 174.024 40.9697 166.651 40.9697 157.557L41.1551 100.521" stroke="#337AB7" stroke-width="3"/>
<path d="M91.6689 35.541L101.792 71.0182C102.017 71.8039 102.078 72.6272 101.973 73.4375L93.1422 141.41C93.043 142.174 93.8086 142.758 94.5195 142.461L104.898 138.124C105.261 137.972 105.679 138.047 105.967 138.317L112.876 144.784C113.474 145.344 114.454 144.987 114.552 144.174L122.716 76.2269C122.818 75.3806 122.738 74.5224 122.482 73.7093L111.652 39.3115" stroke="#337AB7" stroke-width="3" stroke-linecap="round"/>
</svg>
