<svg width="201" height="200" viewBox="0 0 201 200" fill="none" xmlns="http://www.w3.org/2000/svg">
<path d="M83.3211 117.484L28.5596 117.484C24.6936 117.484 21.5596 120.618 21.5596 124.484L21.5596 160.939C21.5596 164.805 24.6936 167.939 28.5596 167.939L142.799 167.939" stroke="#337AB7" stroke-width="3"/>
<rect x="32.9648" y="155.195" width="24.9668" height="24.9668" rx="3" transform="rotate(-90 32.9648 155.195)" stroke="#337AB7" stroke-width="3"/>
<rect x="67.7305" y="155.195" width="24.9668" height="24.9668" rx="3" transform="rotate(-90 67.7305 155.195)" stroke="#337AB7" stroke-width="3"/>
<path d="M121.236 155.195L104.221 155.195C102.564 155.195 101.221 153.852 101.221 152.195L101.221 135.016" stroke="#337AB7" stroke-width="3"/>
<rect x="133.36" y="156.851" width="21.2119" height="21.2119" rx="10.606" transform="rotate(-90 133.36 156.851)" stroke="#337AB7" stroke-width="3"/>
<path d="M118.726 81.0911L81.8722 43.9237C79.142 41.1703 74.6936 41.1608 71.9518 43.9027L46.1679 69.6866C43.4449 72.4096 43.4327 76.8207 46.1407 79.5587L124.736 159.026" stroke="#337AB7" stroke-width="3"/>
<rect x="58.3213" y="73.6621" width="24.9668" height="24.9668" rx="3" transform="rotate(-45 58.3213 73.6621)" stroke="#337AB7" stroke-width="3"/>
<rect x="82.9043" y="98.2451" width="24.9668" height="24.9668" rx="3" transform="rotate(-45 82.9043 98.2451)" stroke="#337AB7" stroke-width="3"/>
<path d="M118.68 109.833L108.707 119.805C107.536 120.977 107.536 122.877 108.707 124.048L118.68 134.02" stroke="#337AB7" stroke-width="3"/>
<path d="M118.739 29.6689C118.739 25.8029 121.873 22.6689 125.739 22.6689H162.194C166.06 22.6689 169.194 25.803 169.194 29.6689V142.712C169.194 156.645 157.9 167.939 143.967 167.939V167.939C130.034 167.939 118.739 156.645 118.739 142.712V29.6689Z" stroke="#337AB7" stroke-width="3"/>
<rect x="131.483" y="34.0742" width="24.9668" height="24.9668" rx="3" stroke="#337AB7" stroke-width="3"/>
<rect x="131.483" y="68.8398" width="24.9668" height="24.9668" rx="3" stroke="#337AB7" stroke-width="3"/>
<rect x="131.483" y="102.33" width="24.9668" height="24.9668" rx="3" stroke="#337AB7" stroke-width="3"/>
</svg>
