<svg width="201" height="200" viewBox="0 0 201 200" fill="none" xmlns="http://www.w3.org/2000/svg">
<path d="M34.1475 171.646L168.442 171.646C170.652 171.646 172.442 169.856 172.442 167.646L172.442 148.476C172.442 146.266 170.652 144.476 168.442 144.476L56.3003 144.476" stroke="#337AB7" stroke-width="3"/>
<path d="M158.797 160.574L158.797 171.32" stroke="#337AB7" stroke-width="3" stroke-linecap="round"/>
<path d="M150.879 165.099L150.879 171.647" stroke="#337AB7" stroke-width="3" stroke-linecap="round"/>
<path d="M132.41 160.574L132.41 171.32" stroke="#337AB7" stroke-width="3" stroke-linecap="round"/>
<path d="M124.492 165.099L124.492 171.647" stroke="#337AB7" stroke-width="3" stroke-linecap="round"/>
<path d="M106.023 160.574L106.023 171.32" stroke="#337AB7" stroke-width="3" stroke-linecap="round"/>
<path d="M98.1055 165.099L98.1055 171.647" stroke="#337AB7" stroke-width="3" stroke-linecap="round"/>
<path d="M79.6367 160.574L79.6367 171.32" stroke="#337AB7" stroke-width="3" stroke-linecap="round"/>
<path d="M71.7188 165.099L71.7187 171.647" stroke="#337AB7" stroke-width="3" stroke-linecap="round"/>
<rect x="29.1475" y="28.3525" width="27.1709" height="143.295" rx="4" stroke="#337AB7" stroke-width="3"/>
<path d="M45.2461 41.998H55.9922" stroke="#337AB7" stroke-width="3" stroke-linecap="round"/>
<path d="M49.7705 49.916H56.319" stroke="#337AB7" stroke-width="3" stroke-linecap="round"/>
<path d="M45.2461 68.3848H55.9922" stroke="#337AB7" stroke-width="3" stroke-linecap="round"/>
<path d="M49.7705 76.3027H56.319" stroke="#337AB7" stroke-width="3" stroke-linecap="round"/>
<path d="M45.2461 94.7715H55.9922" stroke="#337AB7" stroke-width="3" stroke-linecap="round"/>
<path d="M49.7705 102.689H56.319" stroke="#337AB7" stroke-width="3" stroke-linecap="round"/>
<path d="M45.2461 121.158H55.9922" stroke="#337AB7" stroke-width="3" stroke-linecap="round"/>
<path d="M49.7705 129.076H56.319" stroke="#337AB7" stroke-width="3" stroke-linecap="round"/>
<path d="M45.2461 147.545H55.9922" stroke="#337AB7" stroke-width="3" stroke-linecap="round"/>
<path d="M49.7705 155.463H56.319" stroke="#337AB7" stroke-width="3" stroke-linecap="round"/>
<path d="M103.348 132.351H82.6367C79.323 132.351 76.6367 129.665 76.6367 126.351V57.9238C76.6367 56.3325 77.2689 54.8064 78.3941 53.6812L98.6538 33.4214C99.7791 32.2962 101.305 31.6641 102.896 31.6641H144.897C148.211 31.6641 150.897 34.3504 150.897 37.6641V126.351C150.897 129.665 148.211 132.351 144.897 132.351H111.683" stroke="#337AB7" stroke-width="3" stroke-linecap="round"/>
<path d="M100.99 32.2373V49.791C100.99 53.1047 98.3033 55.791 94.9896 55.791H77.6738" stroke="#337AB7" stroke-width="3" stroke-linecap="round"/>
</svg>
