<svg width="201" height="200" viewBox="0 0 201 200" fill="none" xmlns="http://www.w3.org/2000/svg">
<circle cx="39.8911" cy="54.9976" r="2.79248" fill="#337AB7"/>
<circle cx="63.5239" cy="87.6333" r="2.79248" fill="#337AB7"/>
<circle cx="51.7075" cy="54.9976" r="2.79248" fill="#337AB7"/>
<circle cx="75.3403" cy="87.6333" r="2.79248" fill="#337AB7"/>
<circle cx="63.5239" cy="54.9976" r="2.79248" fill="#337AB7"/>
<path d="M69.9453 153.535C69.1757 153.534 49.6653 153.535 36.0111 153.535C32.6974 153.535 30.0166 150.848 30.0166 147.535V52.4648C30.0166 49.1511 32.7029 46.4648 36.0166 46.4648H165.438C168.752 46.4648 171.438 49.1511 171.438 52.4648V147.535C171.438 150.848 168.751 153.535 165.438 153.535H82.8825" stroke="#337AB7" stroke-width="3" stroke-linecap="round"/>
<path d="M30.4697 63.5986H158.211" stroke="#337AB7" stroke-width="3" stroke-linecap="round"/>
<path d="M72.3496 108.28C71.9459 108.119 65.4979 108.142 59.674 108.202C56.3241 108.237 53.5811 105.537 53.5811 102.187V85.4268C53.5811 82.113 56.2673 79.4268 59.5811 79.4268H119.716C123.029 79.4268 125.716 82.113 125.716 85.4268V102.28C125.716 105.594 123.029 108.28 119.716 108.28H106.386" stroke="#337AB7" stroke-width="3" stroke-linecap="round"/>
<path d="M67.0273 96.2344H111.989" stroke="#337AB7" stroke-width="3" stroke-linecap="round"/>
<path d="M73.6104 96.2344V113.346C73.6104 116.659 76.2966 119.346 79.6104 119.346H99.8261C103.14 119.346 105.826 116.659 105.826 113.346V96.2344" stroke="#337AB7" stroke-width="3" stroke-linecap="round"/>
<path d="M126.851 130.109V113.5C126.851 113.112 127.273 112.872 127.606 113.07L141.14 121.127C141.459 121.317 141.467 121.777 141.154 121.978L137.811 124.119C137.573 124.272 137.509 124.592 137.67 124.825L144.477 134.65C144.635 134.878 144.578 135.19 144.35 135.347L140.223 138.195C139.997 138.351 139.687 138.295 139.53 138.07L132.492 127.997C132.338 127.778 132.039 127.718 131.813 127.862L127.619 130.531C127.286 130.742 126.851 130.503 126.851 130.109Z" stroke="#337AB7" stroke-width="3" stroke-linecap="round"/>
</svg>
