<svg width="201" height="200" viewBox="0 0 201 200" fill="none" xmlns="http://www.w3.org/2000/svg">
<path d="M90.9465 119.573L96.5227 104.836C97.466 102.343 100.538 101.452 102.668 103.054L114.124 111.668C115.248 112.514 116.734 112.707 118.037 112.176L123.59 109.913C125.493 109.138 127.674 109.931 128.635 111.748L132.533 119.118C133.942 121.782 132.011 124.989 128.998 124.989H94.6877C91.8899 124.989 89.9564 122.19 90.9465 119.573Z" stroke="#337AB7" stroke-width="3" stroke-linecap="round"/>
<circle cx="123.342" cy="93.1882" r="7.06514" stroke="#337AB7" stroke-width="3"/>
<ellipse cx="45.5647" cy="57.7656" rx="16.8264" ry="19.1943" stroke="#337AB7" stroke-width="3"/>
<ellipse cx="44.4323" cy="58.356" rx="4.42639" ry="5.04932" stroke="#337AB7" stroke-width="3"/>
<ellipse cx="44.4323" cy="96.1548" rx="4.42639" ry="5.04932" stroke="#337AB7" stroke-width="3"/>
<path d="M155.146 76.96C164.439 76.96 171.972 68.3664 171.972 57.7656C171.972 47.1649 164.439 38.5713 155.146 38.5713H45.9004" stroke="#337AB7" stroke-width="3" stroke-linecap="round"/>
<ellipse cx="45.5647" cy="96.1543" rx="16.8264" ry="19.1943" stroke="#337AB7" stroke-width="3"/>
<path d="M59.7013 76.96H155.146C164.439 76.96 171.972 85.5536 171.972 96.1543C171.972 106.755 164.439 115.349 155.146 115.349H148.775M46.3711 115.349H74.2102" stroke="#337AB7" stroke-width="3" stroke-linecap="round"/>
<path d="M74.7227 77.5352V149.411C74.7227 156.048 80.1037 161.429 86.741 161.429C86.9298 161.429 87.118 161.429 87.3056 161.429C93.6318 161.429 98.7586 156.206 98.7586 149.88V149.88C98.7586 143.657 93.7143 138.52 87.4919 138.52V138.52M102.702 161.429H147.083C153.409 161.429 158.537 156.301 158.537 149.974V149.974C158.537 143.648 153.409 138.52 147.083 138.52H89.4719" stroke="#337AB7" stroke-width="3" stroke-linecap="round"/>
<path d="M148.71 137.988V78.002" stroke="#337AB7" stroke-width="3" stroke-linecap="round"/>
</svg>
