<svg width="103" height="108" viewBox="0 0 103 108" fill="none" xmlns="http://www.w3.org/2000/svg">
<path d="M38.4766 72.5921V79.4775C38.4766 81.9061 40.4453 83.8749 42.874 83.8749V83.8749C45.3026 83.8749 47.2713 81.9061 47.2713 79.4775V72.5921M38.4766 72.5921V65.7067C38.4766 63.2781 40.4453 61.3093 42.874 61.3093V61.3093C45.3026 61.3093 47.2713 63.2781 47.2713 65.7067V72.5921M38.4766 72.5921H47.2713" stroke="#337AB7" stroke-width="1.5"/>
<path d="M40.4725 83.8749L46.1139 83.8749L51.7553 83.8749M51.7553 75.0801L58.6407 75.0801C61.0693 75.0801 63.0381 77.0489 63.0381 79.4775V79.4775C63.0381 81.9061 61.0693 83.8749 58.6407 83.8749L51.7553 83.8749M51.7553 75.0801L51.7553 83.8749M51.7553 75.0801L47.1631 75.0801" stroke="#337AB7" stroke-width="1.5"/>
<path d="M65.9279 47.8944V44.4772C65.9279 41.1635 63.2416 38.4772 59.9279 38.4772H39.8564C36.5427 38.4772 33.8564 41.1635 33.8564 44.4772V83.5856C33.8564 84.1378 34.3042 84.5856 34.8564 84.5856H64.9279C65.4802 84.5856 65.9279 84.1378 65.9279 83.5856V68.6947" stroke="#337AB7" stroke-width="1.5"/>
<path d="M70.3699 55.6786V45.5159C70.3699 38.8885 64.9973 33.5159 58.3699 33.5159H41.4141C34.7866 33.5159 29.4141 38.8885 29.4141 45.5159V84.5469C29.4141 87.3083 31.6526 89.5469 34.4141 89.5469H65.3699C68.1314 89.5469 70.3699 87.3083 70.3699 84.5469V73.1192" stroke="#337AB7" stroke-width="1.5"/>
<rect x="33.8564" y="17.194" width="32.0715" height="14.3536" rx="3" stroke="#337AB7" stroke-width="1.5"/>
<path d="M61.347 42.5674C53.9685 50.1716 43.6387 66.2685 61.347 69.8221C68.8006 69.1194 79.2357 62.6847 61.347 42.5674Z" stroke="#337AB7" stroke-width="1.5"/>
<path d="M62.147 56.442C62.1471 56.0278 61.8113 55.6919 61.3971 55.6918C60.9829 55.6917 60.6471 56.0275 60.647 56.4417L62.147 56.442ZM62.1441 69.8223L62.147 56.442L60.647 56.4417L60.6441 69.822L62.1441 69.8223Z" fill="#337AB7"/>
<path d="M65.083 69.0659C68.0787 73.6909 75.83 78.3104 82.8691 59.7887C79.5042 58.7862 74.8123 57.9793 71.0088 58.56" stroke="#337AB7" stroke-width="1.5"/>
<path d="M74.1778 65.2092C74.5451 65.0177 74.6876 64.5647 74.4961 64.1974C74.3046 63.8301 73.8516 63.6876 73.4843 63.8791L74.1778 65.2092ZM65.445 69.7618L74.1778 65.2092L73.4843 63.8791L64.7516 68.4317L65.445 69.7618Z" fill="#337AB7"/>
</svg>
