<svg width="49" height="49" viewBox="0 0 49 49" fill="none" xmlns="http://www.w3.org/2000/svg">
<path d="M12.0877 15.5765C11.756 13.2543 12.7512 12.4249 13.6635 11.015C14.5758 9.6051 14.0367 7.73905 14.0367 7.49024C14.5675 7.98785 15.7231 8.36107 16.2345 8.48548C19.3032 10.0613 19.8008 8.60988 23.4914 8.48548C26.4439 8.38595 26.8503 13.1714 26.6844 15.5765M12.0877 15.5765C12.1829 16.2428 12.3839 17.3222 12.7505 18.5228M12.0877 15.5765C11.6558 14.7439 11.2975 14.0587 11.0006 13.4856M26.6844 15.5765C27.1295 15.0008 27.6836 14.1221 28.1505 13.0807M26.6844 15.5765C26.599 16.2947 26.4383 17.0959 26.2035 17.9213M28.1505 13.0807C29.0176 11.1465 29.5839 8.6514 28.592 6.49501C26.6845 2.34821 21.4595 0.233348 17.4371 1.47739C14.2192 2.47262 13.083 3.63373 12.9171 4.08988C11.7698 4.28338 9.5996 5.89178 9.59964 8.15374C9.59968 10.5831 9.33059 10.2623 11.0006 13.4856M28.1505 13.0807C28.7538 13.0833 29.7117 13.4741 29.7117 15.0789C29.7117 16.7089 29.7117 17.9925 28.5039 18.7901M26.2035 17.9213C26.842 18.9391 27.4108 19.3585 28.1505 18.9922C28.2785 18.9288 28.396 18.8614 28.5039 18.7901M26.2035 17.9213C25.7857 19.3896 25.1335 20.9343 24.2536 22.2241M12.7505 18.5228C12.1027 18.9372 11.2971 19.3429 9.98981 18.5228C8.93365 17.8602 9.22731 15.0461 9.3771 13.9295C9.64204 13.2504 10.3376 12.211 11.0006 13.4856M12.7505 18.5228C13.1525 19.8393 13.7537 21.3015 14.6327 22.5246M14.6327 22.5246C15.7458 24.0733 17.3046 25.2385 19.469 25.2385C21.4669 25.2385 23.0672 23.963 24.2536 22.2241M14.6327 22.5246C14.6327 23.5729 14.6327 25.7764 14.6327 26.2035M14.6327 26.2035L19.469 28.7395M14.6327 26.2035L13.0232 28.428M19.469 28.7395L24.5464 26.2035L24.2536 22.2241M19.469 28.7395L19.6153 28.9342M24.7689 26.2035L26.2035 28.7395M26.2035 28.7395L22.9447 33.3666L21.6085 31.5878M26.2035 28.7395H29.04M19.6153 28.9342L17.7838 31.5878M19.6153 28.9342L21.6085 31.5878M13.0232 28.428L16.2345 33.5445L17.7838 31.5878M13.0232 28.428C12.4003 28.428 5.19274 27.7607 3.14615 30.2967C1.09955 32.8327 0.654655 33.0551 0.565673 37.0148C0.494487 40.1826 0.536012 42.4576 0.565673 43.1991H16.2345M27.0824 43.1991H22.5888M22.5888 43.1991C22.5443 42.9767 20.8091 33.9005 20.4977 33.856M22.5888 43.1991H16.2345M20.4977 33.856C20.2486 33.8204 19.074 33.8411 18.4511 33.856M20.4977 33.856L21.6085 31.5878M18.4511 33.856L16.2345 43.1991M18.4511 33.856L17.7838 31.5878M21.0708 21.6025C21.0708 22.4976 20.3452 23.2232 19.4501 23.2232C18.555 23.2232 17.8294 22.4976 17.8294 21.6025C17.8294 20.7074 18.555 19.9818 19.4501 19.9818C20.3452 19.9818 21.0708 20.7074 21.0708 21.6025ZM21.0708 21.6025H27.1879C27.6266 21.6391 28.5039 21.4782 28.5039 20.5424C28.5039 19.6065 28.5039 18.9843 28.5039 18.7901M47.6291 36.979C47.6291 43.1314 42.6416 48.1189 36.4892 48.1189C30.3368 48.1189 25.3494 43.1314 25.3494 36.979C25.3494 30.8266 30.3368 25.8391 36.4892 25.8391C42.6416 25.8391 47.6291 30.8266 47.6291 36.979Z" stroke="#337AB7"/>
<path fill-rule="evenodd" clip-rule="evenodd" d="M30.7541 39.9082C30.2529 40.1485 30.2407 40.4153 30.2407 40.6423C30.2285 40.8427 30.2285 41.0571 30.2285 41.284C30.2285 41.4969 30.3015 41.8577 30.6073 42.1645C30.9123 42.4721 31.6334 43.3126 33.1113 43.3126C34.59 43.3126 36.0192 42.1379 36.2147 41.9775C36.4102 41.8178 39.5372 39.7079 40.7473 36.3692C41.7491 33.5925 41.5536 33.0313 41.492 32.4303C41.4311 31.83 40.7716 30.4941 40.0627 30.2139C39.3667 29.947 38.756 29.947 38.6335 30.0268C38.5118 30.1067 38.438 30.3344 38.2791 30.6545C38.133 30.9887 37.3998 32.5907 37.3017 32.8975C37.2043 33.2051 37.1556 33.4187 37.4485 33.6324C37.7542 33.846 38.4259 34.4737 38.6213 34.6733C38.8168 34.8611 38.8412 35.0607 38.6944 35.3815C38.5483 35.7149 38.2304 36.7699 37.2043 38.0252C36.4095 39.0004 35.4206 39.6546 35.1277 39.855C34.822 40.0413 34.663 39.8816 34.5162 39.7079C34.3823 39.5607 34.1625 39.3737 33.9914 39.2132C33.8195 39.0536 33.6856 39.0004 33.4901 38.8798C33.2946 38.7734 33.1113 38.8266 32.9653 38.9065C32.8307 38.9871 31.3527 39.6139 30.7541 39.9082Z" stroke="#337AB7"/>
</svg>
