<svg width="104" height="103" viewBox="0 0 104 103" fill="none" xmlns="http://www.w3.org/2000/svg">
<path d="M50.1853 20.3021C49.2179 21.0997 47.543 23.3547 48.5828 25.994C46.6265 26.5272 44.5965 28.8134 45.3164 30.8929C45.8414 32.6036 47.8378 35.4785 51.6236 33.2924C53.4899 34.5032 57.6356 36.1584 59.2885 33.0924C60.3994 33.8256 63.0277 34.852 64.654 33.0924C65.2205 33.7256 66.5535 34.9253 67.3534 34.6587" stroke="#337AB7" stroke-width="1.5" stroke-linecap="round"/>
<path d="M48.2949 33.5172L49.8503 43.2183" stroke="#337AB7" stroke-width="1.5" stroke-linecap="round"/>
<path d="M50.4912 45.9705L51.1699 48.9224C51.4634 50.199 52.5512 51.1409 53.8598 51.1995C59.2805 51.4423 66.7654 51.2696 70.5704 51.1522C71.9901 51.1084 73.1699 50.0653 73.3992 48.6635C74.0076 44.943 75.1547 37.8073 75.6634 33.8353" stroke="#337AB7" stroke-width="1.5" stroke-linecap="round"/>
<path d="M54.583 37.9633L55.6357 47.7824" stroke="#337AB7" stroke-width="1.5" stroke-linecap="round"/>
<path d="M69.1631 37.6692L68.1104 47.4883" stroke="#337AB7" stroke-width="1.5" stroke-linecap="round"/>
<path d="M62.2012 37.6418L62.3704 47.5157" stroke="#337AB7" stroke-width="1.5" stroke-linecap="round"/>
<path d="M66.0349 67.8931L71.6997 80.5895M70.515 64.3975L80.4671 74.9026M77.1493 59.6584L85.0479 65.3454M58.667 72.2961L60.9575 81.6163M81.0987 56.1831C80.1794 55.5051 78.7263 54.7839 77.1493 54.6278M71.3046 58.1577C72.8713 55.1667 75.1135 54.4263 77.1493 54.6278M83.3107 57.3679C86.9969 59.5531 92.6472 65.8035 85.7593 73.3229M88.0499 61.1592C89.9192 57.7891 92.1887 50.0855 86.3122 46.231C80.4357 42.3765 77.7551 50.2228 77.1493 54.6278M60.9575 69.1367C60.7755 68.3269 60.6325 67.1902 60.6641 65.984M62.1421 71.2692C62.3264 71.7958 64.0756 74.3658 66.7233 81.6163C67.2404 83.0325 67.9227 84.0474 68.7216 84.7355M60.6641 65.984C60.7239 63.6997 61.4098 61.1662 63.6428 60.1323C67.908 58.1577 69.6457 56.499 76.6754 64.3975C83.7051 72.2961 87.7724 75.4147 84.1 79.1678C80.5781 82.767 72.9876 88.4101 68.7216 84.7355M60.6641 65.984C58.5622 65.8905 55.2772 66.7414 54.2846 70.0845M68.7216 84.7355C68.3188 85.0648 66.9602 85.8815 64.7486 86.5134C61.9841 87.3032 57.482 86.2764 54.5595 75.9294C53.8547 73.434 53.8562 71.5272 54.2846 70.0845M57.1085 82.2545C52.3802 82.7544 44.1809 81.3635 43.7386 75.9294C43.2963 70.4952 45.0866 70.929 47.6878 70.6374M50.3621 70.3979L54.2846 70.0845" stroke="#337AB7" stroke-width="1.5" stroke-linecap="round"/>
<path d="M70.5039 26.7529L71.9419 28.3769" stroke="#337AB7" stroke-width="1.5" stroke-linecap="round"/>
<path d="M66.9775 23.7628L66.29 25.8201" stroke="#337AB7" stroke-width="1.5" stroke-linecap="round"/>
<path d="M64.5615 19.47L62.6206 20.4386" stroke="#337AB7" stroke-width="1.5" stroke-linecap="round"/>
<path d="M53.8037 21.9534L52.6072 23.7628" stroke="#337AB7" stroke-width="1.5" stroke-linecap="round"/>
<path d="M58.3311 26.6321L60.4565 26.1988" stroke="#337AB7" stroke-width="1.5" stroke-linecap="round"/>
<path d="M50.9795 28.0013L52.7888 29.1979" stroke="#337AB7" stroke-width="1.5" stroke-linecap="round"/>
<path d="M22.2715 36.7664L22.7667 37.2335" stroke="#337AB7" stroke-width="1.5" stroke-linecap="round"/>
<path d="M28.8613 34.8081L29.54 34.8625" stroke="#337AB7" stroke-width="1.5" stroke-linecap="round"/>
<path d="M25.3066 40.2982L25.9868 40.3296" stroke="#337AB7" stroke-width="1.5" stroke-linecap="round"/>
<path d="M27.8966 51.1937L16.2706 51.1937M30.8776 51.1937L38.233 51.1937M38.233 51.1937L38.6178 48.8373C38.7172 48.2287 38.2475 47.6761 37.6309 47.6761L16.3277 47.6761C15.7272 47.6761 15.2621 48.2016 15.3351 48.7976L16.2326 56.1301C16.2574 56.3321 16.3431 56.5217 16.4785 56.6737L19.1675 59.6927C19.3001 59.8415 19.3851 60.0266 19.4118 60.2241L20.5063 68.3328C20.5733 68.8289 20.9967 69.1991 21.4973 69.1991L32.9445 69.1991C33.462 69.1991 33.8941 68.8041 33.9404 68.2887L34.6671 60.2112C34.6842 60.0217 34.7549 59.841 34.8711 59.6903L37.2219 56.6403C37.3232 56.509 37.3901 56.3547 37.4168 56.191L38.233 51.1937Z" stroke="#337AB7" stroke-width="1.5" stroke-linecap="round"/>
<path d="M43.4003 47.6165C46.5603 47.5171 52.3912 49.2263 50.4354 56.8577C48.4795 64.4891 40.4899 66.9136 36.9922 67.172L37.4123 63.3101C40.2295 63.3591 46.4283 61.9475 46.9169 55.9634C47.4055 49.9792 43.9805 50.012 42.2069 50.7764" stroke="#337AB7" stroke-width="1.5" stroke-linecap="round"/>
<path d="M16.2176 65.7094L15.682 61.3456C15.5861 60.5639 15.1866 59.8513 14.5698 59.3616L13.1006 58.1951C12.5215 57.7353 12.1327 57.0779 12.0086 56.3489L10.4468 47.1724C10.1351 45.3408 11.5463 43.6691 13.4043 43.6691H39.9912C41.8827 43.6691 43.3022 45.3982 42.9338 47.2534L41.1124 56.4251C40.9769 57.1077 40.6082 57.722 40.0696 58.1627L38.6182 59.3502C38.0105 59.8474 37.622 60.5629 37.536 61.3433L36.5933 69.8951C36.4256 71.4156 35.141 72.5664 33.6113 72.5664H31.303M16.2176 67.8645L16.4273 69.8772C16.5865 71.4055 17.8746 72.5664 19.4111 72.5664H21.8011M21.8011 72.5664V72.5664C20.6658 73.0309 20.2082 74.3956 20.8341 75.4506L23.0746 79.2275M21.8011 72.5664H31.303M23.0746 79.2275H30.1275M23.0746 79.2275L15.5323 82.2642H38.2579L30.1275 79.2275M30.1275 79.2275L32.1852 76.3034C33.0706 75.0451 32.6577 73.2959 31.303 72.5664V72.5664" stroke="#337AB7" stroke-width="1.5" stroke-linecap="round" stroke-linejoin="round"/>
<path d="M31.876 39.8991L31.6567 40.5437" stroke="#337AB7" stroke-width="1.5" stroke-linecap="round"/>
<path d="M20.9762 32.9843C19.4361 32.8234 17.4572 33.8938 17.8091 36.4331C17.9035 37.1148 17.4582 37.8207 16.7792 37.9332C14.3229 38.3402 11.4839 39.6514 13.2304 42.7872L37.5869 43.4485C38.7956 43.4813 39.9454 42.7934 40.2415 41.6211C40.7609 39.5652 40.6233 37.3306 37.7937 37.7898C36.7677 37.9563 36.0868 38.0181 35.6576 38.0102C34.5584 37.99 35.8919 36.4177 35.5833 35.3625C35.2901 34.3606 34.6897 33.3701 33.5606 33.1287C31.2355 32.6316 34.5146 29.9092 31.5932 28.0013C31.4143 28.5975 30.8181 29.8734 29.8642 30.2073C28.9205 30.5376 27.0434 29.8344 26.1535 31.1324C25.593 31.95 25.1952 33.0148 24.2259 33.2227C23.8981 33.293 23.6173 33.2865 23.4848 33.1287" stroke="#337AB7" stroke-width="1.5" stroke-linecap="round"/>
<path d="M69.4861 34.6587C70.3637 34.7031 72.1322 34.4521 72.1855 33.0924C73.8296 34.0033 77.3777 34.9853 78.4174 31.6261C79.4572 28.2668 77.8731 27.2049 76.9511 27.0938C77.0066 26.505 77.0177 25.1809 76.6178 24.5943C76.1179 23.8612 74.1517 23.0947 73.7851 22.7948C73.4186 22.4948 72.8854 18.2291 70.1193 16.3629C67.9203 14.7163 62.3688 12.6776 57.7555 17.6959C56.4224 17.5293 55.2894 17.3626 54.023 17.5293C52.9844 17.6659 51.8013 18.3957 51.2236 18.829" stroke="#337AB7" stroke-width="1.5" stroke-linecap="round"/>
</svg>
