<svg width="103" height="107" viewBox="0 0 103 107" fill="none" xmlns="http://www.w3.org/2000/svg">
<path d="M48.5024 87.6546C48.5024 85.5857 48.5024 81.4347 48.5024 81.3819C48.5024 81.3291 56.1618 81.3599 59.9914 81.3819V87.6546" stroke="#337AB7" stroke-width="1.5" stroke-linecap="round"/>
<path d="M65.4661 74.6274L68.1423 37.0464L69.3535 24.0427M65.4661 74.6274V82.6586C65.4661 85.42 63.2275 87.6586 60.4661 87.6586H47.7266C44.8952 87.6586 42.6287 85.3097 42.7298 82.4801L43.0102 74.6274M65.4661 74.6274H43.0102M43.0102 74.6274L38.6207 24.0427M38.6207 24.0427V24.0427C38.3533 20.9623 40.7817 18.3141 43.8737 18.3141H64.1337C67.221 18.3141 69.6399 20.9687 69.3535 24.0427V24.0427M38.6207 24.0427H69.3535M49.0605 51.8228H58.8339M54.529 47.4015H57.0917C59.8531 47.4015 62.0917 45.1629 62.0917 42.4015V38.908H60.0022C57.4796 38.908 55.352 40.7872 55.0405 43.2906L54.529 47.4015ZM54.529 47.4015H51.2231C48.6205 47.4015 46.4531 45.405 46.2399 42.8111L45.9191 38.908H48.8876C51.336 38.908 53.4242 40.681 53.8214 43.0969L54.529 47.4015ZM81.735 74.6274V85.764C81.735 86.3163 81.2873 86.764 80.735 86.764H70.8872C70.3349 86.764 69.8872 86.3163 69.8872 85.764V70.4101C69.8872 69.8578 70.3349 69.4101 70.8872 69.4101H71.1846M81.735 74.6274V70.4101C81.735 69.8578 81.2873 69.4101 80.735 69.4101H79.9602M81.735 74.6274H75.9175M79.9602 69.4101V56.8077C79.9602 56.4162 79.6428 56.0988 79.2513 56.0988V56.0988M79.9602 69.4101H71.1846M71.1846 69.4101V57.0988C71.1846 56.5465 71.6343 56.0988 72.1866 56.0988V56.0988M72.1866 56.0988V50.6275C72.1866 49.5568 72.6159 48.5307 73.3785 47.779L77.5493 43.6673C78.1813 43.0443 79.2513 43.492 79.2513 44.3795V56.0988M72.1866 56.0988H79.2513" stroke="#337AB7" stroke-width="1.5"/>
<path d="M39.5472 35.6235C38.311 35.3867 37.0346 35.2628 35.7293 35.2628C24.5867 35.2628 15.5537 44.2957 15.5537 55.4384C15.5537 66.5811 24.5867 75.614 35.7293 75.614C38.202 75.614 40.5708 75.1692 42.7601 74.3552M29.0926 74.4971V80.0851M29.0926 80.0851H42.7601M29.0926 80.0851H15.5537V81.5681C15.5537 84.3296 17.7923 86.5681 20.5537 86.5681H45.0599" stroke="#337AB7" stroke-width="1.5"/>
<path d="M27.3828 57.7443L36.6157 48.5117" stroke="#337AB7" stroke-width="1.5" stroke-linecap="round"/>
<path d="M31.998 58.6793L37.2093 53.5684" stroke="#337AB7" stroke-width="1.5" stroke-linecap="round"/>
<path d="M30.3076 66.0264L37.2776 58.6793" stroke="#337AB7" stroke-width="1.5" stroke-linecap="round"/>
<path d="M42.66 70.1924C40.7888 70.9631 38.7388 71.3882 36.5895 71.3882C27.7806 71.3882 20.6396 64.2472 20.6396 55.4384C20.6396 46.6295 27.7806 39.4885 36.5895 39.4885C37.7455 39.4885 38.8728 39.6115 39.959 39.8451" stroke="#337AB7" stroke-width="1.5"/>
</svg>
