<svg width="104" height="104" viewBox="0 0 104 104" fill="none" xmlns="http://www.w3.org/2000/svg">
<path d="M60.1649 19.3517L65.5882 17.3393C66.65 16.9454 67.8268 17.5108 68.1827 18.586L72.031 30.2128C72.3751 31.2524 71.8192 32.3754 70.7839 32.7321L65.6166 34.5128M60.1649 19.3517L65.6166 34.5128M60.1649 19.3517C59.8053 17.789 59.0064 17.4021 58.1411 17.565C56.2996 17.9117 56.0024 20.2984 56.6357 22.062C58.4828 27.206 61.2214 34.7235 62.4861 37.8012C64.0173 41.5273 66.461 40.0406 68.976 45.3052C73.3376 58.3055 82.153 84.6383 82.5217 85.9677C82.9826 87.6294 83.7336 88.4354 85.2813 88.7499C86.5195 89.0015 87.0856 86.7063 87.2138 85.5273C87.2025 63.7895 73.3955 42.7767 70.1851 40.4981C67.6168 38.6753 66.0693 35.7484 65.6166 34.5128" stroke="#337AB7" stroke-width="1.5" stroke-linecap="round"/>
<path d="M20.9736 21.1459V17.1639H55.7134V21.1459M20.9736 21.1459H55.7134M20.9736 21.1459L23.6288 39.8721M28.8003 76.3452V88.154H48.1612V76.3452M28.8003 76.3452H48.1612M28.8003 76.3452L26.9733 63.4601M48.1612 76.3452L49.9241 63.4601M55.7134 21.1459L53.1513 39.8721M29.7615 27.3249H46.7881M23.6288 39.8721C30.86 30.2085 46.1035 29.6817 53.1513 39.8721M23.6288 39.8721L26.9733 63.4601M53.1513 39.8721L49.9241 63.4601M26.9733 63.4601C31.0402 69.4221 45.8327 68.9207 49.9241 63.4601" stroke="#337AB7" stroke-width="1.5" stroke-linecap="round"/>
<path d="M45.7087 45.7007C45.0718 41.5799 40.876 42.1043 40.0145 42.966C39.3913 43.5376 39.2442 43.4873 38.311 43.5376C37.3656 43.5376 36.9075 43.5376 36.1937 42.966C35.3322 42.1043 31.1363 41.5799 30.4995 45.7007C29.99 48.9974 31.8712 51.716 32.5599 53.7551L34.0579 58.7297C34.2772 59.4578 35.3311 59.8312 35.8406 59.2668C36.2023 58.8661 36.4977 58.3067 36.5683 57.3889C36.6433 56.4149 36.98 53.7551 38.1039 53.7551C39.2277 53.7551 39.5649 56.4149 39.6398 57.3889C39.7104 58.3067 40.0058 58.8661 40.3676 59.2668C40.8771 59.8312 41.931 59.4578 42.1502 58.7297L43.6483 53.7551C44.3369 51.716 46.2182 48.9974 45.7087 45.7007Z" stroke="#337AB7" stroke-width="1.5" stroke-linecap="round"/>
</svg>
