<svg width="57" height="66" viewBox="0 0 57 66" fill="none" xmlns="http://www.w3.org/2000/svg">
<path fill-rule="evenodd" clip-rule="evenodd" d="M41.8407 55.6964L38.776 55.6908C37.9581 55.6893 37.4844 56.617 37.9653 57.2787L43.2793 64.5902C43.6775 65.1382 44.494 65.14 44.8946 64.5936L50.2449 57.2972C50.7288 56.6373 50.2586 55.7073 49.4403 55.7058L46.3696 55.7002C46.3655 52.7272 46.3584 49.6176 46.3518 47.1826C46.3503 46.631 45.9025 46.1849 45.3509 46.1855L42.822 46.188C42.269 46.1886 41.8214 46.6379 41.8229 47.1909C41.8295 49.6231 41.8366 52.7277 41.8407 55.6964Z" fill="#BDBDBD"/>
<path fill-rule="evenodd" clip-rule="evenodd" d="M15.6143 0.589882C12.3008 0.589882 9.61426 3.27618 9.61426 6.58988V9.63659L45.8066 9.63659C48.0156 9.63659 49.8066 11.4275 49.8066 13.6366V36.866C49.8066 39.0752 48.0156 40.866 45.8066 40.866L9.61426 40.866V56.9772C9.61426 60.2909 12.3008 62.9772 15.6143 62.9772H39.5176L36.3076 58.5604C34.8643 56.5753 36.2852 53.7921 38.7393 53.7966L39.7969 53.7985L39.791 50.9818L39.7822 47.3021C39.7783 45.6433 41.1211 44.2955 42.7793 44.2938L45.3086 44.2913C46.9629 44.2896 48.3066 45.6279 48.3115 47.2829L48.3262 53.8097L49.4033 53.8116C51.8584 53.8161 53.2695 56.606 51.8174 58.5856L48.5967 62.9772H50.9492C54.2627 62.9772 56.9492 60.2909 56.9492 56.9772V6.58988C56.9492 3.27618 54.2627 0.589882 50.9492 0.589882H15.6143ZM41.7832 47.2967L41.792 51.4008L41.7969 53.8022L41.8008 55.8022C41.7969 52.8335 41.7891 49.7289 41.7832 47.2967Z" fill="#D9D9D9" fill-opacity="0.5"/>
<path fill-rule="evenodd" clip-rule="evenodd" d="M46.5338 16.1246C46.5338 14.4677 45.1907 13.1246 43.5338 13.1246H3.62207C1.96522 13.1246 0.622071 14.4677 0.622071 16.1246L0.62207 34.3781C0.62207 36.0349 1.96522 37.3781 3.62207 37.3781L43.5338 37.3781C45.1907 37.3781 46.5338 36.0349 46.5338 34.3781V16.1246ZM35.6128 26.9528V31.5201H32.7112V18.9825H42.1861V21.3109H35.6128V24.6244H41.4159V26.9528H35.6128ZM17.9137 31.5201V18.9825H23.6094C24.9706 18.9825 26.1707 19.2452 27.2095 19.7706C28.2483 20.284 29.0603 21.0064 29.6454 21.9378C30.2305 22.8692 30.523 23.9737 30.523 25.2513C30.523 26.517 30.2305 27.6215 29.6454 28.5648C29.0603 29.4962 28.2483 30.2246 27.2095 30.75C26.1707 31.2634 24.9706 31.5201 23.6094 31.5201H17.9137ZM20.8153 29.138H23.4661C24.302 29.138 25.0244 28.9828 25.6333 28.6723C26.2543 28.3499 26.7319 27.8962 27.0662 27.3111C27.4125 26.726 27.5856 26.0394 27.5856 25.2513C27.5856 24.4513 27.4125 23.7647 27.0662 23.1916C26.7319 22.6065 26.2543 22.1587 25.6333 21.8482C25.0244 21.5258 24.302 21.3646 23.4661 21.3646H20.8153V29.138ZM4.97032 18.9825V31.5201H7.87189V28.0633H10.3973C11.5197 28.0633 12.4869 27.8842 13.2989 27.526C14.1109 27.1558 14.7377 26.6305 15.1795 25.9498C15.6213 25.2692 15.8422 24.4632 15.8422 23.5319C15.8422 22.5886 15.6213 21.7766 15.1795 21.096C14.7377 20.4154 14.1109 19.896 13.2989 19.5377C12.4869 19.1676 11.5197 18.9825 10.3973 18.9825H4.97032ZM7.87189 25.6991H10.2361C11.1317 25.6991 11.8003 25.508 12.2421 25.1259C12.6839 24.7438 12.9049 24.2125 12.9049 23.5319C12.9049 22.8393 12.6839 22.302 12.2421 21.9199C11.8003 21.5378 11.1317 21.3467 10.2361 21.3467H7.87189V25.6991Z" fill="#C5C5C5"/>
</svg>
