<svg width="104" height="104" viewBox="0 0 104 104" fill="none" xmlns="http://www.w3.org/2000/svg">
<path d="M53.5269 59.0928H37.5074H15.4922C13.8353 59.0928 12.4922 60.4359 12.4922 62.0928V88.0239C12.4922 89.6808 13.8353 91.0239 15.4922 91.0239H53.5269C55.1838 91.0239 56.5269 89.6808 56.5269 88.0239V62.0928C56.5269 60.4359 55.1838 59.0928 53.5269 59.0928Z" stroke="#337AB7" stroke-width="1.5" stroke-linecap="round"/>
<circle cx="22.3747" cy="67.0019" r="3.95084" stroke="#337AB7" stroke-width="1.5"/>
<circle cx="22.3747" cy="83.1152" r="3.95084" stroke="#337AB7" stroke-width="1.5"/>
<circle cx="34.5094" cy="67.0019" r="3.95084" stroke="#337AB7" stroke-width="1.5"/>
<circle cx="34.5094" cy="83.1152" r="3.95084" stroke="#337AB7" stroke-width="1.5"/>
<circle cx="46.6442" cy="67.0019" r="3.95084" stroke="#337AB7" stroke-width="1.5"/>
<circle cx="46.6442" cy="83.1152" r="3.95084" stroke="#337AB7" stroke-width="1.5"/>
<path d="M18.0625 74.744H50.7647" stroke="#337AB7" stroke-width="1.5" stroke-linecap="round"/>
<path d="M34.5117 38.7865H40.5488" stroke="#337AB7" stroke-width="1.5" stroke-linecap="round"/>
<path d="M34.5117 42.5017H38.6912" stroke="#337AB7" stroke-width="1.5" stroke-linecap="round"/>
<path d="M34.5117 46.2168H38.6912" stroke="#337AB7" stroke-width="1.5" stroke-linecap="round"/>
<path d="M34.5117 35.0714H40.5488" stroke="#337AB7" stroke-width="1.5" stroke-linecap="round"/>
<path d="M50.7653 58.7553V21.6754C50.7653 21.1231 50.3176 20.6754 49.7653 20.6754H35.5117C34.9594 20.6754 34.5117 21.1231 34.5117 21.6754V58.7553" stroke="#337AB7" stroke-width="1.5"/>
<path d="M34.5117 26.7124H43.7283C44.2806 26.7124 44.7283 27.1601 44.7283 27.7124V54.5045C44.7283 55.0568 44.2806 55.5045 43.7283 55.5045H34.5117" stroke="#337AB7" stroke-width="1.5"/>
<path d="M49.7653 12.0308H35.5117C34.5452 12.0308 33.7617 12.8143 33.7617 13.7808V16.4246C33.7617 17.3911 34.5452 18.1746 35.5117 18.1746H49.7653C50.7318 18.1746 51.5153 17.3911 51.5153 16.4246V13.7808C51.5153 12.8143 50.7318 12.0308 49.7653 12.0308Z" stroke="#337AB7" stroke-width="1.5"/>
<path d="M83.4543 30.6063H67.0898C66.1233 30.6063 65.3398 31.3898 65.3398 32.3563V36.4778C65.3398 37.4443 66.1233 38.2278 67.0898 38.2278H83.4543C84.4208 38.2278 85.2043 37.4443 85.2043 36.4778V32.3563C85.2043 31.3898 84.4208 30.6063 83.4543 30.6063Z" stroke="#337AB7" stroke-width="1.5"/>
<path d="M68.4755 38.3855V40.9564C68.4755 41.4612 68.2846 41.9474 67.9411 42.3173L63.1896 47.4342C61.4721 49.2839 60.5176 51.7146 60.5176 54.2388V81.3679C60.5176 82.4725 61.413 83.3679 62.5176 83.3679H87.9007C89.0053 83.3679 89.9007 82.4725 89.9007 81.3679V53.8418C89.9007 51.1897 88.8472 48.6461 86.9718 46.7708L82.5286 42.3275C82.1535 41.9525 81.9428 41.4438 81.9428 40.9133V38.7021" stroke="#337AB7" stroke-width="1.5" stroke-linecap="round"/>
<path d="M68.4756 41.7417H77.0457" stroke="#337AB7" stroke-width="1.5" stroke-linecap="round"/>
<path d="M61.7422 52.7604H88.6767" stroke="#337AB7" stroke-width="1.5" stroke-linecap="round"/>
<path d="M67.8633 69.9006V60.1063" stroke="#337AB7" stroke-width="1.5" stroke-linecap="round"/>
<path d="M71.5361 65.0034H75.209" stroke="#337AB7" stroke-width="1.5" stroke-linecap="round"/>
<path d="M71.5361 60.1062H75.209" stroke="#337AB7" stroke-width="1.5" stroke-linecap="round"/>
<path d="M80.1064 62.5548H85.0036" stroke="#337AB7" stroke-width="1.5" stroke-linecap="square"/>
<path d="M82.5557 65.0034V60.1062" stroke="#337AB7" stroke-width="1.5" stroke-linecap="square"/>
<path d="M71.5361 69.9006H75.209" stroke="#337AB7" stroke-width="1.5" stroke-linecap="round"/>
<path d="M60.5176 74.7977H89.9007" stroke="#337AB7" stroke-width="1.5" stroke-linecap="round"/>
</svg>
