<svg width="104" height="104" viewBox="0 0 104 104" fill="none" xmlns="http://www.w3.org/2000/svg">
<path d="M26.3851 66.2531V69.3803M26.3851 88.4279V85.2718M26.3851 69.3803L29.2394 67.2852M26.3851 69.3803L23.626 67.2852M26.3851 69.3803V85.2718M26.3851 85.2718L29.2394 87.3274M26.3851 85.2718L23.626 87.3274" stroke="#337AB7" stroke-width="1.5" stroke-linecap="round"/>
<path d="M36.0114 71.7557L33.3032 73.3193M16.8075 82.8431L19.5408 81.265M33.3032 73.3193L36.5448 74.7435M33.3032 73.3193L33.7381 69.8822M33.3032 73.3193L19.5408 81.265M19.5408 81.265L19.1877 84.7646M19.5408 81.265L16.381 79.9033" stroke="#337AB7" stroke-width="1.5" stroke-linecap="round"/>
<path d="M16.8538 71.7557L19.562 73.3193M36.0578 82.8431L33.3245 81.265M19.562 73.3193L16.3205 74.7435M19.562 73.3193L19.1272 69.8822M19.562 73.3193L33.3245 81.265M33.3245 81.265L33.6776 84.7646M33.3245 81.265L36.4843 79.9033" stroke="#337AB7" stroke-width="1.5" stroke-linecap="round"/>
<path d="M61.8928 81.7273L65.799 82.6506C67.8178 83.1278 69.8665 81.9825 70.5172 80.0127L71.4083 77.3158C72.1396 75.1021 70.8305 72.7345 68.5667 72.177L64.9324 71.282M61.8928 81.7273C58.9922 80.7308 56.8631 84.1736 59.3999 85.895L62.9787 87.2088M61.8928 81.7273L64.9324 71.282M67.9174 95.0457C66.344 94.576 63.7551 93.7825 61.2124 92.9605M62.9787 87.2088L71.9382 85.4627H72.0835C73.729 85.4627 75.063 86.7966 75.063 88.4421V89.7501C75.063 90.6732 74.3147 91.4215 73.3916 91.4215V91.4215M62.9787 87.2088L62.2753 89.4993M61.2124 92.9605C58.8504 92.1969 56.5284 91.4087 55.0972 90.8327C54.7013 90.6734 54.3081 90.4656 53.9241 90.2139M61.2124 92.9605L62.2753 89.4993M53.9241 90.2139C50.7063 88.1045 48.1379 82.9128 50.0238 77.3332C51.3739 73.339 54.4816 71.4187 57.3853 70.6499C59.4888 70.0929 61.692 70.484 63.8049 71.0043L64.9324 71.282M53.9241 90.2139L58.358 85.895M50.0238 80.006L58.1315 82.7693M55.4135 71.8519L59.8076 81.365M62.9787 88.6601L71.7202 91.4215H73.3916M73.3916 91.4215V91.4215C73.6973 92.5132 73.2903 93.6797 72.372 94.3444L72.096 94.5442C70.9129 95.4006 69.2998 95.346 68.1773 94.4117L62.2753 89.4993" stroke="#337AB7" stroke-width="1.5" stroke-linecap="round"/>
<path d="M59.9344 90.4154L57.1564 89.6493M53.9009 86.9679C53.1667 86.1539 51.9663 84.7653 51.8896 83.0415M52.4165 78.7321C52.3688 77.8862 52.4744 76.1848 54.4276 74.9973M57.9709 72.9384C58.8487 72.7468 60.8917 72.4787 62.0409 72.9384M66.5418 74.2791C67.5952 74.2791 68.6486 74.9973 68.9359 75.955" stroke="#337AB7" stroke-linecap="round"/>
<path d="M90.9138 17.1693L47.6949 12.8237C46.045 12.6578 44.5734 13.8619 44.4094 15.512L40.6066 53.7823C40.5277 54.5759 40.7681 55.3682 41.2746 55.9842L46.3331 62.1365C46.8443 62.7582 47.5839 63.1484 48.3856 63.2195L81.351 66.1404C82.1636 66.2124 82.9704 65.9505 83.5857 65.4148L89.3439 60.4018C89.9314 59.8903 90.297 59.1703 90.3632 58.3941L93.6028 20.4092C93.7421 18.7759 92.5447 17.3333 90.9138 17.1693Z" stroke="#337AB7" stroke-width="1.5" stroke-linecap="round"/>
<path d="M52.0176 42.342L67.8681 21.7968C68.3169 21.2151 69.2187 21.2997 69.5514 21.9547L81.816 46.0975" stroke="#337AB7" stroke-width="1.5" stroke-linecap="round"/>
<path d="M51.7133 43.8095C50.63 43.0308 49.1206 43.2778 48.342 44.361C47.5633 45.4443 47.8102 46.9536 48.8935 47.7323C54.5205 51.7771 68.263 57.8429 83.3784 51.0781C84.5961 50.5332 85.1414 49.1043 84.5965 47.8866C84.0515 46.6689 82.6226 46.1235 81.4049 46.6685C68.4271 52.4766 56.5343 47.275 51.7133 43.8095Z" stroke="#337AB7" stroke-width="1.5" stroke-linecap="round"/>
<circle cx="61.0649" cy="42.506" r="3.25528" stroke="#337AB7" stroke-width="1.5"/>
<circle cx="66.6889" cy="32.5554" r="3.25528" stroke="#337AB7" stroke-width="1.5"/>
<circle cx="73.1791" cy="42.8305" r="3.25528" stroke="#337AB7" stroke-width="1.5"/>
<path d="M65.5352 45.7693C65.8961 45.2405 66.8485 44.3056 67.7711 44.7959" stroke="#337AB7" stroke-width="1.5" stroke-linecap="round"/>
<path d="M72.0601 34.3765C72.3116 36.7561 74.5109 35.1337 73.9081 37.5763" stroke="#337AB7" stroke-width="1.5" stroke-linecap="round"/>
<path d="M67.2899 26.5956C67.9166 26.465 69.2511 26.452 69.5757 27.4451" stroke="#337AB7" stroke-width="1.5" stroke-linecap="round"/>
<path d="M62.2232 36.0244C61.8212 36.5226 61.2241 37.607 60.3437 37.0444" stroke="#337AB7" stroke-width="1.5" stroke-linecap="round"/>
<path d="M67.1219 39.6402C66.7198 40.1384 66.6507 39.83 65.7704 39.2674" stroke="#337AB7" stroke-width="1.5" stroke-linecap="round"/>
<path d="M21.3643 49.5397C21.9771 49.1895 23.9638 49.9095 26.1404 53.5144C26.372 53.8979 26.8232 54.1036 27.2511 53.9713C29.2581 53.3508 31.3114 52.1321 32.7753 50.5173C33.0868 50.1737 33.0732 49.658 32.807 49.2782C31.6464 47.6226 30.107 44.6115 30.6891 42.0677" stroke="#337AB7" stroke-width="1.5" stroke-linecap="round"/>
<path d="M26.0652 40.3077C27.1973 41.6869 29.9739 43.6918 32.0242 40.6783C34.5871 36.9114 30.6041 34.2252 28.0105 35.1823C27.2683 34.2561 24.6697 33.1569 22.9159 35.1823C21.578 34.5854 18.6036 34.4055 17.258 35.5528C15.7901 36.8045 14.7262 38.9492 15.8068 41.2958M22.0503 42.6543C19.8375 41.1723 15.2316 39.366 14.1201 44.8002C12.7307 51.5929 21.2845 50.5388 22.0488 48.8295C22.5043 47.8106 22.9159 47.471 22.9159 45.7111C24.3595 46.2051 28.5961 46.1433 29.5841 43.0557" stroke="#337AB7" stroke-width="1.5" stroke-linecap="round"/>
<path d="M25.8105 45.8654L28.0342 49.1074" stroke="#337AB7" stroke-width="1.5" stroke-linecap="round"/>
</svg>
