<svg width="15" height="16" viewBox="0 0 15 16" fill="none" xmlns="http://www.w3.org/2000/svg">
<path fill-rule="evenodd" clip-rule="evenodd" d="M7.49071 0.151093C5.50344 0.151093 5.25467 0.159774 4.4742 0.197051C3.6952 0.234328 3.16302 0.364033 2.69766 0.553484C2.20987 0.745488 1.76744 1.04677 1.4016 1.43691C1.02952 1.81945 0.741549 2.28228 0.557721 2.79319C0.377725 3.28035 0.253338 3.83798 0.217729 4.65348C0.182608 5.47001 0.173828 5.72993 0.173828 7.81083C0.173828 9.89172 0.182121 10.1516 0.217729 10.9687C0.253338 11.7842 0.377237 12.3413 0.558208 12.8285C0.741618 13.3391 1.02942 13.8023 1.40209 14.1853C1.76752 14.5748 2.20963 14.8762 2.69766 15.0687C3.16302 15.2576 3.6952 15.3873 4.4742 15.4246C5.25467 15.4619 5.50344 15.4706 7.49071 15.4706C9.47797 15.4706 9.72675 15.4619 10.5072 15.4246C11.2862 15.3873 11.8184 15.2576 12.2838 15.0682C12.7715 14.8762 13.214 14.5749 13.5798 14.1847C13.9519 13.8022 14.2399 13.3394 14.4237 12.8285C14.6042 12.3413 14.7281 11.7842 14.7637 10.9687C14.7993 10.1516 14.8076 9.89121 14.8076 7.81083C14.8076 5.73044 14.7993 5.47001 14.7637 4.65297C14.7281 3.83747 14.6042 3.28035 14.4232 2.79319C14.2395 2.28206 13.9515 1.81904 13.5793 1.4364C13.2139 1.04688 12.7718 0.745416 12.2838 0.552973C11.8184 0.364543 11.2857 0.234328 10.5067 0.197051C9.72675 0.160284 9.47846 0.151093 7.49071 0.151093ZM7.44642 10.3374C7.12293 10.3374 6.80261 10.2707 6.50374 10.1412C6.20487 10.0117 5.93332 9.82193 5.70457 9.58266C5.47583 9.34339 5.29438 9.05934 5.17059 8.74672C5.04679 8.4341 4.98308 8.09903 4.98308 7.76065C4.98308 7.42227 5.04679 7.08721 5.17059 6.77458C5.29438 6.46196 5.47583 6.17791 5.70457 5.93864C5.93332 5.69937 6.20487 5.50957 6.50374 5.38008C6.80261 5.25059 7.12293 5.18394 7.44642 5.18394C8.09974 5.18394 8.7263 5.45541 9.18827 5.93864C9.65024 6.42187 9.90977 7.07726 9.90977 7.76065C9.90977 8.44404 9.65024 9.09944 9.18827 9.58266C8.7263 10.0659 8.09974 10.3374 7.44642 10.3374ZM7.44642 3.79133C6.44001 3.79133 5.47482 4.20952 4.76317 4.95392C4.05153 5.69831 3.65174 6.70792 3.65174 7.76065C3.65174 8.81338 4.05153 9.82299 4.76317 10.5674C5.47482 11.3118 6.44001 11.73 7.44642 11.73C8.45284 11.73 9.41803 11.3118 10.1297 10.5674C10.8413 9.82299 11.2411 8.81338 11.2411 7.76065C11.2411 6.70792 10.8413 5.69831 10.1297 4.95392C9.41803 4.20952 8.45284 3.79133 7.44642 3.79133ZM12.3998 3.51619C12.3998 3.76504 12.3053 4.00369 12.1371 4.17965C11.9689 4.35561 11.7407 4.45446 11.5028 4.45446C11.2649 4.45446 11.0368 4.35561 10.8686 4.17965C10.7003 4.00369 10.6058 3.76504 10.6058 3.51619C10.6058 3.26734 10.7003 3.02869 10.8686 2.85273C11.0368 2.67677 11.2649 2.57792 11.5028 2.57792C11.7407 2.57792 11.9689 2.67677 12.1371 2.85273C12.3053 3.02869 12.3998 3.26734 12.3998 3.51619Z" fill="#337AB7"/>
</svg>
