<svg width="160" height="42" viewBox="0 0 160 42" fill="none" xmlns="http://www.w3.org/2000/svg">
<g clip-path="url(#clip0_226_74)">
<path d="M23.1831 2.80457C23.8218 2.17578 23.8225 1.15701 23.1846 0.52908C22.5468 -0.0988512 21.5119 -0.0981417 20.8731 0.530652C20.2343 1.15945 20.2336 2.17822 20.8715 2.80614C21.5094 3.43407 22.5443 3.43337 23.1831 2.80457Z" fill="#337AB7"/>
<path d="M23.1301 6.73255C23.7411 6.13109 23.7418 5.15661 23.1316 4.55599C22.5215 3.95536 21.5316 3.95603 20.9206 4.55749C20.3096 5.15894 20.309 6.13342 20.9191 6.73405C21.5292 7.33468 22.5191 7.33399 23.1301 6.73255Z" fill="#337AB7"/>
<path d="M23.0878 10.5911C23.6765 10.0115 23.6772 9.07254 23.0892 8.49369C22.5013 7.91493 21.5474 7.91561 20.9586 8.49514C20.3699 9.07475 20.3692 10.0138 20.9571 10.5925C21.5451 11.1714 22.499 11.1707 23.0878 10.5911Z" fill="#337AB7"/>
<path d="M23.0446 14.3507C23.6056 13.7984 23.6062 12.9037 23.046 12.3522C22.4858 11.8007 21.5769 11.8014 21.0159 12.3536C20.4549 12.9059 20.4543 13.8006 21.0145 14.3521C21.5747 14.9035 22.4836 14.9029 23.0446 14.3507Z" fill="#337AB7"/>
<path d="M23.0014 18.011C23.5347 17.4861 23.5353 16.6356 23.0027 16.1115C22.4703 15.5873 21.6064 15.5879 21.0732 16.1128C20.5399 16.6377 20.5393 17.4882 21.0718 18.0124C21.6043 18.5365 22.4682 18.5359 23.0014 18.011Z" fill="#337AB7"/>
<path d="M22.9591 21.7114C23.4701 21.2084 23.4707 20.3934 22.9604 19.891C22.4501 19.3887 21.6221 19.3892 21.1112 19.8923C20.6002 20.3953 20.5996 21.2103 21.1099 21.7127C21.6202 22.215 22.4481 22.2144 22.9591 21.7114Z" fill="#337AB7"/>
<path d="M22.916 25.5701C23.3992 25.0944 23.3998 24.3237 22.9171 23.8486C22.4346 23.3736 21.6517 23.3741 21.1684 23.8498C20.6852 24.3255 20.6847 25.0962 21.1672 25.5712C21.6498 26.0463 22.4327 26.0458 22.916 25.5701Z" fill="#337AB7"/>
<path d="M22.8736 29.27C23.3346 28.8162 23.3352 28.0808 22.8748 27.6277C22.4144 27.1745 21.6675 27.175 21.2065 27.6288C20.7454 28.0826 20.7449 28.8179 21.2053 29.2711C21.6657 29.7243 22.4126 29.7238 22.8736 29.27Z" fill="#337AB7"/>
<path d="M22.8305 32.8712C23.2638 32.4448 23.2642 31.7538 22.8316 31.3279C22.3989 30.902 21.697 30.9025 21.2637 31.329C20.8305 31.7554 20.83 32.4464 21.2626 32.8723C21.6953 33.2983 22.3973 33.2977 22.8305 32.8712Z" fill="#337AB7"/>
<path d="M22.7775 36.9179C23.183 36.5188 23.1835 35.872 22.7785 35.4735C22.3737 35.0748 21.7168 35.0753 21.3113 35.4745C20.9058 35.8736 20.9053 36.5203 21.3102 36.9189C21.7151 37.3175 22.3721 37.317 22.7775 36.9179Z" fill="#337AB7"/>
<path d="M22.7342 41.093C23.1175 40.7157 23.1179 40.1044 22.7352 39.7276C22.3525 39.3509 21.7315 39.3513 21.3482 39.7286C20.965 40.1059 20.9646 40.7171 21.3473 41.0939C21.73 41.4706 22.351 41.4702 22.7342 41.093Z" fill="#337AB7"/>
<path d="M19.1809 6.74524C19.7919 6.14378 19.7926 5.1693 19.1824 4.56868C18.5723 3.96805 17.5824 3.96873 16.9714 4.57018C16.3604 5.17163 16.3597 6.14611 16.9698 6.74674C17.58 7.3474 18.5699 7.34671 19.1809 6.74524Z" fill="#337AB7"/>
<path d="M19.1376 10.6038C19.7264 10.0242 19.727 9.08523 19.139 8.50639C18.5511 7.92762 17.5972 7.92831 17.0084 8.50784C16.4196 9.08745 16.419 10.0265 17.0069 10.6052C17.5949 11.1841 18.5488 11.1834 19.1376 10.6038Z" fill="#337AB7"/>
<path d="M19.0847 14.3531C19.6456 13.8009 19.6463 12.9061 19.0861 12.3546C18.5259 11.8031 17.6169 11.8037 17.056 12.356C16.4949 12.9082 16.4943 13.803 17.0546 14.3545C17.6148 14.9059 18.5237 14.9053 19.0847 14.3531Z" fill="#337AB7"/>
<path d="M19.0425 18.014C19.5757 17.4891 19.5763 16.6386 19.0438 16.1144C18.5113 15.5903 17.6474 15.5908 17.1141 16.1157C16.5809 16.6406 16.5804 17.4911 17.1128 18.0153C17.6454 18.5395 18.5093 18.5389 19.0425 18.014Z" fill="#337AB7"/>
<path d="M18.9992 21.7139C19.5101 21.2109 19.5108 20.3958 19.0004 19.8935C18.4901 19.3912 17.6623 19.3917 17.1512 19.8948C16.6402 20.3978 16.6396 21.2129 17.15 21.7152C17.6602 22.2175 18.4882 22.217 18.9992 21.7139Z" fill="#337AB7"/>
<path d="M18.956 25.5725C19.4392 25.0968 19.4398 24.3261 18.9572 23.8511C18.4746 23.376 17.6917 23.3765 17.2085 23.8522C16.7252 24.3279 16.7247 25.0986 17.2073 25.5737C17.6898 26.0487 18.4728 26.0482 18.956 25.5725Z" fill="#337AB7"/>
<path d="M18.9234 29.2826C19.3844 28.8288 19.385 28.0935 18.9246 27.6403C18.4642 27.1871 17.7173 27.1877 17.2563 27.6415C16.7952 28.0953 16.7947 28.8306 17.2551 29.2838C17.7155 29.737 18.4625 29.7364 18.9234 29.2826Z" fill="#337AB7"/>
<path d="M18.8706 32.8737C19.3038 32.4473 19.3043 31.7563 18.8716 31.3303C18.4389 30.9044 17.737 30.9049 17.3038 31.3314C16.8705 31.7579 16.8701 32.4489 17.3027 32.8748C17.7354 33.3007 18.4373 33.3002 18.8706 32.8737Z" fill="#337AB7"/>
<path d="M18.8176 36.9204C19.223 36.5212 19.2235 35.8745 18.8186 35.4759C18.4136 35.0773 17.7567 35.0778 17.3512 35.4769C16.9458 35.8761 16.9454 36.5227 17.3502 36.9214C17.7552 37.3199 18.4121 37.3195 18.8176 36.9204Z" fill="#337AB7"/>
<path d="M15.1776 10.6063C15.7664 10.0267 15.767 9.08766 15.1791 8.50889C14.5911 7.93005 13.6372 7.93073 13.0485 8.51034C12.4597 9.08987 12.459 10.0289 13.047 10.6077C13.6349 11.1865 14.5889 11.1858 15.1776 10.6063Z" fill="#337AB7"/>
<path d="M15.1452 14.356C15.7062 13.8037 15.7068 12.909 15.1466 12.3575C14.5864 11.806 13.6775 11.8067 13.1164 12.3589C12.5555 12.9111 12.5549 13.8059 13.115 14.3573C13.6753 14.9089 14.5842 14.9082 15.1452 14.356Z" fill="#337AB7"/>
<path d="M15.0923 18.0267C15.6255 17.5018 15.6261 16.6513 15.0936 16.1271C14.5611 15.6029 13.6972 15.6035 13.164 16.1284C12.6308 16.6533 12.6301 17.5038 13.1627 18.028C13.6951 18.5521 14.559 18.5516 15.0923 18.0267Z" fill="#337AB7"/>
<path d="M15.0597 21.7168C15.5707 21.2137 15.5713 20.3987 15.061 19.8964C14.5507 19.394 13.7227 19.3946 13.2117 19.8976C12.7008 20.4006 12.7001 21.2157 13.2105 21.718C13.7208 22.2203 14.5487 22.2198 15.0597 21.7168Z" fill="#337AB7"/>
<path d="M15.0068 25.5852C15.49 25.1096 15.4906 24.3388 15.008 23.8638C14.5254 23.3887 13.7425 23.3893 13.2593 23.865C12.776 24.3407 12.7755 25.1114 13.2581 25.5865C13.7406 26.0615 14.5236 26.0609 15.0068 25.5852Z" fill="#337AB7"/>
<path d="M14.9635 29.2855C15.4245 28.8317 15.425 28.0965 14.9646 27.6432C14.5043 27.19 13.7573 27.1906 13.2963 27.6444C12.8352 28.0982 12.8348 28.8335 13.2952 29.2867C13.7555 29.7399 14.5025 29.7394 14.9635 29.2855Z" fill="#337AB7"/>
<path d="M14.9213 32.8864C15.3545 32.46 15.355 31.769 14.9223 31.343C14.4897 30.9171 13.7878 30.9176 13.3545 31.3441C12.9213 31.7706 12.9208 32.4616 13.3535 32.8875C13.7861 33.3134 14.488 33.3129 14.9213 32.8864Z" fill="#337AB7"/>
<path d="M11.1853 14.359C11.7462 13.8068 11.7469 12.912 11.1867 12.3605C10.6264 11.809 9.71753 11.8096 9.15648 12.3619C8.59552 12.9141 8.5949 13.8089 9.15509 14.3604C9.71535 14.9118 10.6242 14.9112 11.1853 14.359Z" fill="#337AB7"/>
<path d="M11.1333 18.0291C11.6665 17.5042 11.6672 16.6538 11.1346 16.1295C10.6021 15.6054 9.73819 15.606 9.20497 16.1309C8.67175 16.6558 8.67121 17.5063 9.20365 18.0304C9.73617 18.5546 10.6001 18.554 11.1333 18.0291Z" fill="#337AB7"/>
<path d="M11.0998 21.7191C11.6108 21.2161 11.6113 20.4011 11.101 19.8988C10.5908 19.3965 9.7628 19.397 9.25182 19.9C8.74077 20.4031 8.74023 21.218 9.2505 21.7204C9.76086 22.2228 10.5887 22.2222 11.0998 21.7191Z" fill="#337AB7"/>
<path d="M11.0576 25.5979C11.5408 25.1222 11.5414 24.3515 11.0587 23.8764C10.5762 23.4014 9.79328 23.4019 9.31005 23.8776C8.82682 24.3533 8.82627 25.124 9.30881 25.599C9.79142 26.0741 10.5743 26.0736 11.0576 25.5979Z" fill="#337AB7"/>
<path d="M11.0143 29.2977C11.4752 28.8439 11.4758 28.1086 11.0154 27.6554C10.5551 27.2022 9.80808 27.2028 9.34709 27.6566C8.88603 28.1104 8.88557 28.8457 9.34593 29.2989C9.8063 29.7521 10.5533 29.7515 11.0143 29.2977Z" fill="#337AB7"/>
<path d="M7.1831 18.0418C7.71632 17.5169 7.71692 16.6664 7.18443 16.1422C6.65194 15.6181 5.78802 15.6186 5.2548 16.1435C4.72157 16.6684 4.72098 17.5188 5.25347 18.0431C5.78595 18.5673 6.64988 18.5667 7.1831 18.0418Z" fill="#337AB7"/>
<path d="M7.15053 21.732C7.66153 21.229 7.6621 20.4139 7.1518 19.9116C6.64151 19.4092 5.81358 19.4098 5.30257 19.9128C4.79157 20.4159 4.791 21.2309 5.3013 21.7332C5.81159 22.2356 6.63952 22.235 7.15053 21.732Z" fill="#337AB7"/>
<path d="M7.09761 25.6003C7.58084 25.1247 7.58138 24.3539 7.09882 23.8789C6.61624 23.4038 5.83331 23.4044 5.35008 23.8801C4.86685 24.3558 4.86631 25.1265 5.34887 25.6016C5.83144 26.0766 6.61438 26.076 7.09761 25.6003Z" fill="#337AB7"/>
<path d="M3.20033 21.7447C3.71134 21.2416 3.71191 20.4266 3.20161 19.9243C2.69131 19.4219 1.86338 19.4225 1.35238 19.9255C0.841373 20.4285 0.840801 21.2436 1.3511 21.7459C1.8614 22.2482 2.68933 22.2477 3.20033 21.7447Z" fill="#337AB7"/>
<path d="M27.0901 6.7301C27.7011 6.12864 27.7018 5.15417 27.0916 4.55354C26.4815 3.95292 25.4915 3.95359 24.8806 4.55505C24.2695 5.1565 24.2689 6.13098 24.879 6.7316C25.4892 7.33226 26.4791 7.33157 27.0901 6.7301Z" fill="#337AB7"/>
<path d="M27.0477 10.5882C27.6365 10.0086 27.6372 9.06956 27.0492 8.4908C26.4612 7.91203 25.5073 7.91264 24.9185 8.49225C24.3298 9.07185 24.3291 10.0109 24.9171 10.5897C25.5051 11.1684 26.459 11.1678 27.0477 10.5882Z" fill="#337AB7"/>
<path d="M26.9939 14.3379C27.5548 13.7857 27.5555 12.8909 26.9953 12.3395C26.435 11.7879 25.5261 11.7886 24.9651 12.3409C24.4041 12.8931 24.4035 13.7878 24.9637 14.3393C25.5239 14.8908 26.4328 14.8901 26.9939 14.3379Z" fill="#337AB7"/>
<path d="M26.9517 17.9989C27.4849 17.474 27.4854 16.6235 26.953 16.0993C26.4205 15.5751 25.5565 15.5757 25.0233 16.1006C24.4901 16.6255 24.4896 17.476 25.022 18.0002C25.5545 18.5243 26.4185 18.5238 26.9517 17.9989Z" fill="#337AB7"/>
<path d="M26.9093 21.6987C27.4203 21.1957 27.4208 20.3806 26.9106 19.8783C26.4003 19.376 25.5723 19.3765 25.0614 19.8795C24.5504 20.3826 24.5498 21.1976 25.0601 21.7C25.5704 22.2023 26.3983 22.2017 26.9093 21.6987Z" fill="#337AB7"/>
<path d="M26.8662 25.5574C27.3494 25.0817 27.3499 24.311 26.8673 23.836C26.3848 23.3609 25.6019 23.3614 25.1186 23.8371C24.6354 24.3128 24.6349 25.0835 25.1174 25.5586C25.6 26.0336 26.3829 26.0331 26.8662 25.5574Z" fill="#337AB7"/>
<path d="M26.8228 29.2574C27.2839 28.8035 27.2844 28.0682 26.824 27.615C26.3636 27.1618 25.6167 27.1623 25.1557 27.6161C24.6947 28.07 24.6941 28.8052 25.1545 29.2584C25.6149 29.7117 26.3618 29.7112 26.8228 29.2574Z" fill="#337AB7"/>
<path d="M26.7806 32.8586C27.2139 32.4322 27.2143 31.7412 26.7817 31.3152C26.3491 30.8893 25.6472 30.8898 25.2139 31.3163C24.7807 31.7428 24.7802 32.4338 25.2128 32.8597C25.6454 33.2856 26.3474 33.2851 26.7806 32.8586Z" fill="#337AB7"/>
<path d="M26.7277 36.9053C27.1332 36.5061 27.1336 35.8594 26.7288 35.4608C26.3238 35.0622 25.6669 35.0626 25.2614 35.4618C24.856 35.861 24.8555 36.5076 25.2604 36.9063C25.6653 37.3048 26.3223 37.3044 26.7277 36.9053Z" fill="#337AB7"/>
<path d="M30.9969 10.5759C31.5857 9.99646 31.5864 9.05735 30.9984 8.47858C30.4105 7.89982 29.4566 7.90043 28.8678 8.48003C28.279 9.05964 28.2784 9.99867 28.8663 10.5774C29.4543 11.1562 30.4082 11.1556 30.9969 10.5759Z" fill="#337AB7"/>
<path d="M30.9538 14.3356C31.5148 13.7833 31.5154 12.8886 30.9552 12.337C30.395 11.7856 29.4861 11.7862 28.9251 12.3384C28.3641 12.8907 28.3634 13.7854 28.9237 14.3369C29.4839 14.8884 30.3928 14.8878 30.9538 14.3356Z" fill="#337AB7"/>
<path d="M30.9019 17.9861C31.4351 17.4612 31.4357 16.6108 30.9032 16.0866C30.3707 15.5624 29.5068 15.563 28.9736 16.0879C28.4403 16.6128 28.4397 17.4632 28.9722 17.9874C29.5048 18.5117 30.3687 18.511 30.9019 17.9861Z" fill="#337AB7"/>
<path d="M30.8585 21.686C31.3696 21.183 31.3701 20.3679 30.8598 19.8656C30.3495 19.3633 29.5216 19.3638 29.0106 19.8669C28.4996 20.3699 28.499 21.185 29.0093 21.6873C29.5196 22.1896 30.3475 22.1891 30.8585 21.686Z" fill="#337AB7"/>
<path d="M30.8261 25.5545C31.3094 25.0788 31.3099 24.3081 30.8274 23.833C30.3448 23.358 29.5618 23.3585 29.0786 23.8343C28.5954 24.31 28.5948 25.0807 29.0774 25.5557C29.56 26.0307 30.3429 26.0302 30.8261 25.5545Z" fill="#337AB7"/>
<path d="M30.7828 29.2548C31.2438 28.801 31.2444 28.0657 30.784 27.6125C30.3236 27.1593 29.5767 27.1599 29.1156 27.6137C28.6546 28.0675 28.6541 28.8028 29.1145 29.256C29.5749 29.7092 30.3218 29.7086 30.7828 29.2548Z" fill="#337AB7"/>
<path d="M30.7299 32.8464C31.1632 32.4199 31.1636 31.7289 30.731 31.303C30.2983 30.8771 29.5964 30.8775 29.1631 31.304C28.7299 31.7305 28.7294 32.4215 29.162 32.8474C29.5947 33.2733 30.2967 33.2728 30.7299 32.8464Z" fill="#337AB7"/>
<path d="M34.904 14.3228C35.465 13.7705 35.4656 12.8758 34.9054 12.3243C34.3451 11.7728 33.4363 11.7735 32.8753 12.3257C32.3143 12.878 32.3136 13.7727 32.8738 14.3242C33.4341 14.8757 34.343 14.875 34.904 14.3228Z" fill="#337AB7"/>
<path d="M34.8608 17.9832C35.394 17.4583 35.3946 16.6079 34.8621 16.0837C34.3297 15.5595 33.4658 15.5601 32.9325 16.085C32.3993 16.6099 32.3987 17.4604 32.9312 17.9846C33.4637 18.5087 34.3276 18.5081 34.8608 17.9832Z" fill="#337AB7"/>
<path d="M34.8185 21.6836C35.3295 21.1805 35.3301 20.3655 34.8197 19.8632C34.3095 19.3608 33.4815 19.3614 32.9705 19.8644C32.4596 20.3675 32.4589 21.1825 32.9693 21.6848C33.4796 22.1872 34.3075 22.1866 34.8185 21.6836Z" fill="#337AB7"/>
<path d="M34.7656 25.552C35.2488 25.0763 35.2494 24.3056 34.7668 23.8306C34.2842 23.3555 33.5013 23.356 33.018 23.8317C32.5348 24.3074 32.5343 25.0781 33.0169 25.5532C33.4994 26.0282 34.2823 26.0277 34.7656 25.552Z" fill="#337AB7"/>
<path d="M34.733 29.2421C35.194 28.7883 35.1945 28.053 34.7342 27.5998C34.2738 27.1466 33.5268 27.1471 33.0658 27.6009C32.6048 28.0547 32.6043 28.7901 33.0647 29.2433C33.525 29.6964 34.2719 29.6959 34.733 29.2421Z" fill="#337AB7"/>
<path d="M38.811 17.971C39.3442 17.4461 39.3449 16.5956 38.8123 16.0714C38.2799 15.5473 37.416 15.5478 36.8827 16.0727C36.3495 16.5976 36.3489 17.4481 36.8813 17.9723C37.4139 18.4964 38.2778 18.4959 38.811 17.971Z" fill="#337AB7"/>
<path d="M38.7677 21.6709C39.2787 21.1679 39.2793 20.3528 38.769 19.8505C38.2587 19.3482 37.4308 19.3487 36.9198 19.8518C36.4087 20.3548 36.4082 21.1699 36.9185 21.6722C37.4288 22.1745 38.2567 22.174 38.7677 21.6709Z" fill="#337AB7"/>
<path d="M38.7255 25.5491C39.2088 25.0734 39.2093 24.3026 38.7268 23.8276C38.2442 23.3526 37.4612 23.3531 36.978 23.8288C36.4948 24.3045 36.4942 25.0752 36.9768 25.5502C37.4594 26.0253 38.2423 26.0248 38.7255 25.5491Z" fill="#337AB7"/>
<path d="M42.7277 21.6684C43.2387 21.1653 43.2392 20.3504 42.7289 19.8481C42.2187 19.3457 41.3907 19.3463 40.8797 19.8493C40.3687 20.3523 40.3681 21.1673 40.8784 21.6697C41.3888 22.172 42.2166 22.1714 42.7277 21.6684Z" fill="#337AB7"/>
<path d="M57.8397 10.4227C57.8922 9.55873 58.1244 8.71454 58.5223 7.94236C58.9201 7.17027 59.4751 6.48668 60.1526 5.93396C61.6425 4.8278 63.4808 4.27216 65.3455 4.36437C67.2342 4.26687 69.0868 4.89852 70.5085 6.12466C71.1381 6.7151 71.6347 7.42883 71.9663 8.21969C72.2979 9.01056 72.457 9.86101 72.4335 10.7161C72.47 11.7169 72.2908 12.7139 71.9076 13.6417C71.5244 14.5695 70.9459 15.4072 70.2101 16.0997C69.4809 16.7987 68.6167 17.3471 67.6684 17.7124C66.7202 18.0778 65.7071 18.2526 64.6889 18.2267C62.8941 18.2971 61.1443 17.6639 59.8243 16.4664C59.1547 15.784 58.6304 14.9771 58.2819 14.093C57.9335 13.2089 57.7679 12.2653 57.7949 11.3176H57.0488H56.3474H54.7508V13.9873C54.7508 14.442 54.7508 14.9848 54.7508 15.6009V16.6424C54.7508 16.9945 54.8702 17.2145 55.1089 17.3025C55.3517 17.3941 55.61 17.4389 55.8699 17.4346H56.5266V18.036C55.7506 18.036 54.9448 17.9626 54.0942 17.9626C53.2437 17.9626 52.1991 17.9626 50.8711 18.036V17.4346H51.5426C52.2439 17.4346 52.6617 17.3025 52.7662 17.0385C52.9195 16.0289 52.9695 15.0068 52.9154 13.9873V8.22236C52.9746 7.29997 52.9195 6.37387 52.7512 5.46455C52.6319 5.2005 52.2737 5.08315 51.6619 5.08315H50.9457V4.48171C51.9454 4.48171 52.8557 4.48171 53.6764 4.48171C54.8254 4.48171 55.7953 4.48171 56.6609 4.48171V5.08315H56.243C55.4869 5.08315 55.0542 5.18583 54.9448 5.3912C54.7896 6.32668 54.7396 7.27609 54.7956 8.22236V10.3787L57.0488 10.4667L57.8397 10.4227ZM64.8083 5.09782C64.1175 5.06035 63.4268 5.17229 62.7848 5.42574C62.1428 5.6792 61.5652 6.06799 61.0927 6.56473C60.1466 7.68502 59.6669 9.11569 59.7497 10.5694C59.6966 12.2862 60.2211 13.9723 61.2419 15.3662C61.7112 16.005 62.3346 16.5191 63.0561 16.8622C63.7776 17.2053 64.5746 17.3667 65.3754 17.3319C66.0703 17.3665 66.764 17.2413 67.4012 16.9663C68.0384 16.6913 68.6016 16.274 69.0461 15.7476C70.0202 14.4886 70.4974 12.9252 70.3892 11.3469C70.4749 9.68462 69.9448 8.04811 68.8969 6.74073C68.3842 6.18333 67.7505 5.74629 67.0427 5.46192C66.3351 5.17755 65.5714 5.05312 64.8083 5.09782Z" fill="#337AB7"/>
<path d="M77.1035 11.2737V13.9142C77.1035 14.3689 77.1035 14.9116 77.1035 15.5277C77.1125 16.0181 77.1473 16.5078 77.208 16.9947C77.2648 17.1184 77.3657 17.2175 77.4915 17.2734C77.7321 17.3899 78.0001 17.4406 78.2675 17.42H78.924V18.0214C78.0884 18.0214 77.2826 17.9481 76.5067 17.9481C75.7307 17.9481 74.6713 17.9481 73.2686 18.0214V17.42H73.9252C74.6115 17.42 74.9995 17.3027 75.1189 17.0826C75.3212 16.0687 75.3865 15.0329 75.3129 14.0021V8.28124C75.3818 7.33321 75.3166 6.38043 75.1189 5.45009C74.9995 5.23005 74.6414 5.12737 74.0445 5.12737H73.3282V4.52594C74.3877 4.52594 75.3726 4.52594 76.3126 4.52594C77.2527 4.52594 78.1182 4.52594 78.9986 4.52594V5.12737H78.551C78.1775 5.09337 77.801 5.13839 77.4467 5.2594C77.3716 5.31531 77.3089 5.38586 77.2627 5.46661C77.2165 5.54738 77.1877 5.63663 77.1782 5.7288C77.1782 6.08086 77.1035 6.91703 77.1035 8.26659V10.4376C78.2525 10.4376 79.7149 10.4376 81.4759 10.4376C82.9678 10.4376 84.1916 10.4376 85.1317 10.4376V8.53057C85.1317 7.44506 85.1317 6.53561 85.0123 5.80215C85.0123 5.69692 84.9898 5.59289 84.9457 5.49683C84.9023 5.40078 84.8387 5.31488 84.7589 5.24473C84.4783 5.10383 84.1613 5.04769 83.8482 5.08336H83.1615V4.48193C84.1466 4.48193 85.072 4.48193 85.9524 4.48193C86.8329 4.48193 87.8923 4.48193 88.9371 4.48193V5.08336H88.2054C87.8799 5.05029 87.5505 5.10084 87.2506 5.23005C87.1715 5.30926 87.1095 5.40338 87.0685 5.50675C87.0274 5.61011 87.008 5.72059 87.0119 5.83149C87.0119 6.1102 87.0119 7.01972 87.0119 8.5453V13.7968C86.9445 14.88 86.9995 15.9673 87.1762 17.0386C87.28 17.2587 87.6389 17.3761 88.2357 17.3761H88.9812V17.9775C88.1008 17.9775 87.1762 17.9041 86.2361 17.9041C85.296 17.9041 84.1466 17.9041 83.2515 17.9775V17.3761H83.9079C84.2303 17.4091 84.5558 17.3533 84.848 17.2147C84.9333 17.1325 85.0015 17.0343 85.0472 16.926C85.0937 16.8177 85.1169 16.7013 85.1169 16.5839C85.2006 15.6377 85.2355 14.6879 85.2208 13.7381V11.2737C84.3109 11.2737 83.1616 11.2004 81.744 11.2004C79.6552 11.2004 78.1332 11.2297 77.1035 11.2737Z" fill="#337AB7"/>
<path d="M99.4417 13.415H93.8607L93.2043 14.8819C92.9105 15.4734 92.6951 16.0995 92.5625 16.7449C92.554 16.802 92.5602 16.8603 92.5811 16.9142C92.6021 16.9682 92.637 17.0159 92.6819 17.0529C92.8695 17.1545 93.0795 17.2099 93.2942 17.2143L94.2188 17.317V17.9184C93.6073 17.9184 92.9059 17.8451 92.1301 17.8451C91.3543 17.8451 90.3987 17.8451 89.6973 17.9184V17.317H89.9809C90.2809 17.3284 90.5793 17.2836 90.8614 17.185C91.0481 17.0263 91.1915 16.8247 91.2791 16.5982C91.7271 15.6887 92.2045 14.7059 92.6819 13.6644L95.3232 7.7968C96.0393 6.22718 96.5167 5.09766 96.8151 4.39355H97.4723L102.277 15.5421C102.469 16.0087 102.688 16.4642 102.933 16.9063C103.035 17.0413 103.161 17.1558 103.307 17.2437C103.618 17.328 103.939 17.3723 104.262 17.3757V17.9771C103.426 17.9771 102.635 17.9038 101.874 17.9038C101.113 17.9038 100.233 17.9038 99.0534 17.9771V17.3757H100.009C100.212 17.3765 100.414 17.3418 100.606 17.273C100.652 17.2453 100.689 17.2064 100.716 17.1602C100.741 17.114 100.755 17.0619 100.755 17.009C100.7 16.6998 100.605 16.399 100.472 16.1141L99.4417 13.415ZM94.2188 12.6376H99.0836L96.6516 6.94597L94.2188 12.6376Z" fill="#337AB7"/>
<path d="M110.769 5.08294H110.351C109.594 5.08294 109.162 5.18562 109.052 5.39099C108.887 6.32534 108.832 7.27537 108.888 8.22211V16.2607L110.948 13.3269L113.932 9.10231L117.095 4.4375H118.588H120.767V5.03893H120.035C119.393 5.03893 119.02 5.15629 118.93 5.37632C118.756 6.41851 118.675 7.47397 118.692 8.53018V13.7964C118.645 14.8593 118.69 15.9241 118.827 16.9796C118.916 17.2436 119.289 17.3756 119.93 17.3756H120.662V17.9771C119.871 17.9771 118.946 17.9037 117.871 17.9037C116.797 17.9037 115.768 17.9037 114.887 17.9771V17.3756H115.544C116.17 17.3756 116.543 17.2436 116.663 16.9942C116.862 15.9205 116.927 14.8269 116.856 13.7377V8.53018C116.856 8.03145 116.857 7.18062 116.931 5.96308L110.693 14.9846C110.061 15.9647 109.374 16.9098 108.634 17.8157C108.068 18.0232 107.476 18.1564 106.873 18.2117C106.963 16.6569 107.023 15.2779 107.023 14.0897V8.22211C107.084 7.28941 107.024 6.35277 106.844 5.435C106.71 5.20029 106.352 5.08294 105.754 5.08294H105.113V4.4815C106.113 4.4815 107.023 4.4815 107.858 4.4815C108.992 4.4815 109.963 4.4815 110.843 4.4815L110.769 5.08294Z" fill="#337AB7"/>
<path d="M128.197 5.34741C128.123 6.28623 128.092 7.28369 128.092 8.28124V13.6794C128.031 14.7915 128.082 15.9068 128.242 17.0093C128.346 17.2147 128.704 17.3173 129.346 17.3173H130.063V17.9188C128.928 17.9188 127.958 17.8454 127.167 17.8454C126.377 17.8454 125.406 17.8454 124.287 17.9188V17.3173H125.108C125.392 17.3469 125.678 17.2906 125.929 17.156C126.087 16.9716 126.172 16.737 126.167 16.4959C126.167 15.7625 126.272 14.8089 126.272 13.5621V8.28124C126.272 7.21038 126.272 6.22756 126.272 5.34741H125.302C124.425 5.30415 123.546 5.33851 122.676 5.45009C122.512 5.52344 122.407 5.80215 122.363 6.3009L122.228 7.57712H121.616V6.44759C121.616 5.99285 121.616 5.33274 121.512 4.48193H127.63H132.972C132.853 5.55278 132.778 6.57961 132.748 7.57712H132.122L132.017 6.33024C132.027 6.06655 131.971 5.8045 131.853 5.56744C131.853 5.47943 131.629 5.43542 131.39 5.42075C130.674 5.42075 129.898 5.42075 128.973 5.42075L128.197 5.34741Z" fill="#337AB7"/>
<path d="M137.612 11.5231V15.1903C137.612 16.0265 137.612 16.6572 137.612 17.024C138.552 17.024 139.567 17.1267 140.597 17.1267C141.2 17.1328 141.803 17.1034 142.402 17.0386C142.748 16.9867 143.087 16.9033 143.417 16.7893C143.581 16.2318 143.73 15.5424 143.909 14.7062H144.536C144.372 16.0852 144.282 17.0093 144.282 17.4787V17.9041C143.551 17.9041 142.79 18.0068 142.104 18.0068H140.612C138.94 18.0068 137.702 17.9335 136.926 17.9335C136.15 17.9335 135.165 17.9335 133.942 18.0068V17.4054H134.24C134.601 17.4386 134.965 17.3831 135.3 17.244C135.483 17.031 135.584 16.7605 135.583 16.4812C135.583 16.0852 135.583 15.205 135.583 13.8408V8.61861C135.583 7.75313 135.583 7.06366 135.583 6.52094C135.57 6.18987 135.525 5.86077 135.449 5.53811C135.4 5.44426 135.328 5.36368 135.24 5.3034C134.971 5.21151 134.689 5.16201 134.404 5.15671L133.658 5.08336V4.48193H134.702H135.732C136.299 4.48193 136.732 4.48193 137.03 4.48193H140.731H142.566C143.163 4.48193 143.76 4.48193 144.372 4.48193C144.105 5.4377 143.969 6.42449 143.969 7.41576H143.313C143.323 6.83699 143.287 6.25835 143.208 5.6848C142.311 5.38143 141.366 5.23739 140.418 5.2594C139.538 5.2594 138.612 5.2594 137.642 5.37675C137.642 5.97818 137.642 6.56494 137.642 7.15171V10.5402C138.269 10.5402 138.836 10.5402 139.328 10.5402C140.196 10.5941 141.068 10.5449 141.925 10.3936C142.118 10.2762 142.223 9.95353 142.223 9.41078V8.91197H142.879C142.879 9.86549 142.879 10.6282 142.879 11.2004C142.879 11.7724 142.879 12.5059 142.879 13.3274H142.223V12.77C142.223 12.1685 142.104 11.8018 141.865 11.6551C141.029 11.465 140.169 11.4006 139.314 11.4644C138.746 11.4644 138.18 11.4791 137.612 11.5231Z" fill="#337AB7"/>
<path d="M146.686 18.623C146.317 19.4932 146.004 20.3848 145.745 21.2927H145.029C145.253 20.3939 145.423 19.4828 145.537 18.5642L145.656 17.6401C146.723 16.6675 147.532 15.454 148.014 14.1048C148.562 11.9432 148.788 9.71466 148.685 7.48908C148.709 6.84676 148.674 6.20359 148.58 5.56744C148.58 5.23005 148.133 5.08336 147.432 5.08336H146.745V4.48193C148.327 4.55528 150.327 4.59929 152.714 4.59929L158.593 4.48193H159.339V5.08336H158.609C157.907 5.08336 157.519 5.21539 157.459 5.50877C157.404 6.52022 157.404 7.53386 157.459 8.5453V13.8994C157.404 14.9109 157.404 15.9245 157.459 16.9359C157.459 17.2294 157.892 17.3761 158.609 17.3761H159.757C159.487 18.6648 159.347 19.9768 159.339 21.2927H158.609C158.59 20.3991 158.516 19.5074 158.385 18.623C157.927 18.3484 157.42 18.1594 156.893 18.0655C155.45 17.9175 153.999 17.8636 152.55 17.9041C151.185 17.8761 149.821 17.9202 148.461 18.0362C147.841 18.1364 147.241 18.3346 146.686 18.623ZM155.505 5.42075C154.923 5.42075 154.013 5.34741 152.759 5.34741C151.505 5.34741 150.551 5.34741 149.551 5.42075C149.619 7.99026 149.475 10.5609 149.118 13.1073C148.84 14.5517 148.188 15.9009 147.223 17.024C150.043 17.024 151.923 17.112 152.878 17.112C153.834 17.112 154.818 17.112 155.505 17.024C155.505 15.5571 155.624 14.4716 155.624 13.9434V8.53057C155.624 8.00254 155.579 6.96105 155.505 5.40608V5.42075Z" fill="#337AB7"/>
<path d="M60.5548 36.0202H61.2114C61.8382 36.0202 62.2112 35.8881 62.3306 35.6388C62.5295 34.565 62.5947 33.4714 62.5246 32.3822V27.1746C62.5246 26.8519 62.5246 25.8104 62.4052 24.0355C61.8232 24.0355 60.7936 24.0355 59.3014 24.0355C57.1526 24.0355 55.7052 24.0355 54.974 24.0355C54.974 24.9743 54.974 25.9131 54.974 26.8666V32.5729C54.974 33.0276 54.974 33.5557 54.974 34.1718V35.2134C54.974 35.58 55.1083 35.8001 55.3321 35.8881C55.5749 35.9797 55.8332 36.0244 56.0931 36.0202H56.7497V36.6362C55.9738 36.6362 55.168 36.6362 54.3174 36.6362H51.0943V36.0495H51.6911C52.3925 36.0495 52.8103 35.9175 52.9148 35.6534C53.0774 34.6447 53.1324 33.6222 53.0789 32.6023V26.8666C53.1273 25.9424 53.0572 25.0158 52.87 24.1088C52.7656 23.8448 52.3925 23.7128 51.7807 23.7128H51.0645V23.126H59.1372H66.27V23.7128H65.5388C64.8226 23.7128 64.4346 23.8594 64.3898 24.1528C64.3011 25.1576 64.2712 26.1665 64.3003 27.1746V32.4409C64.2547 33.5038 64.2996 34.5685 64.4346 35.624C64.5241 35.8881 64.8823 36.0202 65.5388 36.0202H66.2999V36.6362C65.509 36.6362 64.5838 36.6362 63.5243 36.6362C62.4649 36.6362 61.4054 36.6362 60.5399 36.6362L60.5548 36.0202Z" fill="#337AB7"/>
<path d="M77.0439 32.0595H71.4631L70.8065 33.5264C70.5104 34.117 70.2946 34.7434 70.1648 35.3894C70.1563 35.4464 70.1628 35.5047 70.1837 35.5587C70.2046 35.6126 70.2392 35.6604 70.2843 35.6974C70.472 35.7989 70.6819 35.8543 70.8961 35.8588L71.8212 35.9614V36.6362C71.1945 36.6362 70.5081 36.6362 69.7321 36.6362C68.9562 36.6362 67.9564 36.6362 67.2998 36.6362V36.0495H67.5833C67.878 36.0631 68.1723 36.0182 68.4489 35.9175C68.6408 35.7605 68.7895 35.5587 68.8816 35.3307C69.3292 34.4212 69.7918 33.4433 70.2693 32.3969L72.9254 26.5293C73.6268 24.9597 74.1192 23.8301 74.4177 23.126H75.0743L79.8941 34.1718C80.0843 34.6441 80.3035 35.1046 80.5506 35.5507C80.6438 35.6887 80.7726 35.8001 80.9237 35.8735C81.2319 35.973 81.5543 36.0226 81.879 36.0202V36.6362C81.0427 36.6362 80.2522 36.6362 79.4911 36.6362H76.6709V36.0495H77.6259C77.8293 36.0486 78.0311 36.0138 78.2228 35.9468C78.2686 35.9191 78.3064 35.8802 78.3326 35.834C78.3588 35.7877 78.3723 35.7357 78.372 35.6827C78.3174 35.3737 78.2222 35.0728 78.0885 34.7879L77.0439 32.0595ZM71.8212 31.282H76.6709L74.2535 25.5904L71.8212 31.282Z" fill="#337AB7"/>
<path d="M88.3553 29.1404L94.936 35.1694L95.5328 35.7268C95.6413 35.8272 95.7676 35.9069 95.9056 35.9615C96.1133 35.991 96.3249 35.991 96.5326 35.9615V36.6363C96.0102 36.6363 95.5475 36.6363 95.1445 36.6363C94.7415 36.6363 94.2641 36.6363 93.7719 36.6363L87.1315 30.4459C87.0129 30.3146 86.8711 30.2053 86.7137 30.1232C86.5797 30.1232 86.5045 30.2552 86.5045 30.5046V33.4384C86.4696 34.2121 86.4998 34.9873 86.5944 35.7562C86.699 35.9762 87.0416 36.0935 87.6391 36.0935H88.37V36.6363C87.3252 36.6363 86.3851 36.6363 85.5799 36.6363C84.7738 36.6363 83.819 36.6363 82.8789 36.6363V36.0495H83.6547C84.1771 36.0495 84.4902 35.9468 84.5801 35.7708C84.7436 34.9747 84.7986 34.1608 84.7436 33.3504V26.984C84.8002 26.0031 84.7452 25.0191 84.5801 24.0502C84.4902 23.8302 84.1771 23.7128 83.6547 23.7128H82.8789V23.1261C84.0577 23.1261 84.9079 23.1261 85.445 23.1261H88.4297V23.7128H87.6686C87.3795 23.7049 87.0935 23.7652 86.8331 23.8888C86.6874 24.0508 86.6083 24.2596 86.6091 24.4756C86.6091 24.769 86.6091 25.6052 86.6091 26.984V29.5511H86.7432C87.2803 29.1257 87.7283 28.7443 88.101 28.3923C88.4746 28.0402 89.1163 27.4241 89.9813 26.544L92.7272 23.7568V23.0967C93.4286 23.0967 94.0106 23.0967 94.4733 23.0967C94.936 23.0967 95.4878 23.0967 96.0699 23.0967V23.6835H95.5622C95.153 23.6686 94.7461 23.7596 94.3834 23.9475C93.5882 24.4987 92.8403 25.1118 92.1451 25.7812L88.3553 29.1404Z" fill="#337AB7"/>
</g>
<defs>
<clipPath id="clip0_226_74">
<rect width="160" height="42" fill="white"/>
</clipPath>
</defs>
</svg>
