<svg width="160" height="42" viewBox="0 0 160 42" fill="none" xmlns="http://www.w3.org/2000/svg">
<path d="M23.0566 3.18314C23.6953 2.55435 23.6961 1.53557 23.0582 0.907651C22.4203 0.279719 21.3854 0.280429 20.7466 0.909222C20.1079 1.53802 20.1072 2.55679 20.745 3.18471C21.3829 3.81263 22.4178 3.81193 23.0566 3.18314Z" fill="white"/>
<path d="M23.0042 7.11093C23.6151 6.50948 23.6158 5.535 23.0056 4.93437C22.3955 4.33375 21.4056 4.33442 20.7946 4.93588C20.1836 5.53733 20.183 6.51181 20.7931 7.11244C21.4033 7.71306 22.3931 7.71238 23.0042 7.11093Z" fill="white"/>
<path d="M22.9609 10.9693C23.5496 10.3898 23.5503 9.45077 22.9623 8.87193C22.3743 8.29316 21.4204 8.29385 20.8316 8.87338C20.2429 9.45299 20.2422 10.392 20.8302 10.9708C21.4182 11.5496 22.3721 11.5489 22.9609 10.9693Z" fill="white"/>
<path d="M22.9181 14.7289C23.4791 14.1767 23.4798 13.282 22.9196 12.7304C22.3593 12.179 21.4504 12.1796 20.8894 12.7318C20.3284 13.2841 20.3278 14.1788 20.888 14.7303C21.4482 15.2818 22.3571 15.2812 22.9181 14.7289Z" fill="white"/>
<path d="M22.875 18.3895C23.4082 17.8646 23.4088 17.0141 22.8763 16.49C22.3438 15.9658 21.4799 15.9664 20.9467 16.4913C20.4135 17.0162 20.4129 17.8667 20.9454 18.3909C21.4778 18.915 22.3417 18.9144 22.875 18.3895Z" fill="white"/>
<path d="M22.8327 22.0898C23.3436 21.5868 23.3443 20.7717 22.8339 20.2694C22.3236 19.7671 21.4957 19.7676 20.9847 20.2706C20.4737 20.7737 20.4731 21.5887 20.9835 22.0911C21.4937 22.5934 22.3216 22.5928 22.8327 22.0898Z" fill="white"/>
<path d="M22.7895 25.9482C23.2727 25.4725 23.2733 24.7018 22.7907 24.2267C22.3081 23.7517 21.5252 23.7522 21.042 24.2279C20.5588 24.7036 20.5582 25.4743 21.0407 25.9493C21.5234 26.4244 22.3063 26.4239 22.7895 25.9482Z" fill="white"/>
<path d="M22.7467 29.6484C23.2077 29.1946 23.2082 28.4593 22.7478 28.0061C22.2875 27.5529 21.5405 27.5535 21.0795 28.0073C20.6185 28.4611 20.618 29.1964 21.0784 29.6496C21.5387 30.1028 22.2856 30.1023 22.7467 29.6484Z" fill="white"/>
<path d="M22.704 33.2496C23.1373 32.8231 23.1378 32.1321 22.7051 31.7062C22.2724 31.2803 21.5705 31.2808 21.1373 31.7073C20.704 32.1338 20.7035 32.8248 21.1362 33.2506C21.5689 33.6766 22.2708 33.6761 22.704 33.2496Z" fill="white"/>
<path d="M22.6511 37.2961C23.0566 36.897 23.057 36.2503 22.6521 35.8517C22.2472 35.4531 21.5903 35.4535 21.1848 35.8527C20.7793 36.2519 20.7788 36.8985 21.1838 37.2972C21.5887 37.6957 22.2457 37.6953 22.6511 37.2961Z" fill="white"/>
<path d="M22.6078 41.4712C22.991 41.0939 22.9915 40.4827 22.6087 40.1058C22.226 39.7291 21.605 39.7296 21.2218 40.1068C20.8385 40.4841 20.8381 41.0954 21.2209 41.4721C21.6036 41.8489 22.2245 41.8485 22.6078 41.4712Z" fill="white"/>
<path d="M19.054 7.12338C19.6649 6.52193 19.6656 5.54744 19.0554 4.94683C18.4453 4.3462 17.4554 4.34687 16.8444 4.94833C16.2334 5.54978 16.2328 6.52426 16.8429 7.12489C17.4531 7.72554 18.4429 7.72486 19.054 7.12338Z" fill="white"/>
<path d="M19.0116 10.982C19.6004 10.4025 19.601 9.46344 19.0131 8.8846C18.4251 8.30583 17.4712 8.30651 16.8824 8.88605C16.2936 9.46565 16.293 10.4047 16.881 10.9834C17.4689 11.5623 18.4228 11.5616 19.0116 10.982Z" fill="white"/>
<path d="M18.9582 14.7316C19.5192 14.1794 19.5199 13.2846 18.9596 12.7331C18.3994 12.1816 17.4905 12.1822 16.9295 12.7345C16.3684 13.2867 16.3678 14.1815 16.9281 14.733C17.4883 15.2844 18.3972 15.2838 18.9582 14.7316Z" fill="white"/>
<path d="M18.9155 18.3922C19.4488 17.8673 19.4493 17.0169 18.9169 16.4927C18.3843 15.9685 17.5204 15.9691 16.9872 16.494C16.454 17.0189 16.4534 17.8693 16.9859 18.3935C17.5184 18.9177 18.3823 18.9171 18.9155 18.3922Z" fill="white"/>
<path d="M18.8727 22.0924C19.3837 21.5894 19.3843 20.7743 18.8739 20.272C18.3637 19.7697 17.5358 19.7702 17.0247 20.2733C16.5138 20.7763 16.5131 21.5914 17.0235 22.0937C17.5338 22.596 18.3617 22.5955 18.8727 22.0924Z" fill="white"/>
<path d="M18.83 25.9509C19.3133 25.4752 19.3138 24.7045 18.8313 24.2294C18.3487 23.7544 17.5657 23.7549 17.0825 24.2306C16.5993 24.7063 16.5987 25.477 17.0813 25.9521C17.5639 26.4271 18.3468 26.4266 18.83 25.9509Z" fill="white"/>
<path d="M18.7975 29.661C19.2584 29.2072 19.259 28.4719 18.7986 28.0187C18.3383 27.5655 17.5913 27.566 17.1303 28.0198C16.6692 28.4736 16.6688 29.209 17.1291 29.6621C17.5895 30.1153 18.3365 30.1148 18.7975 29.661Z" fill="white"/>
<path d="M18.7441 33.2522C19.1773 32.8258 19.1778 32.1348 18.7452 31.7088C18.3125 31.2829 17.6105 31.2834 17.1773 31.7099C16.7441 32.1364 16.7436 32.8274 17.1762 33.2533C17.6089 33.6792 18.3108 33.6787 18.7441 33.2522Z" fill="white"/>
<path d="M18.6911 37.2988C19.0965 36.8996 19.097 36.2529 18.6921 35.8543C18.2872 35.4557 17.6303 35.4562 17.2248 35.8553C16.8194 36.2545 16.8189 36.9011 17.2238 37.2998C17.6287 37.6983 18.2856 37.6979 18.6911 37.2988Z" fill="white"/>
<path d="M15.0517 10.9846C15.6404 10.405 15.6411 9.46598 15.0531 8.88722C14.4651 8.30837 13.5112 8.30906 12.9225 8.88867C12.3337 9.4682 12.333 10.4072 12.921 10.9861C13.509 11.5648 14.4629 11.5641 15.0517 10.9846Z" fill="white"/>
<path d="M15.0188 14.7342C15.5797 14.182 15.5804 13.2872 15.0202 12.7358C14.4599 12.1843 13.551 12.1849 12.99 12.7371C12.429 13.2894 12.4284 14.1841 12.9886 14.7356C13.5489 15.2871 14.4577 15.2865 15.0188 14.7342Z" fill="white"/>
<path d="M14.9658 18.4048C15.499 17.8799 15.4996 17.0295 14.9671 16.5053C14.4347 15.981 13.5707 15.9817 13.0375 16.5066C12.5043 17.0315 12.5037 17.8819 13.0362 18.4061C13.5686 18.9303 14.4326 18.9297 14.9658 18.4048Z" fill="white"/>
<path d="M14.9333 22.0951C15.4442 21.592 15.4449 20.7771 14.9345 20.2747C14.4242 19.7723 13.5963 19.7729 13.0853 20.276C12.5743 20.779 12.5737 21.594 13.084 22.0963C13.5943 22.5987 14.4222 22.5981 14.9333 22.0951Z" fill="white"/>
<path d="M14.8798 25.9635C15.3631 25.4878 15.3636 24.7171 14.8811 24.242C14.3985 23.767 13.6155 23.7675 13.1323 24.2432C12.6491 24.7189 12.6485 25.4896 13.1311 25.9647C13.6137 26.4397 14.3966 26.4392 14.8798 25.9635Z" fill="white"/>
<path d="M14.8375 29.6636C15.2985 29.2098 15.299 28.4746 14.8387 28.0213C14.3783 27.5681 13.6313 27.5687 13.1703 28.0225C12.7093 28.4763 12.7088 29.2116 13.1692 29.6648C13.6295 30.118 14.3765 30.1175 14.8375 29.6636Z" fill="white"/>
<path d="M14.7948 33.265C15.228 32.8385 15.2285 32.1475 14.7959 31.7215C14.3633 31.2957 13.6613 31.2961 13.2281 31.7226C12.7948 32.1491 12.7944 32.8401 13.227 33.266C13.6596 33.6919 14.3616 33.6915 14.7948 33.265Z" fill="white"/>
<path d="M11.0588 14.7371C11.6198 14.1849 11.6204 13.2901 11.0602 12.7387C10.4999 12.1871 9.59106 12.1877 9.03002 12.74C8.46905 13.2922 8.46843 14.187 9.02862 14.7385C9.58889 15.2899 10.4978 15.2893 11.0588 14.7371Z" fill="white"/>
<path d="M11.0064 18.4075C11.5396 17.8826 11.5402 17.0322 11.0077 16.508C10.4752 15.9838 9.61124 15.9844 9.07802 16.5093C8.5448 17.0342 8.54426 17.8847 9.0767 18.4088C9.60922 18.9331 10.4731 18.9324 11.0064 18.4075Z" fill="white"/>
<path d="M10.9733 22.0977C11.4843 21.5947 11.4849 20.7796 10.9746 20.2773C10.4643 19.775 9.63633 19.7755 9.12536 20.2785C8.6143 20.7816 8.61376 21.5966 9.12404 22.099C9.6344 22.6013 10.4623 22.6007 10.9733 22.0977Z" fill="white"/>
<path d="M10.9306 25.9761C11.4139 25.5004 11.4144 24.7297 10.9318 24.2546C10.4493 23.7796 9.66632 23.7801 9.18309 24.2558C8.69986 24.7315 8.69932 25.5022 9.18185 25.9772C9.66446 26.4523 10.4474 26.4518 10.9306 25.9761Z" fill="white"/>
<path d="M10.8873 29.6761C11.3483 29.2223 11.3488 28.487 10.8885 28.0338C10.4281 27.5806 9.68113 27.5812 9.22014 28.035C8.75908 28.4888 8.75861 29.2241 9.21898 29.6773C9.67935 30.1305 10.4263 30.1299 10.8873 29.6761Z" fill="white"/>
<path d="M7.05664 18.4201C7.58985 17.8952 7.59045 17.0447 7.05797 16.5205C6.52548 15.9964 5.66155 15.9969 5.12834 16.5218C4.59511 17.0467 4.59452 17.8972 5.127 18.4214C5.65949 18.9456 6.52342 18.945 7.05664 18.4201Z" fill="white"/>
<path d="M7.02358 22.1104C7.53458 21.6074 7.53515 20.7923 7.02485 20.29C6.51455 19.7876 5.68662 19.7882 5.17562 20.2912C4.66462 20.7943 4.66404 21.6093 5.17434 22.1116C5.68464 22.614 6.51257 22.6134 7.02358 22.1104Z" fill="white"/>
<path d="M6.97065 25.9787C7.45388 25.503 7.45443 24.7323 6.97186 24.2572C6.48929 23.7822 5.70636 23.7827 5.22313 24.2584C4.7399 24.7341 4.73936 25.5048 5.22192 25.9799C5.70449 26.4549 6.48742 26.4544 6.97065 25.9787Z" fill="white"/>
<path d="M3.07386 22.1229C3.58487 21.6199 3.58544 20.8049 3.07514 20.3026C2.56485 19.8002 1.73692 19.8008 1.22591 20.3038C0.714909 20.8068 0.714337 21.6218 1.22463 22.1242C1.73493 22.6265 2.56287 22.626 3.07386 22.1229Z" fill="white"/>
<path d="M26.9641 7.10822C27.5751 6.50676 27.5758 5.53228 26.9656 4.93166C26.3555 4.33103 25.3656 4.3317 24.7546 4.93316C24.1436 5.53462 24.1429 6.50909 24.753 7.10972C25.3632 7.71038 26.3531 7.70969 26.9641 7.10822Z" fill="white"/>
<path d="M26.9207 10.9666C27.5095 10.387 27.5102 9.44801 26.9222 8.86924C26.3343 8.29048 25.3804 8.29109 24.7916 8.87069C24.2029 9.4503 24.2022 10.3893 24.7901 10.9681C25.3781 11.5469 26.332 11.5463 26.9207 10.9666Z" fill="white"/>
<path d="M26.8679 14.7164C27.4289 14.1642 27.4295 13.2694 26.8693 12.7179C26.309 12.1664 25.4001 12.167 24.8391 12.7193C24.2781 13.2715 24.2775 14.1663 24.8377 14.7178C25.398 15.2692 26.3068 15.2686 26.8679 14.7164Z" fill="white"/>
<path d="M26.8252 18.377C27.3584 17.8521 27.359 17.0016 26.8265 16.4774C26.294 15.9532 25.4301 15.9538 24.8969 16.4787C24.3636 17.0036 24.3631 17.8541 24.8955 18.3783C25.4281 18.9024 26.292 18.9019 26.8252 18.377Z" fill="white"/>
<path d="M26.7824 22.0771C27.2934 21.5741 27.2939 20.759 26.7836 20.2567C26.2733 19.7544 25.4454 19.7549 24.9344 20.2579C24.4234 20.761 24.4228 21.576 24.9332 22.0784C25.4434 22.5807 26.2713 22.5801 26.7824 22.0771Z" fill="white"/>
<path d="M26.7392 25.9357C27.2225 25.46 27.223 24.6893 26.7404 24.2142C26.2579 23.7392 25.4749 23.7397 24.9917 24.2154C24.5085 24.6911 24.5079 25.4618 24.9904 25.9369C25.4731 26.4119 26.256 26.4114 26.7392 25.9357Z" fill="white"/>
<path d="M26.6968 29.6359C27.1579 29.182 27.1584 28.4467 26.698 27.9935C26.2376 27.5403 25.4907 27.5408 25.0297 27.9946C24.5687 28.4485 24.5682 29.1837 25.0285 29.6369C25.4889 30.0902 26.2359 30.0897 26.6968 29.6359Z" fill="white"/>
<path d="M26.6542 33.2371C27.0874 32.8106 27.0879 32.1196 26.6553 31.6937C26.2226 31.2678 25.5207 31.2683 25.0874 31.6947C24.6542 32.1212 24.6537 32.8122 25.0864 33.2382C25.519 33.664 26.2209 33.6636 26.6542 33.2371Z" fill="white"/>
<path d="M26.6008 37.2835C27.0063 36.8844 27.0067 36.2377 26.6018 35.8391C26.1968 35.4405 25.5399 35.4409 25.1344 35.8401C24.729 36.2392 24.7286 36.8859 25.1334 37.2845C25.5384 37.6831 26.1953 37.6826 26.6008 37.2835Z" fill="white"/>
<path d="M30.8705 10.9541C31.4593 10.3745 31.4599 9.43544 30.872 8.85667C30.284 8.2779 29.3301 8.27851 28.7413 8.85812C28.1525 9.43773 28.1519 10.3768 28.7399 10.9555C29.3278 11.5343 30.2817 11.5337 30.8705 10.9541Z" fill="white"/>
<path d="M30.8278 14.7137C31.3888 14.1614 31.3894 13.2667 30.8292 12.7152C30.269 12.1637 29.3601 12.1643 28.7991 12.7165C28.2381 13.2688 28.2375 14.1635 28.7977 14.7151C29.3579 15.2665 30.2668 15.2659 30.8278 14.7137Z" fill="white"/>
<path d="M30.7749 18.3644C31.3082 17.8395 31.3087 16.989 30.7763 16.4648C30.2437 15.9407 29.3798 15.9412 28.8466 16.4661C28.3134 16.991 28.3128 17.8414 28.8453 18.3657C29.3778 18.8899 30.2417 18.8893 30.7749 18.3644Z" fill="white"/>
<path d="M30.732 22.0645C31.2431 21.5615 31.2436 20.7465 30.7334 20.2441C30.2231 19.7418 29.3951 19.7424 28.8841 20.2454C28.3731 20.7485 28.3726 21.5635 28.8828 22.0658C29.3931 22.5681 30.2211 22.5676 30.732 22.0645Z" fill="white"/>
<path d="M30.6992 25.9328C31.1824 25.4571 31.1829 24.6864 30.7004 24.2114C30.2178 23.7364 29.4349 23.7368 28.9516 24.2126C28.4684 24.6883 28.4679 25.459 28.9505 25.934C29.433 26.409 30.2159 26.4085 30.6992 25.9328Z" fill="white"/>
<path d="M30.6564 29.6331C31.1174 29.1793 31.1179 28.444 30.6575 27.9908C30.1971 27.5376 29.4502 27.5381 28.9891 27.9919C28.5282 28.4457 28.5276 29.1811 28.9881 29.6342C29.4484 30.0874 30.1953 30.0869 30.6564 29.6331Z" fill="white"/>
<path d="M30.6035 33.2245C31.0367 32.798 31.0372 32.107 30.6045 31.6812C30.1719 31.2552 29.4699 31.2557 29.0367 31.6822C28.6034 32.1086 28.603 32.7996 29.0356 33.2256C29.4683 33.6515 30.1702 33.651 30.6035 33.2245Z" fill="white"/>
<path d="M34.7771 14.7011C35.338 14.1488 35.3386 13.2541 34.7785 12.7025C34.2182 12.1511 33.3093 12.1517 32.7483 12.7039C32.1873 13.2562 32.1867 14.1509 32.7469 14.7024C33.3071 15.2539 34.216 15.2533 34.7771 14.7011Z" fill="white"/>
<path d="M34.7343 18.3616C35.2676 17.8367 35.2682 16.9862 34.7357 16.4621C34.2032 15.9379 33.3393 15.9385 32.8061 16.4634C32.2729 16.9883 32.2722 17.8388 32.8048 18.363C33.3372 18.8871 34.2011 18.8865 34.7343 18.3616Z" fill="white"/>
<path d="M34.692 22.0619C35.203 21.5589 35.2036 20.7438 34.6933 20.2415C34.183 19.7391 33.355 19.7397 32.8441 20.2427C32.3331 20.7458 32.3325 21.5608 32.8428 22.0631C33.3531 22.5655 34.181 22.5649 34.692 22.0619Z" fill="white"/>
<path d="M34.6386 25.9302C35.1219 25.4545 35.1224 24.6838 34.6399 24.2088C34.1573 23.7337 33.3743 23.7342 32.8911 24.2099C32.4079 24.6856 32.4073 25.4563 32.8899 25.9314C33.3725 26.4064 34.1554 26.4059 34.6386 25.9302Z" fill="white"/>
<path d="M34.6061 29.6204C35.067 29.1666 35.0676 28.4313 34.6072 27.9781C34.1468 27.5249 33.3999 27.5254 32.9389 27.9792C32.4778 28.433 32.4774 29.1684 32.9377 29.6215C33.3981 30.0747 34.145 30.0742 34.6061 29.6204Z" fill="white"/>
<path d="M38.6845 18.3491C39.2178 17.8242 39.2184 16.9738 38.6859 16.4495C38.1534 15.9254 37.2895 15.9259 36.7563 16.4508C36.2231 16.9757 36.2224 17.8262 36.7549 18.3504C37.2874 18.8745 38.1513 18.874 38.6845 18.3491Z" fill="white"/>
<path d="M38.6412 22.0493C39.1523 21.5463 39.1528 20.7313 38.6425 20.2289C38.1323 19.7266 37.3043 19.7272 36.7933 20.2302C36.2823 20.7333 36.2817 21.5483 36.792 22.0506C37.3023 22.5529 38.1302 22.5524 38.6412 22.0493Z" fill="white"/>
<path d="M38.5986 25.9276C39.0818 25.4519 39.0824 24.6812 38.5998 24.2061C38.1172 23.7311 37.3343 23.7316 36.8511 24.2073C36.3678 24.683 36.3673 25.4537 36.8499 25.9287C37.3324 26.4038 38.1154 26.4033 38.5986 25.9276Z" fill="white"/>
<path d="M42.6012 22.0466C43.1122 21.5435 43.1128 20.7285 42.6025 20.2262C42.0922 19.7238 41.2642 19.7244 40.7533 20.2274C40.2423 20.7304 40.2417 21.5455 40.7519 22.0478C41.2623 22.5501 42.0902 22.5496 42.6012 22.0466Z" fill="white"/>
<path d="M57.7137 10.8008C57.7662 9.93688 57.9984 9.09268 58.3963 8.32051C58.7942 7.54841 59.3491 6.86483 60.0266 6.31211C61.5165 5.20595 63.3548 4.65031 65.2195 4.74251C67.1082 4.64502 68.9608 5.27667 70.3825 6.5028C71.0121 7.09324 71.5087 7.80698 71.8403 8.59784C72.1719 9.38871 72.331 10.2392 72.3075 11.0943C72.3441 12.095 72.1649 13.092 71.7816 14.0198C71.3984 14.9477 70.82 15.7854 70.0841 16.4778C69.3549 17.1768 68.4907 17.7252 67.5425 18.0905C66.5942 18.4559 65.5811 18.6308 64.5629 18.6048C62.7681 18.6752 61.0183 18.0421 59.6983 16.8446C59.0288 16.1621 58.5044 15.3552 58.1559 14.4711C57.8075 13.587 57.6419 12.6434 57.6689 11.6957H56.9228H56.2215H54.6248V14.3654C54.6248 14.8202 54.6248 15.3629 54.6248 15.9791V17.0206C54.6248 17.3726 54.7442 17.5926 54.983 17.6807C55.2257 17.7722 55.484 17.817 55.744 17.8127H56.4006V18.4142C55.6246 18.4142 54.8188 18.3408 53.9682 18.3408C53.1177 18.3408 52.0731 18.3408 50.7451 18.4142V17.8127H51.4166C52.1179 17.8127 52.5357 17.6807 52.6402 17.4166C52.7935 16.407 52.8435 15.3849 52.7894 14.3654V8.60051C52.8486 7.67811 52.7935 6.75202 52.6253 5.8427C52.5059 5.57865 52.1478 5.4613 51.536 5.4613H50.8197V4.85986C51.8195 4.85986 52.7297 4.85986 53.5504 4.85986C54.6995 4.85986 55.6693 4.85986 56.5349 4.85986V5.4613H56.1171C55.361 5.4613 54.9283 5.56398 54.8188 5.76935C54.6636 6.70483 54.6136 7.65423 54.6696 8.60051V10.7568L56.9228 10.8449L57.7137 10.8008ZM64.6823 5.47597C63.9915 5.4385 63.3008 5.55044 62.6588 5.80389C62.0168 6.05734 61.4393 6.44614 60.9667 6.94287C60.0206 8.06317 59.5409 9.49384 59.6237 10.9475C59.5706 12.6643 60.0951 14.3504 61.1159 15.7443C61.5852 16.3831 62.2086 16.8972 62.9301 17.2403C63.6517 17.5835 64.4486 17.7448 65.2494 17.71C65.9443 17.7446 66.6381 17.6194 67.2752 17.3444C67.9124 17.0694 68.4757 16.6521 68.9201 16.1257C69.8943 14.8667 70.3714 13.3033 70.2632 11.725C70.3489 10.0628 69.8188 8.42625 68.7709 7.11888C68.2582 6.56148 67.6245 6.12444 66.9168 5.84007C66.2091 5.55569 65.4455 5.43127 64.6823 5.47597Z" fill="white"/>
<path d="M76.9776 11.6518V14.2922C76.9776 14.747 76.9776 15.2897 76.9776 15.9058C76.9865 16.3962 77.0214 16.8859 77.082 17.3728C77.1389 17.4965 77.2397 17.5956 77.3655 17.6515C77.6061 17.768 77.8741 17.8187 78.1415 17.7981H78.798V18.3995C77.9624 18.3995 77.1566 18.3262 76.3807 18.3262C75.6048 18.3262 74.5453 18.3262 73.1426 18.3995V17.7981H73.7992C74.4855 17.7981 74.8735 17.6808 74.993 17.4607C75.1952 16.4468 75.2605 15.411 75.1869 14.3802V8.6593C75.2558 7.71127 75.1906 6.75849 74.993 5.82815C74.8735 5.60811 74.5155 5.50543 73.9185 5.50543H73.2023V4.90399C74.2617 4.90399 75.2466 4.90399 76.1867 4.90399C77.1268 4.90399 77.9922 4.90399 78.8727 4.90399V5.50543H78.425C78.0515 5.47142 77.675 5.51644 77.3208 5.63745C77.2457 5.69337 77.1829 5.76391 77.1368 5.84467C77.0906 5.92543 77.0617 6.01468 77.0522 6.10686C77.0522 6.45892 76.9776 7.29508 76.9776 8.64465V10.8157C78.1265 10.8157 79.5889 10.8157 81.3499 10.8157C82.8418 10.8157 84.0656 10.8157 85.0057 10.8157V8.90863C85.0057 7.82311 85.0057 6.91366 84.8863 6.18021C84.8863 6.07498 84.8639 5.97094 84.8197 5.87489C84.7763 5.77883 84.7127 5.69293 84.6329 5.62278C84.3523 5.48189 84.0354 5.42574 83.7222 5.46142H83.0356V4.85999C84.0206 4.85999 84.946 4.85999 85.8264 4.85999C86.7069 4.85999 87.7663 4.85999 88.8111 4.85999V5.46142H88.0795C87.7539 5.42835 87.4246 5.47889 87.1246 5.60811C87.0456 5.68731 86.9836 5.78144 86.9425 5.88481C86.9014 5.98817 86.882 6.09864 86.8859 6.20955C86.8859 6.48826 86.8859 7.39777 86.8859 8.92335V14.1749C86.8185 15.2581 86.8735 16.3454 87.0502 17.4167C87.1541 17.6368 87.5129 17.7542 88.1097 17.7542H88.8553V18.3556C87.9748 18.3556 87.0502 18.2822 86.1101 18.2822C85.17 18.2822 84.0206 18.2822 83.1255 18.3556V17.7542H83.7819C84.1043 17.7872 84.4298 17.7314 84.722 17.5928C84.8073 17.5106 84.8755 17.4124 84.9212 17.3041C84.9677 17.1958 84.991 17.0794 84.991 16.962C85.0747 16.0158 85.1095 15.0659 85.0948 14.1162V11.6518C84.1849 11.6518 83.0356 11.5785 81.618 11.5785C79.5293 11.5785 78.0072 11.6078 76.9776 11.6518Z" fill="white"/>
<path d="M99.3157 13.7934H93.7347L93.0783 15.2603C92.7846 15.8518 92.5691 16.4779 92.4366 17.1233C92.428 17.1804 92.4342 17.2387 92.4552 17.2926C92.4761 17.3466 92.511 17.3943 92.5559 17.4313C92.7435 17.5329 92.9535 17.5883 93.1682 17.5927L94.0928 17.6954V18.2968C93.4813 18.2968 92.7799 18.2235 92.0041 18.2235C91.2283 18.2235 90.2727 18.2235 89.5713 18.2968V17.6954H89.855C90.1549 17.7067 90.4533 17.662 90.7354 17.5634C90.9222 17.4047 91.0655 17.2031 91.1531 16.9766C91.6011 16.0671 92.0785 15.0843 92.5559 14.0428L95.1972 8.17517C95.9133 6.60555 96.3908 5.47603 96.6891 4.77191H97.3464L102.151 15.9205C102.343 16.3871 102.562 16.8426 102.807 17.2847C102.909 17.4197 103.035 17.5342 103.181 17.6221C103.492 17.7064 103.813 17.7507 104.136 17.754V18.3555C103.3 18.3555 102.509 18.2822 101.748 18.2822C100.987 18.2822 100.107 18.2822 98.9274 18.3555V17.754H99.883C100.086 17.7549 100.288 17.7202 100.48 17.6514C100.526 17.6237 100.564 17.5848 100.59 17.5386C100.615 17.4924 100.629 17.4403 100.629 17.3874C100.574 17.0782 100.479 16.7774 100.346 16.4925L99.3157 13.7934ZM94.0928 13.016H98.9577L96.5256 7.32433L94.0928 13.016Z" fill="white"/>
<path d="M110.643 5.46144H110.225C109.469 5.46144 109.036 5.56412 108.926 5.76949C108.761 6.70383 108.706 7.65387 108.762 8.6006V16.6393L110.822 13.7054L113.806 9.48081L116.969 4.81599H118.462H120.641V5.41743H119.909C119.267 5.41743 118.894 5.53478 118.805 5.75482C118.63 6.79701 118.55 7.85246 118.566 8.90868V14.1749C118.519 15.2378 118.564 16.3027 118.701 17.3581C118.79 17.6222 119.163 17.7542 119.804 17.7542H120.536V18.3556C119.745 18.3556 118.82 18.2823 117.745 18.2823C116.671 18.2823 115.642 18.2823 114.761 18.3556V17.7542H115.418C116.044 17.7542 116.417 17.6222 116.537 17.3728C116.736 16.299 116.801 15.2055 116.731 14.1162V8.90868C116.731 8.40995 116.731 7.55911 116.805 6.34158L110.568 15.3631C109.935 16.3432 109.248 17.2884 108.508 18.1942C107.942 18.4017 107.35 18.5349 106.747 18.5903C106.837 17.0354 106.897 15.6564 106.897 14.4682V8.6006C106.958 7.66791 106.898 6.73127 106.718 5.81349C106.584 5.57879 106.226 5.46144 105.628 5.46144H104.987V4.86C105.987 4.86 106.897 4.86 107.732 4.86C108.866 4.86 109.837 4.86 110.717 4.86L110.643 5.46144ZM109.941 3.34909L109.851 3.04103C110.256 2.83794 110.636 2.59199 110.985 2.30758C111.152 2.17085 111.326 2.04351 111.508 1.92618C112.969 2.65962 114.571 3.08434 116.208 3.17305V3.52511L115.387 3.92118C113.556 3.93046 111.729 3.73858 109.941 3.34909Z" fill="white"/>
<path d="M128.072 5.72547C127.997 6.66429 127.967 7.66175 127.967 8.6593V14.0575C127.906 15.1696 127.956 16.2849 128.117 17.3874C128.22 17.5928 128.578 17.6954 129.22 17.6954H129.937V18.2969C128.802 18.2969 127.833 18.2235 127.042 18.2235C126.251 18.2235 125.281 18.2235 124.162 18.2969V17.6954H124.982C125.267 17.725 125.553 17.6687 125.803 17.5341C125.961 17.3497 126.046 17.1151 126.042 16.874C126.042 16.1405 126.146 15.187 126.146 13.9402V8.6593C126.146 7.58843 126.146 6.60561 126.146 5.72547H125.177C124.3 5.68221 123.421 5.71657 122.55 5.82815C122.386 5.90149 122.281 6.18021 122.237 6.67895L122.102 7.95518H121.491V6.82565C121.491 6.37091 121.491 5.71079 121.386 4.85999H127.504H132.847C132.727 5.93083 132.653 6.95767 132.623 7.95518H131.996L131.892 6.7083C131.902 6.44461 131.845 6.18255 131.727 5.9455C131.727 5.85749 131.503 5.81348 131.265 5.79881C130.549 5.79881 129.773 5.79881 128.847 5.79881L128.072 5.72547Z" fill="white"/>
<path d="M137.487 11.9012V15.5684C137.487 16.4046 137.487 17.0353 137.487 17.4021C138.427 17.4021 139.442 17.5048 140.472 17.5048C141.075 17.5109 141.677 17.4815 142.277 17.4167C142.622 17.3648 142.962 17.2814 143.292 17.1674C143.455 16.6099 143.605 15.9205 143.784 15.0843H144.411C144.247 16.4633 144.157 17.3874 144.157 17.8568V18.2822C143.426 18.2822 142.665 18.3849 141.978 18.3849H140.486C138.815 18.3849 137.576 18.3116 136.8 18.3116C136.024 18.3116 135.039 18.3116 133.816 18.3849V17.7835H134.115C134.476 17.8167 134.839 17.7612 135.174 17.6221C135.358 17.4091 135.459 17.1386 135.457 16.8593C135.457 16.4633 135.457 15.5831 135.457 14.2189V8.99667C135.457 8.13119 135.457 7.44172 135.457 6.89899C135.445 6.56793 135.4 6.23883 135.323 5.91616C135.274 5.82231 135.202 5.74173 135.115 5.68146C134.846 5.58956 134.563 5.54006 134.278 5.53477L133.533 5.46142V4.85999H134.577H135.607C136.174 4.85999 136.606 4.85999 136.905 4.85999H140.606H142.441C143.038 4.85999 143.634 4.85999 144.247 4.85999C143.979 5.81576 143.844 6.80254 143.844 7.79382H143.187C143.197 7.21505 143.162 6.6364 143.083 6.06285C142.185 5.75949 141.24 5.61544 140.293 5.63745C139.412 5.63745 138.487 5.63745 137.516 5.7548C137.516 6.35624 137.516 6.943 137.516 7.52976V10.9183C138.143 10.9183 138.711 10.9183 139.203 10.9183C140.071 10.9722 140.943 10.923 141.799 10.7717C141.993 10.6543 142.098 10.3316 142.098 9.78883V9.29002H142.754C142.754 10.2435 142.754 11.0063 142.754 11.5785C142.754 12.1505 142.754 12.884 142.754 13.7055H142.098V13.1481C142.098 12.5466 141.978 12.1799 141.739 12.0332C140.904 11.8431 140.044 11.7787 139.188 11.8425C138.621 11.8425 138.054 11.8572 137.487 11.9012Z" fill="white"/>
<path d="M146.56 19.001C146.191 19.8713 145.878 20.7629 145.619 21.6708H144.903C145.127 20.772 145.297 19.8609 145.411 18.9423L145.53 18.0181C146.597 17.0456 147.406 15.8321 147.888 14.4829C148.436 12.3213 148.662 10.0927 148.559 7.86714C148.583 7.22481 148.548 6.58165 148.454 5.9455C148.454 5.60811 148.007 5.46142 147.306 5.46142H146.619V4.85999C148.201 4.93333 150.201 4.97734 152.588 4.97734L158.467 4.85999H159.213V5.46142H158.483C157.781 5.46142 157.393 5.59345 157.333 5.88683C157.278 6.89828 157.278 7.91192 157.333 8.92335V14.2775C157.278 15.289 157.278 16.3026 157.333 17.314C157.333 17.6075 157.766 17.7542 158.483 17.7542H159.631C159.361 19.0429 159.221 20.3549 159.213 21.6708H158.483C158.464 20.7772 158.39 19.8855 158.259 19.001C157.801 18.7265 157.294 18.5375 156.767 18.4436C155.324 18.2956 153.873 18.2417 152.424 18.2822C151.059 18.2542 149.695 18.2983 148.335 18.4143C147.715 18.5145 147.115 18.7127 146.56 19.001ZM155.379 5.79881C154.797 5.79881 153.887 5.72547 152.633 5.72547C151.379 5.72547 150.425 5.72547 149.425 5.79881C149.493 8.36831 149.349 10.939 148.992 13.4854C148.714 14.9298 148.062 16.279 147.097 17.4021C149.917 17.4021 151.797 17.4901 152.752 17.4901C153.708 17.4901 154.692 17.4901 155.379 17.4021C155.379 15.9352 155.498 14.8497 155.498 14.3215V8.90863C155.498 8.38059 155.453 7.3391 155.379 5.78414V5.79881Z" fill="white"/>
<path d="M60.4293 36.3986H61.0859C61.7127 36.3986 62.0857 36.2665 62.2051 36.0172C62.404 34.9434 62.4692 33.8498 62.3991 32.7606V27.553C62.3991 27.2303 62.3991 26.1888 62.2797 24.4139C61.6977 24.4139 60.6681 24.4139 59.1759 24.4139C57.0271 24.4139 55.5797 24.4139 54.8485 24.4139C54.8485 25.3527 54.8485 26.2915 54.8485 27.245V32.9513C54.8485 33.406 54.8485 33.9341 54.8485 34.5502V35.5918C54.8485 35.9584 54.9828 36.1785 55.2067 36.2665C55.4494 36.3581 55.7077 36.4028 55.9677 36.3986H56.6243V37.0146C55.8483 37.0146 55.0425 37.0146 54.1919 37.0146H50.9688V36.4279H51.5657C52.267 36.4279 52.6848 36.2959 52.7893 36.0318C52.9519 35.0231 53.0069 34.0006 52.9534 32.9807V27.245C53.0019 26.3208 52.9317 25.3942 52.7445 24.4872C52.6401 24.2232 52.267 24.0912 51.6552 24.0912H50.939V23.5044H59.0117H66.1445V24.0912H65.4133C64.6971 24.0912 64.3091 24.2378 64.2643 24.5312C64.1756 25.536 64.1457 26.5449 64.1748 27.553V32.8193C64.1292 33.8822 64.1741 34.9469 64.3091 36.0024C64.3986 36.2665 64.7568 36.3986 65.4133 36.3986H66.1744V37.0146C65.3835 37.0146 64.4583 37.0146 63.3989 37.0146C62.3394 37.0146 61.2799 37.0146 60.4145 37.0146L60.4293 36.3986Z" fill="white"/>
<path d="M76.9184 32.4379H71.3376L70.681 33.9048C70.3849 34.4954 70.1691 35.1218 70.0394 35.7678C70.0308 35.8248 70.0373 35.8831 70.0582 35.9371C70.0791 35.991 70.1137 36.0388 70.1588 36.0758C70.3465 36.1773 70.5564 36.2327 70.7706 36.2372L71.6957 36.3398V37.0146C71.069 37.0146 70.3826 37.0146 69.6067 37.0146C68.8307 37.0146 67.8309 37.0146 67.1743 37.0146V36.4279H67.4578C67.7525 36.4415 68.0468 36.3966 68.3234 36.2959C68.5153 36.1389 68.664 35.9371 68.7561 35.7091C69.2037 34.7996 69.6663 33.8217 70.1438 32.7753L72.7999 26.9076C73.5013 25.338 73.9937 24.2085 74.2922 23.5044H74.9488L79.7686 34.5502C79.9588 35.0225 80.178 35.483 80.4251 35.9291C80.5184 36.0671 80.6471 36.1785 80.7982 36.2519C81.1064 36.3514 81.4288 36.401 81.7535 36.3986V37.0146C80.9173 37.0146 80.1267 37.0146 79.3657 37.0146H76.5454V36.4279H77.5004C77.7038 36.4269 77.9057 36.3922 78.0973 36.3252C78.1431 36.2975 78.1809 36.2586 78.2071 36.2124C78.2333 36.1661 78.2468 36.1141 78.2465 36.0611C78.192 35.752 78.0967 35.4512 77.963 35.1663L76.9184 32.4379ZM71.6957 31.6604H76.5454L74.128 25.9688L71.6957 31.6604Z" fill="white"/>
<path d="M88.2298 29.5188L94.8105 35.5478L95.4073 36.1052C95.5158 36.2056 95.6421 36.2852 95.7801 36.3398C95.9878 36.3694 96.1994 36.3694 96.4071 36.3398V37.0147C95.8847 37.0147 95.422 37.0147 95.019 37.0147C94.616 37.0147 94.1386 37.0147 93.6464 37.0147L87.006 30.8243C86.8874 30.693 86.7456 30.5837 86.5883 30.5016C86.4542 30.5016 86.379 30.6336 86.379 30.883V33.8168C86.3441 34.5905 86.3743 35.3656 86.4689 36.1345C86.5735 36.3546 86.9161 36.4719 87.5136 36.4719H88.2445V37.0147C87.1998 37.0147 86.2596 37.0147 85.4544 37.0147C84.6484 37.0147 83.6935 37.0147 82.7534 37.0147V36.4279H83.5292C84.0516 36.4279 84.3647 36.3252 84.4546 36.1492C84.6181 35.353 84.6732 34.5391 84.6181 33.7287V27.3624C84.6747 26.3815 84.6197 25.3974 84.4546 24.4286C84.3647 24.2085 84.0516 24.0912 83.5292 24.0912H82.7534V23.5044C83.9322 23.5044 84.7824 23.5044 85.3195 23.5044H88.3042V24.0912H87.5431C87.254 24.0833 86.968 24.1436 86.7076 24.2672C86.5619 24.4292 86.4829 24.638 86.4836 24.854C86.4836 25.1473 86.4836 25.9835 86.4836 27.3624V29.9294H86.6177C87.1548 29.504 87.6028 29.1226 87.9756 28.7706C88.3491 28.4185 88.9908 27.8024 89.8558 26.9223L92.6017 24.1351V23.475C93.3031 23.475 93.8851 23.475 94.3478 23.475C94.8105 23.475 95.3623 23.475 95.9444 23.475V24.0618H95.4367C95.0275 24.0469 94.6206 24.138 94.2579 24.3259C93.4628 24.877 92.7149 25.4902 92.0197 26.1595L88.2298 29.5188Z" fill="white"/>
</svg>
