<svg width="19" height="14" viewBox="0 0 19 14" fill="none" xmlns="http://www.w3.org/2000/svg">
<path fill-rule="evenodd" clip-rule="evenodd" d="M18.1087 2.12679C17.8962 1.3024 17.2723 0.654556 16.4785 0.433879C15.0412 0.0335083 9.2749 0.0335083 9.2749 0.0335083C9.2749 0.0335083 3.50871 0.0335083 2.07133 0.433879C1.27751 0.654556 0.653687 1.3024 0.441191 2.12679C0.302679 2.66309 0.213932 3.40897 0.157069 4.1446L8.24013 8.29475C8.68368 8.52248 9.21139 8.51494 9.64825 8.27462L18.3331 3.49699C18.2787 2.98742 18.2059 2.50499 18.1087 2.12679ZM18.4229 4.58887L10.1302 9.15079C9.40215 9.55132 8.52262 9.5639 7.78338 9.18434L0.0924663 5.23553C0.0556641 6.08487 0.0556641 6.73577 0.0556641 6.73577C0.0556641 6.73577 0.0556641 9.85206 0.441191 11.3448C0.653687 12.1692 1.27751 12.817 2.07133 13.0376C3.50871 13.438 9.2749 13.438 9.2749 13.438C9.2749 13.438 15.0412 13.438 16.4785 13.0376C17.2723 12.817 17.8962 12.1692 18.1087 11.3448C18.4942 9.85206 18.4942 6.73577 18.4942 6.73577C18.4942 6.73577 18.4937 5.73079 18.4229 4.58887Z" fill="#337AB7"/>
</svg>
