<svg width="32" height="32" viewBox="0 0 32 32" fill="none" xmlns="http://www.w3.org/2000/svg">
<mask id="path-1-inside-1_109_228" fill="white">
<path fill-rule="evenodd" clip-rule="evenodd" d="M28.0532 9.87769C27.7664 8.76476 26.9241 7.89017 25.8525 7.59226C23.9121 7.05176 16.1276 7.05176 16.1276 7.05176C16.1276 7.05176 8.34326 7.05176 6.40279 7.59226C5.33114 7.89017 4.48897 8.76476 4.2021 9.87769C3.68164 11.8929 3.68164 16.0998 3.68164 16.0998C3.68164 16.0998 3.68164 20.3068 4.2021 22.322C4.48897 23.4349 5.33114 24.3095 6.40279 24.6074C8.34326 25.1479 16.1276 25.1479 16.1276 25.1479C16.1276 25.1479 23.9121 25.1479 25.8525 24.6074C26.9241 24.3095 27.7664 23.4349 28.0532 22.322C28.5737 20.3068 28.5737 16.0998 28.5737 16.0998C28.5737 16.0998 28.5716 11.8929 28.0532 9.87769Z"/>
</mask>
<path d="M14.7536 18.9749L14.411 19.6421L14.411 19.6421L14.7536 18.9749ZM16.631 18.948L16.2695 18.2909L16.2695 18.2909L16.631 18.948ZM3.42635 14.0021L14.411 19.6421L15.0961 18.3077L4.11148 12.6678L3.42635 14.0021ZM16.9925 19.6052L28.7861 13.1174L28.0631 11.8031L16.2695 18.2909L16.9925 19.6052ZM14.411 19.6421C15.2242 20.0596 16.1916 20.0458 16.9925 19.6052L16.2695 18.2909C15.9055 18.4912 15.4657 18.4975 15.0961 18.3077L14.411 19.6421ZM25.8525 7.59226L25.45 9.03725L25.4507 9.03745L25.8525 7.59226ZM28.0532 9.87769L29.5059 9.50398L29.5057 9.50334L28.0532 9.87769ZM6.40279 7.59226L6.80455 9.03745L6.80528 9.03725L6.40279 7.59226ZM4.2021 9.87769L5.65445 10.2528L5.65462 10.2521L4.2021 9.87769ZM4.2021 22.322L5.65462 21.9476L5.65445 21.9469L4.2021 22.322ZM6.40279 24.6074L6.8053 23.1624L6.80449 23.1621L6.40279 24.6074ZM25.8525 24.6074L25.4508 23.1621L25.4499 23.1624L25.8525 24.6074ZM28.0532 22.322L26.6008 21.9469L26.6007 21.9476L28.0532 22.322ZM28.5737 16.0998L30.0737 16.0998L30.0737 16.0991L28.5737 16.0998ZM25.4507 9.03745C25.9852 9.18603 26.4421 9.63695 26.6007 10.252L29.5057 9.50334C29.0906 7.89258 27.8631 6.59431 26.2542 6.14706L25.4507 9.03745ZM16.1276 7.05176C16.1276 8.55176 16.1276 8.55176 16.1276 8.55176C16.1276 8.55176 16.1277 8.55176 16.1278 8.55176C16.1279 8.55176 16.1282 8.55176 16.1286 8.55176C16.1294 8.55176 16.1307 8.55176 16.1324 8.55176C16.1359 8.55176 16.1412 8.55177 16.1483 8.55177C16.1625 8.55179 16.1839 8.55182 16.2121 8.55189C16.2683 8.55201 16.3516 8.55227 16.4586 8.5528C16.6725 8.55384 16.9811 8.55593 17.3576 8.56011C18.1113 8.56848 19.1346 8.58522 20.2161 8.61861C21.3001 8.65207 22.4301 8.70189 23.401 8.77549C24.4154 8.85239 25.1261 8.94703 25.45 9.03725L26.255 6.14727C25.6087 5.96724 24.6186 5.85919 23.6277 5.78407C22.5933 5.70565 21.4133 5.65413 20.3087 5.62003C19.2015 5.58586 18.1574 5.56881 17.3909 5.5603C17.0074 5.55603 16.6925 5.5539 16.4732 5.55283C16.3635 5.5523 16.2777 5.55203 16.219 5.55189C16.1896 5.55183 16.167 5.55179 16.1517 5.55178C16.144 5.55177 16.1381 5.55176 16.1341 5.55176C16.1321 5.55176 16.1305 5.55176 16.1294 5.55176C16.1289 5.55176 16.1285 5.55176 16.1282 5.55176C16.128 5.55176 16.1279 5.55176 16.1278 5.55176C16.1277 5.55176 16.1276 5.55176 16.1276 7.05176ZM6.80528 9.03725C7.12919 8.94703 7.83985 8.85239 8.85431 8.77549C9.82518 8.70189 10.9552 8.65207 12.0392 8.61861C13.1207 8.58522 14.144 8.56848 14.8977 8.56011C15.2742 8.55593 15.5827 8.55384 15.7967 8.5528C15.9036 8.55227 15.9869 8.55201 16.0432 8.55189C16.0713 8.55182 16.0927 8.55179 16.1069 8.55177C16.114 8.55177 16.1193 8.55176 16.1228 8.55176C16.1245 8.55176 16.1258 8.55176 16.1266 8.55176C16.127 8.55176 16.1273 8.55176 16.1275 8.55176C16.1275 8.55176 16.1276 8.55176 16.1276 8.55176C16.1276 8.55176 16.1276 8.55176 16.1276 7.05176C16.1276 5.55176 16.1275 5.55176 16.1274 5.55176C16.1273 5.55176 16.1272 5.55176 16.1271 5.55176C16.1268 5.55176 16.1263 5.55176 16.1258 5.55176C16.1247 5.55176 16.1232 5.55176 16.1211 5.55176C16.1171 5.55176 16.1112 5.55177 16.1036 5.55178C16.0882 5.55179 16.0656 5.55183 16.0363 5.55189C15.9776 5.55203 15.8917 5.5523 15.782 5.55283C15.5627 5.5539 15.2479 5.55603 14.8643 5.5603C14.0978 5.56881 13.0537 5.58586 11.9466 5.62003C10.8419 5.65413 9.662 5.70565 8.62755 5.78407C7.63669 5.85919 6.64662 5.96724 6.0003 6.14727L6.80528 9.03725ZM5.65462 10.2521C5.8132 9.6369 6.27016 9.18601 6.80455 9.03745L6.00103 6.14706C4.39212 6.59433 3.16475 7.89263 2.74958 9.50328L5.65462 10.2521ZM3.68164 16.0998C5.18164 16.0998 5.18164 16.0999 5.18164 16.1C5.18164 16.1 5.18164 16.1 5.18164 16.1C5.18164 16.1 5.18164 16.0999 5.18164 16.0998C5.18164 16.0995 5.18164 16.099 5.18164 16.0982C5.18164 16.0967 5.18165 16.0942 5.18165 16.0907C5.18167 16.0837 5.1817 16.0728 5.18176 16.0582C5.18187 16.029 5.18211 15.9851 5.1826 15.9279C5.18358 15.8136 5.18554 15.6467 5.1895 15.4396C5.19742 15.0248 5.21326 14.4519 5.24483 13.8192C5.31015 12.5103 5.43686 11.0952 5.65445 10.2528L2.74976 9.50259C2.44688 10.6753 2.31336 12.3713 2.24856 13.6697C2.21508 14.3407 2.19839 14.9454 2.19005 15.3824C2.18587 15.6011 2.18377 15.7787 2.18271 15.9023C2.18218 15.9641 2.18192 16.0126 2.18178 16.046C2.18171 16.0627 2.18168 16.0757 2.18166 16.0847C2.18165 16.0892 2.18165 16.0928 2.18164 16.0953C2.18164 16.0966 2.18164 16.0976 2.18164 16.0983C2.18164 16.0987 2.18164 16.099 2.18164 16.0993C2.18164 16.0994 2.18164 16.0995 2.18164 16.0996C2.18164 16.0997 2.18164 16.0998 3.68164 16.0998ZM5.65445 21.9469C5.43686 21.1044 5.31015 19.6893 5.24483 18.3804C5.21326 17.7478 5.19742 17.1749 5.1895 16.76C5.18554 16.5529 5.18358 16.386 5.1826 16.2717C5.18211 16.2146 5.18187 16.1706 5.18176 16.1415C5.1817 16.1269 5.18167 16.116 5.18165 16.109C5.18165 16.1055 5.18164 16.1029 5.18164 16.1014C5.18164 16.1006 5.18164 16.1001 5.18164 16.0999C5.18164 16.0997 5.18164 16.0997 5.18164 16.0996C5.18164 16.0996 5.18164 16.0997 5.18164 16.0997C5.18164 16.0997 5.18164 16.0998 3.68164 16.0998C2.18164 16.0998 2.18164 16.0999 2.18164 16.1001C2.18164 16.1001 2.18164 16.1003 2.18164 16.1004C2.18164 16.1006 2.18164 16.1009 2.18164 16.1013C2.18164 16.1021 2.18164 16.1031 2.18164 16.1043C2.18165 16.1069 2.18165 16.1104 2.18166 16.1149C2.18168 16.124 2.18171 16.1369 2.18178 16.1536C2.18192 16.1871 2.18218 16.2355 2.18271 16.2973C2.18377 16.421 2.18587 16.5985 2.19005 16.8173C2.19839 17.2542 2.21508 17.859 2.24856 18.53C2.31336 19.8284 2.44688 21.5244 2.74976 22.6971L5.65445 21.9469ZM6.80449 23.1621C6.27015 23.0136 5.8132 22.5628 5.65462 21.9476L2.74958 22.6964C3.16475 24.307 4.39213 25.6054 6.0011 26.0526L6.80449 23.1621ZM16.1276 25.1479C16.1276 23.6479 16.1276 23.6479 16.1276 23.6479C16.1276 23.6479 16.1275 23.6479 16.1275 23.6479C16.1273 23.6479 16.127 23.6479 16.1266 23.6479C16.1258 23.6479 16.1245 23.6479 16.1228 23.6479C16.1193 23.6479 16.114 23.6479 16.1069 23.6479C16.0927 23.6479 16.0713 23.6478 16.0432 23.6478C15.9869 23.6476 15.9036 23.6474 15.7967 23.6468C15.5827 23.6458 15.2742 23.6437 14.8977 23.6395C14.144 23.6312 13.1207 23.6144 12.0392 23.581C10.9552 23.5476 9.82519 23.4977 8.85432 23.4241C7.83986 23.3472 7.12921 23.2526 6.8053 23.1624L6.00028 26.0523C6.64661 26.2324 7.63668 26.3404 8.62754 26.4156C9.662 26.494 10.8419 26.5455 11.9466 26.5796C13.0537 26.6138 14.0978 26.6308 14.8643 26.6393C15.2479 26.6436 15.5627 26.6457 15.782 26.6468C15.8917 26.6473 15.9776 26.6476 16.0363 26.6477C16.0656 26.6478 16.0882 26.6478 16.1036 26.6479C16.1112 26.6479 16.1171 26.6479 16.1211 26.6479C16.1232 26.6479 16.1247 26.6479 16.1258 26.6479C16.1263 26.6479 16.1268 26.6479 16.1271 26.6479C16.1272 26.6479 16.1273 26.6479 16.1274 26.6479C16.1275 26.6479 16.1276 26.6479 16.1276 25.1479ZM25.4499 23.1624C25.1261 23.2526 24.4154 23.3472 23.401 23.4241C22.4301 23.4977 21.3001 23.5476 20.2161 23.581C19.1346 23.6144 18.1113 23.6312 17.3576 23.6395C16.981 23.6437 16.6725 23.6458 16.4586 23.6468C16.3516 23.6474 16.2683 23.6476 16.2121 23.6478C16.1839 23.6478 16.1625 23.6479 16.1483 23.6479C16.1412 23.6479 16.1359 23.6479 16.1324 23.6479C16.1307 23.6479 16.1294 23.6479 16.1286 23.6479C16.1282 23.6479 16.1279 23.6479 16.1278 23.6479C16.1277 23.6479 16.1276 23.6479 16.1276 23.6479C16.1276 23.6479 16.1276 23.6479 16.1276 25.1479C16.1276 26.6479 16.1277 26.6479 16.1278 26.6479C16.1279 26.6479 16.128 26.6479 16.1282 26.6479C16.1285 26.6479 16.1289 26.6479 16.1294 26.6479C16.1305 26.6479 16.1321 26.6479 16.1341 26.6479C16.1381 26.6479 16.144 26.6479 16.1517 26.6479C16.167 26.6478 16.1896 26.6478 16.219 26.6477C16.2777 26.6476 16.3635 26.6473 16.4732 26.6468C16.6925 26.6457 17.0074 26.6436 17.3909 26.6393C18.1574 26.6308 19.2015 26.6138 20.3087 26.5796C21.4133 26.5455 22.5933 26.494 23.6277 26.4156C24.6186 26.3404 25.6087 26.2324 26.255 26.0523L25.4499 23.1624ZM26.6007 21.9476C26.4421 22.5627 25.9852 23.0136 25.4508 23.1621L26.2542 26.0526C27.8631 25.6054 29.0906 24.3071 29.5057 22.6963L26.6007 21.9476ZM28.5737 16.0998C27.0737 16.0998 27.0737 16.0997 27.0737 16.0997C27.0737 16.0997 27.0737 16.0996 27.0737 16.0996C27.0737 16.0997 27.0737 16.0997 27.0737 16.0999C27.0737 16.1001 27.0737 16.1006 27.0737 16.1014C27.0737 16.1029 27.0737 16.1055 27.0737 16.109C27.0737 16.116 27.0736 16.1269 27.0736 16.1415C27.0734 16.1706 27.0732 16.2146 27.0727 16.2717C27.0717 16.386 27.0698 16.5529 27.0658 16.76C27.0579 17.1749 27.0421 17.7478 27.0105 18.3804C26.9452 19.6893 26.8184 21.1044 26.6008 21.9469L29.5055 22.6971C29.8084 21.5244 29.942 19.8284 30.0068 18.53C30.0402 17.859 30.0569 17.2542 30.0653 16.8173C30.0695 16.5985 30.0716 16.421 30.0726 16.2973C30.0731 16.2355 30.0734 16.1871 30.0735 16.1536C30.0736 16.1369 30.0736 16.124 30.0737 16.1149C30.0737 16.1104 30.0737 16.1069 30.0737 16.1043C30.0737 16.1031 30.0737 16.1021 30.0737 16.1013C30.0737 16.1009 30.0737 16.1006 30.0737 16.1004C30.0737 16.1003 30.0737 16.1001 30.0737 16.1001C30.0737 16.0999 30.0737 16.0998 28.5737 16.0998ZM26.6005 10.2514C26.8174 11.0948 26.9441 12.5106 27.0097 13.8195C27.0414 14.4523 27.0575 15.0253 27.0655 15.4402C27.0696 15.6473 27.0716 15.8143 27.0726 15.9286C27.0732 15.9857 27.0734 16.0297 27.0735 16.0589C27.0736 16.0735 27.0736 16.0844 27.0737 16.0914C27.0737 16.0949 27.0737 16.0974 27.0737 16.099C27.0737 16.0997 27.0737 16.1003 27.0737 16.1005C27.0737 16.1007 27.0737 16.1007 27.0737 16.1007C27.0737 16.1007 27.0737 16.1007 27.0737 16.1007C27.0737 16.1006 27.0737 16.1006 28.5737 16.0998C30.0737 16.0991 30.0737 16.099 30.0737 16.0988C30.0737 16.0988 30.0737 16.0986 30.0737 16.0985C30.0737 16.0983 30.0737 16.098 30.0737 16.0976C30.0737 16.0968 30.0737 16.0958 30.0737 16.0946C30.0737 16.092 30.0737 16.0885 30.0737 16.084C30.0736 16.075 30.0736 16.062 30.0735 16.0453C30.0734 16.0119 30.0731 15.9635 30.0725 15.9016C30.0714 15.778 30.0692 15.6005 30.065 15.3818C30.0565 14.9449 30.0396 14.3402 30.006 13.6694C29.9409 12.371 29.8073 10.6758 29.5059 9.50398L26.6005 10.2514Z" fill="#337AB7" mask="url(#path-1-inside-1_109_228)"/>
</svg>
