<svg width="1059" height="269" viewBox="0 0 1059 269" fill="none" xmlns="http://www.w3.org/2000/svg">
<path fill-rule="evenodd" clip-rule="evenodd" d="M810.648 2.5V53.5392C810.648 54.0904 811.083 54.5376 811.635 54.539C827.721 54.5809 859.76 54.5881 866.786 54.2964C875.859 53.9195 880.632 43.6849 880.432 36.7967C880.273 31.2862 876.143 27.2884 874.099 25.9783C874.972 25.3437 877.3 22.2351 877.3 15.3711C877.3 8.50706 870.971 1.5 863.428 1.5H811.648C811.096 1.5 810.648 1.94771 810.648 2.5ZM828.401 38.4044V34.897C828.401 34.3447 828.849 33.897 829.401 33.897H861.617C863.137 33.897 864.37 35.1299 864.37 36.6507C864.37 38.1715 863.137 39.4044 861.617 39.4044H829.401C828.849 39.4044 828.401 38.9567 828.401 38.4044ZM828.4 16.3632V19.8706C828.4 20.4229 828.848 20.8706 829.4 20.8706H858.979C860.5 20.8706 861.733 19.6378 861.733 18.1169C861.733 16.5961 860.5 15.3632 858.979 15.3632H829.4C828.848 15.3632 828.4 15.8109 828.4 16.3632Z" fill="#C82E37"/>
<path d="M884.772 1.50009H894.542H900.595C901.148 1.50009 901.595 1.94781 901.595 2.50009V36.1673C901.595 37.8242 902.939 39.1673 904.595 39.1673H942.906C943.634 39.1673 944.118 39.9199 943.816 40.5821L937.584 54.2563C937.421 54.6128 937.066 54.8416 936.674 54.8416H894.772C888.697 54.8416 883.772 49.9167 883.772 43.8416V2.50009C883.772 1.94781 884.22 1.50009 884.772 1.50009Z" fill="#C82E37"/>
<path d="M966.148 14.7028L971.909 2.08475C972.072 1.72859 972.427 1.50009 972.819 1.50009H1058.39V15.4074L967.065 16.1181C966.334 16.1238 965.844 15.3682 966.148 14.7028Z" fill="#C82E37"/>
<path d="M958.002 33.673L963.769 21.0432C963.931 20.687 964.287 20.4585 964.678 20.4585L1058.39 20.4586V35.0643L958.912 35.0884C958.184 35.0886 957.699 34.3354 958.002 33.673Z" fill="#C82E37"/>
<path d="M947.982 53.2413L953.751 40.6073C953.912 40.253 954.265 40.0249 954.655 40.0226L1058.18 39.417V54.6566H948.892C948.164 54.6566 947.68 53.9036 947.982 53.2413Z" fill="#C82E37"/>
<path d="M714.994 41.4539L709.232 54.072C709.07 54.4282 708.714 54.6567 708.323 54.6567L622.751 54.6567L622.751 40.7494L714.076 40.0386C714.808 40.0329 715.297 40.7886 714.994 41.4539Z" fill="#C82E37"/>
<path d="M723.14 22.4837L717.373 35.1136C717.21 35.4698 716.855 35.6983 716.463 35.6983L622.751 35.6982L622.751 21.0925L722.23 21.0684C722.958 21.0682 723.442 21.8214 723.14 22.4837Z" fill="#C82E37"/>
<path d="M733.159 2.91547L727.391 15.5495C727.229 15.9037 726.876 16.1318 726.487 16.1341L622.959 16.7398L622.959 1.50013L732.25 1.50012C732.978 1.50012 733.462 2.25321 733.159 2.91547Z" fill="#C82E37"/>
<path d="M802.113 14.074L807.219 2.9162C807.522 2.25386 807.038 1.50009 806.31 1.50009H755.145C749.777 1.50009 741.505 6.02003 740.15 15.9639C738.796 25.9077 748.828 30.9425 755.145 31.7836L789.109 34.7859C790.144 34.8774 790.938 35.7446 790.938 36.7838C790.938 37.8916 790.04 38.7895 788.932 38.7895H746.411C745.682 38.7895 745.011 39.1864 744.659 39.8252L737.338 53.1272C736.971 53.7936 737.454 54.6093 738.214 54.6093H792.631C799.408 53.5918 807.867 46.6542 807.867 37.4336C807.867 28.2129 800.292 22.9282 795.049 22.0658L758.713 18.8217C757.788 18.7391 757.079 17.964 757.079 17.0353C757.079 16.0448 757.882 15.2418 758.873 15.2418H800.295C801.077 15.2418 801.788 14.7855 802.113 14.074Z" fill="#C82E37"/>
<path fill-rule="evenodd" clip-rule="evenodd" d="M0.567383 13.5558H56.9277C72.5569 13.5558 80.1339 18.2478 80.1339 32.3207C80.1339 44.3075 76.3454 46.3904 70.6613 47.9565V48.4764C79.186 49.5195 82.502 54.7346 82.502 65.1553C82.502 80.7847 73.9773 83.9138 63.0843 83.9138H0.567383V13.5558ZM19.988 67.2381H55.0349C59.2988 67.2381 62.1394 66.1983 62.1394 62.0294C62.1394 57.3374 59.2988 56.2912 55.0349 56.2912H19.988V67.2381ZM19.988 41.7015H54.5625C58.3538 41.7015 60.7191 40.1386 60.7191 35.9697C60.7191 31.8008 58.3538 30.7578 54.5625 30.7578H19.988V41.7015ZM87.2412 38.0526C87.2412 17.7279 98.1342 13.0359 115.659 13.0359H146.918C164.44 13.0359 175.335 17.7279 175.335 38.0526V59.4202C175.335 79.7481 164.442 84.4401 146.918 84.4401H115.659C98.1342 84.4401 87.2412 79.7481 87.2412 59.4202V38.0526ZM107.607 52.6485C107.607 62.5493 109.5 66.7214 118.972 66.7214H143.602C153.074 66.7214 154.967 62.5461 154.967 52.6485V44.8306C154.967 36.4896 153.074 30.7578 142.654 30.7578H119.92C109.5 30.7578 107.607 36.4896 107.607 44.8306V52.6485ZM181.489 13.5558H237.849C253.479 13.5558 261.056 18.2478 261.056 32.3207C261.056 44.3075 257.267 46.3904 251.583 47.9565V48.4764C260.108 49.5195 263.424 54.7346 263.424 65.1553C263.424 80.7847 255.371 83.9138 244.003 83.9138H181.489V13.5558ZM201.382 67.2381H236.429C240.693 67.2381 243.534 66.1983 243.534 62.0294C243.534 57.3374 240.693 56.2912 236.429 56.2912H201.382V67.2381ZM201.382 41.7015H235.957C239.273 41.7015 241.641 40.1386 241.641 35.9697C241.641 31.8008 239.273 30.7578 235.957 30.7578H201.382V41.7015ZM270.528 60.9832H289.946C290.421 68.278 292.787 68.8011 298.471 68.8011H322.628C326.891 68.8011 331.152 68.278 331.152 63.0692C331.152 56.8143 328.781 56.2912 303.677 56.2912C273.841 56.2912 270.525 52.6453 270.525 35.4466C270.525 22.4199 271.473 13.0359 296.578 13.0359H323.57C346.306 13.0359 348.196 21.3737 348.196 33.3605V35.9665H328.778C328.778 30.7546 328.309 28.6685 319.306 28.6685H297.52C293.256 28.6685 290.416 30.2315 290.416 33.8805C290.416 40.1322 292.781 40.1322 313.622 40.1322C343.932 40.1322 351.037 42.2151 351.037 62.5397C351.037 81.3046 345.353 84.4305 319.306 84.4305H295.624C277.627 84.4305 270.522 80.7783 270.522 65.6656V60.9832H270.528ZM352.938 13.5558H427.771V31.2777H400.301V83.9138H380.884V31.2777H352.938V13.5558Z" fill="black"/>
<path fill-rule="evenodd" clip-rule="evenodd" d="M455.716 96.4237H536.862C540.176 96.4237 542.862 93.7374 542.862 90.4237V0.529144H461.716C458.402 0.529144 455.716 3.21544 455.716 6.52914V96.4237Z" fill="#C82E37"/>
<path d="M74.285 239.958H47.9292V265.192H31.506V239.958H0.567383V223.973H31.506V199.15H47.9292V223.973H74.285V199.15H90.7083V265.192H74.285V239.958ZM158.309 199.15H174.348V265.181H158.309V199.15ZM309.56 265.192V199.15H325.599V248.784H343.557V265.192H309.56ZM622.751 240.38H565.073V223.973H622.751V240.38ZM599.838 246.261H583.414C579.68 250.463 574.612 253.108 568.899 252.986C558.219 253.108 549.538 243.793 549.417 232.377C549.538 220.805 558.219 211.478 568.899 211.345C573.493 211.424 577.93 213.202 581.497 216.392H599.07C593.367 205.075 581.819 197.183 568.515 197.049C549.589 197.183 534.286 212.99 534.145 232.388C534.286 251.997 549.589 267.815 568.515 267.715C582.637 267.804 594.78 258.967 599.838 246.261ZM99.1066 199.15H148.76V215.558H99.1066V199.15Z" fill="#00487F"/>
<path d="M99.1064 223.973H148.76V240.38H99.1064V223.973Z" fill="#0585E5"/>
<path d="M99.1064 248.784H148.76V265.192H99.1064V248.784ZM249.974 199.15H299.627V215.558H249.974V199.15Z" fill="#00487F"/>
<path d="M249.974 223.973H299.627V240.38H249.974V223.973Z" fill="#0585E5"/>
<path d="M249.974 248.784H299.627V265.192H249.974V248.784ZM415.356 248.784H465.01V265.192H415.356V248.784ZM415.356 199.15H465.01V215.558H415.356V199.15Z" fill="#00487F"/>
<path d="M415.355 223.973H465.009V240.38H415.355V223.973Z" fill="#0585E5"/>
<path fill-rule="evenodd" clip-rule="evenodd" d="M183.14 264.769H211.403C228.685 264.903 243.836 252.753 243.866 231.965C243.836 209.666 228.695 199.339 211.403 199.15H183.14V264.769ZM228.593 232.388C228.462 222.984 221.709 215.513 213.311 215.569H198.412V248.795H213.311C217.304 248.82 221.146 247.112 224.006 244.042C226.866 240.971 228.514 236.785 228.593 232.388Z" fill="#00487F"/>
<path fill-rule="evenodd" clip-rule="evenodd" d="M350.432 265.192H387.861C398.581 265.014 408.443 260.201 408.483 245.427C408.443 238.357 405.687 235.489 400.842 232.388C405.727 228.375 407.898 223.973 407.726 217.67C407.888 204.453 398.116 199.35 387.861 199.161H350.432V265.192ZM393.2 245.005C393.129 241.825 390.919 239.391 388.234 239.536H365.704V250.474H388.234C389.524 250.382 390.739 249.777 391.653 248.77C392.567 247.764 393.117 246.425 393.2 245.005ZM390.786 216.002C389.928 214.979 388.74 214.368 387.477 214.302H365.714V224.829H387.477C388.689 224.811 389.847 224.273 390.703 223.328C391.56 222.382 392.046 221.106 392.06 219.771C392.101 218.379 391.643 217.026 390.786 216.002Z" fill="#00487F"/>
<path fill-rule="evenodd" clip-rule="evenodd" d="M515.43 265.192H529.178C529.006 265.147 529.006 242.103 529.178 240.792C529.006 237.101 527.008 233.711 523.838 232.377C523.847 232.37 523.884 232.356 523.944 232.333C524.876 231.973 531.489 229.423 531.479 217.659C531.489 204.497 521.708 199.395 511.604 199.573H474.175V265.192H489.074V240.38H507.021C514.194 240.279 515.148 244.904 515.352 246.542C515.286 249.915 515.311 265.166 515.43 265.192ZM514.301 215.967C513.381 214.954 512.147 214.359 510.847 214.302H489.074V224.829H510.847C512.107 224.854 513.328 224.342 514.254 223.4C515.179 222.457 515.738 221.157 515.813 219.771C515.761 218.339 515.221 216.981 514.301 215.967Z" fill="#00487F"/>
<path fill-rule="evenodd" clip-rule="evenodd" d="M904.796 232.321L901.357 223.526H885.989L871.071 256.603L866.855 266.944H880.798L883.452 260.725H902.876L905.12 266.944H919.388L904.796 232.321ZM887.509 251.425L892.798 239.106L898.654 251.425H887.509ZM920.725 223.685H935.633L953.106 245.331L952.963 223.685H967.624V266.944H952.779L935.431 246.763V266.944H920.725V223.685ZM836.204 223.685H850.635L850.64 255.45H865.881L865.835 267.205H836.063L836.204 223.685ZM829.402 229.382C824.832 223.581 811.851 223.545 801.515 224.382C796.224 224.805 791.371 226.547 789.193 230.452C786.467 235.318 786.365 246.402 787.246 254.022C787.732 258.261 788.695 261.699 791.137 263.663C797.571 268.832 819.785 269.042 827.131 264.376C833.576 260.283 834.893 236.358 829.402 229.382ZM815.253 255.705C812.543 256.599 806.046 256.986 804.212 255.99C800.607 254.018 800.441 236.813 803.99 235.585C806.892 234.572 814.181 234.269 815.702 235.597C819.161 238.601 819.063 254.44 815.253 255.705ZM1006.86 226.474C997.569 222.752 970.136 224.027 970.136 224.027L970.209 267.205C970.209 267.205 1000.34 268.763 1008.07 264.378C1017.13 259.22 1016.11 230.175 1006.86 226.474ZM997.375 255.45C994.801 257.169 988.174 256.163 984.405 256.163V234.739C988.053 234.739 993.738 233.814 996.727 235.096C1000.26 236.603 1000.76 253.173 997.375 255.45ZM783.679 263.663L776.87 253.664L775.478 251.953C775.478 251.953 776.759 251.454 777.844 250.806C783.354 247.449 786.212 236 781.41 229.382C779.232 226.382 773.04 224.101 768.439 224.025C759.481 223.856 739.504 223.683 739.504 223.683L739.579 267.235H754.493V252.951H758.386L760.007 255.806L767.466 266.879H785.625L783.679 263.663ZM767.919 241.184C765.336 243.068 754.367 242.469 754.367 242.469V235.026C754.367 235.026 762.633 234.676 765.703 235.226C768.013 235.637 767.508 235.676 768.714 237.206C768.728 236.177 769.795 239.795 767.919 241.184ZM909.869 173.092H924.776L942.246 194.743L942.106 173.092H956.698L956.841 216.306H941.923L924.575 196.171V216.306H909.869V173.092ZM893.932 181.885L890.493 173.091H875.122L860.205 206.168L855.99 216.304H869.934L872.589 210.289H892.011L894.255 216.304H908.522L893.932 181.885ZM876.643 200.99L881.932 188.673L887.789 200.99H876.643ZM841.008 173.092H854.52V216.306H840.428L840.103 196.171L826.161 211.886C826.161 211.886 812.45 196.363 812.218 196.171L812.3 216.306H797.1V173.092H812.3L826.487 190.458L841.008 173.092Z" fill="black"/>
<path fill-rule="evenodd" clip-rule="evenodd" d="M948.605 104.023C927.591 94.7556 900.763 86.9408 870.661 88.806C794.399 93.5236 742.04 141.318 714.772 201.565C706.333 220.175 698.848 242.901 695.923 268.687H716.271C717.516 258.143 719.306 248.168 721.86 239.02C739.319 176.29 785.212 127.764 847.632 114.169C875.011 108.196 908.327 110.842 931.6 119.631C983.506 139.229 1032.12 193.592 1038.39 268.687H1058.39C1057.38 257.232 1055.52 246.186 1053.12 236.29C1037.62 172.532 1001.06 127.141 948.605 104.023Z" fill="#00ACEC"/>
</svg>
