<svg width="543" height="624" viewBox="0 0 543 624" fill="none" xmlns="http://www.w3.org/2000/svg">
<path fill-rule="evenodd" clip-rule="evenodd" d="M0.458984 13.8003H56.8193C72.4485 13.8003 80.0255 18.4988 80.0255 32.5911C80.0255 44.5945 76.237 46.6802 70.5529 48.2485V48.7692C79.0776 49.8136 82.3936 55.036 82.3936 65.4711C82.3936 81.1221 73.8689 84.2555 62.9759 84.2555H0.458984V13.8003ZM19.8796 67.5568H54.9265C59.1904 67.5568 62.031 66.5155 62.031 62.3408C62.031 57.6423 59.1904 56.5947 54.9265 56.5947H19.8796V67.5568ZM19.8796 41.9849H54.4541C58.2454 41.9849 60.6107 40.4198 60.6107 36.2452C60.6107 32.0705 58.2454 31.026 54.4541 31.026H19.8796V41.9849ZM87.1328 38.3309C87.1328 17.9782 98.0258 13.2797 115.551 13.2797H146.809C164.331 13.2797 175.227 17.9782 175.227 38.3309V59.7281C175.227 80.084 164.334 84.7825 146.809 84.7825H115.551C98.0258 84.7825 87.1328 80.084 87.1328 59.7281V38.3309ZM107.498 52.947C107.498 62.8615 109.391 67.0393 118.864 67.0393H143.493C152.966 67.0393 154.859 62.8583 154.859 52.947V45.1183C154.859 36.7658 152.966 31.026 142.545 31.026H119.812C109.391 31.026 107.498 36.7658 107.498 45.1183V52.947ZM181.381 13.8003H237.741C253.37 13.8003 260.947 18.4988 260.947 32.5911C260.947 44.5945 257.159 46.6802 251.475 48.2485V48.7692C259.999 49.8136 263.315 55.036 263.315 65.4711C263.315 81.1221 255.263 84.2555 243.895 84.2555H181.381V13.8003ZM201.274 67.5568H236.321C240.585 67.5568 243.425 66.5155 243.425 62.3408C243.425 57.6423 240.585 56.5947 236.321 56.5947H201.274V67.5568ZM201.274 41.9849H235.848C239.164 41.9849 241.532 40.4198 241.532 36.2452C241.532 32.0705 239.164 31.026 235.848 31.026H201.274V41.9849ZM270.42 61.2932H289.838C290.313 68.5981 292.678 69.1219 298.362 69.1219H322.519C326.783 69.1219 331.044 68.5981 331.044 63.3821C331.044 57.1185 328.673 56.5947 303.568 56.5947C273.733 56.5947 270.417 52.9438 270.417 35.7213C270.417 22.6767 271.365 13.2797 296.47 13.2797H323.461C346.198 13.2797 348.088 21.629 348.088 33.6324V36.242H328.67C328.67 31.0228 328.2 28.9339 319.197 28.9339H297.412C293.148 28.9339 290.307 30.499 290.307 34.153C290.307 40.4135 292.672 40.4134 313.513 40.4134C343.824 40.4134 350.928 42.4992 350.928 62.8519C350.928 81.6427 345.244 84.7729 319.197 84.7729H295.516C277.519 84.7729 270.414 81.1157 270.414 65.9821V61.2932H270.42ZM352.83 13.8003H427.663V31.5467H400.193V84.2555H380.775V31.5467H352.83V13.8003Z" fill="black"/>
<path fill-rule="evenodd" clip-rule="evenodd" d="M455.607 96.7827H536.754C540.067 96.7827 542.754 94.0964 542.754 90.7827V0.755661H461.607C458.294 0.755661 455.607 3.44195 455.607 6.75566V96.7827Z" fill="#C82E37"/>
<path fill-rule="evenodd" clip-rule="evenodd" d="M237.037 302.9V364.637C237.037 365.188 237.468 365.635 238.02 365.637C257.257 365.687 295.944 365.697 304.404 365.345C315.292 364.893 321.02 352.594 320.781 344.316C320.59 337.694 315.634 332.89 313.18 331.316C314.228 330.553 317.022 326.817 317.022 318.569C317.022 310.32 309.427 301.9 300.375 301.9H238.037C237.485 301.9 237.037 302.348 237.037 302.9ZM258.34 346.45V341.832C258.34 341.279 258.788 340.832 259.34 340.832H298.195C300.023 340.832 301.504 342.313 301.504 344.141C301.504 345.968 300.023 347.45 298.195 347.45H259.34C258.788 347.45 258.34 347.002 258.34 346.45ZM258.34 319.559V324.178C258.34 324.73 258.788 325.178 259.34 325.178H295.032C296.859 325.178 298.341 323.696 298.341 321.869C298.341 320.041 296.859 318.559 295.032 318.559H259.34C258.788 318.559 258.34 319.007 258.34 319.559Z" fill="#C82E37"/>
<path d="M325.791 301.9H337.715H345.179C345.732 301.9 346.179 302.348 346.179 302.9V344.165C346.179 345.822 347.523 347.165 349.179 347.165H396.066C396.794 347.165 397.278 347.917 396.977 348.579L389.313 365.415C389.151 365.772 388.795 366.001 388.403 366.001H335.791C329.716 366.001 324.791 361.076 324.791 355.001V302.9C324.791 302.348 325.239 301.9 325.791 301.9Z" fill="#C82E37"/>
<path d="M423.512 318.054L430.611 302.485C430.773 302.129 431.129 301.9 431.521 301.9H534.339V318.612L424.43 319.469C423.699 319.475 423.209 318.72 423.512 318.054Z" fill="#C82E37"/>
<path d="M413.737 340.848L420.841 325.268C421.004 324.911 421.36 324.682 421.751 324.682L534.338 324.683V342.234L414.647 342.263C413.919 342.263 413.435 341.511 413.737 340.848Z" fill="#C82E37"/>
<path d="M401.713 364.364L408.82 348.779C408.981 348.424 409.334 348.196 409.724 348.193L534.089 347.465V365.778H402.623C401.896 365.778 401.412 365.026 401.713 364.364Z" fill="#C82E37"/>
<path d="M122.381 349.624L115.282 365.193C115.119 365.55 114.764 365.778 114.372 365.778L11.5541 365.778L11.5541 349.066L121.463 348.209C122.194 348.204 122.684 348.959 122.381 349.624Z" fill="#C82E37"/>
<path d="M132.155 326.83L125.051 342.411C124.889 342.767 124.533 342.996 124.141 342.996L11.5547 342.996L11.5547 325.444L131.245 325.415C131.973 325.415 132.457 326.168 132.155 326.83Z" fill="#C82E37"/>
<path d="M144.179 303.315L137.073 318.9C136.911 319.254 136.559 319.483 136.169 319.485L11.8035 320.214L11.8034 301.9L143.269 301.9C143.997 301.9 144.481 302.653 144.179 303.315Z" fill="#C82E37"/>
<path d="M226.691 317.245L233.056 303.316C233.358 302.653 232.874 301.9 232.146 301.9H170.433C163.992 301.9 154.065 307.332 152.439 319.281C150.814 331.231 162.854 337.281 170.433 338.292L211.189 341.899C212.433 342.01 213.387 343.052 213.387 344.3C213.387 345.632 212.308 346.711 210.977 346.711H159.717C158.988 346.711 158.316 347.108 157.964 347.748L148.9 364.24C148.534 364.906 149.016 365.722 149.777 365.722H215.418C223.552 364.499 233.703 356.162 233.703 345.081C233.703 334.001 224.613 327.65 218.321 326.614L174.719 322.716C173.607 322.616 172.755 321.685 172.755 320.569C172.755 319.379 173.72 318.414 174.91 318.414H224.872C225.654 318.414 226.365 317.957 226.691 317.245Z" fill="#C82E37"/>
<path d="M64.7093 209.458H41.7376V231.482H27.4231V209.458H0.457031V195.506H27.4231V173.841H41.7376V195.506H64.7093V173.841H79.0238V231.482H64.7093V209.458ZM137.944 173.841H151.925V231.472H137.944V173.841ZM269.775 231.482V173.841H283.755V217.162H299.407V231.482H269.775ZM542.752 209.827H492.48V195.506H542.752V209.827ZM522.781 214.959H508.466C505.211 218.627 500.794 220.936 495.815 220.829C486.506 220.936 478.94 212.805 478.834 202.841C478.94 192.741 486.506 184.601 495.815 184.484C499.819 184.554 503.686 186.105 506.795 188.889H522.112C517.141 179.012 507.076 172.124 495.48 172.007C478.984 172.124 465.646 185.92 465.523 202.851C465.646 219.966 478.984 233.772 495.48 233.685C507.789 233.762 518.373 226.049 522.781 214.959ZM86.3438 173.841H129.621V188.162H86.3438V173.841Z" fill="#00487F"/>
<path d="M86.3438 195.506H129.621V209.827H86.3438V195.506Z" fill="#0585E5"/>
<path d="M86.3438 217.162H129.621V231.482H86.3438V217.162ZM217.84 173.841H261.117V188.162H217.84V173.841Z" fill="#00487F"/>
<path d="M217.84 195.506H261.118V209.827H217.84V195.506Z" fill="#0585E5"/>
<path d="M217.84 217.162H261.118V231.482H217.84V217.162ZM361.987 217.162H405.265V231.482H361.987V217.162ZM361.987 173.841H405.265V188.162H361.987V173.841Z" fill="#00487F"/>
<path d="M361.986 195.506H405.264V209.827H361.986V195.506Z" fill="#0585E5"/>
<path fill-rule="evenodd" clip-rule="evenodd" d="M159.586 231.113H184.221C199.283 231.23 212.489 220.625 212.515 202.482C212.489 183.019 199.292 174.006 184.221 173.841H159.586V231.113ZM199.203 202.851C199.088 194.643 193.202 188.123 185.882 188.171H172.896V217.171H185.882C189.363 217.192 192.712 215.702 195.205 213.022C197.697 210.343 199.133 206.689 199.203 202.851Z" fill="#00487F"/>
<path fill-rule="evenodd" clip-rule="evenodd" d="M305.396 231.482H338.02C347.363 231.327 355.959 227.126 355.994 214.231C355.959 208.061 353.557 205.558 349.334 202.851C353.592 199.348 355.484 195.506 355.334 190.005C355.475 178.469 346.959 174.016 338.02 173.851H305.396V231.482ZM342.673 213.863C342.611 211.088 340.685 208.963 338.344 209.089H318.707V218.636H338.344C339.469 218.556 340.528 218.028 341.325 217.149C342.121 216.271 342.6 215.103 342.673 213.863ZM340.569 188.549C339.821 187.656 338.785 187.123 337.684 187.065H318.716V196.253H337.684C338.741 196.238 339.75 195.768 340.497 194.943C341.243 194.118 341.667 193.004 341.679 191.839C341.715 190.624 341.316 189.443 340.569 188.549Z" fill="#00487F"/>
<path fill-rule="evenodd" clip-rule="evenodd" d="M449.21 231.482H461.193C461.043 231.443 461.043 211.331 461.193 210.186C461.043 206.965 459.301 204.005 456.538 202.841C456.547 202.835 456.578 202.823 456.631 202.803C457.443 202.489 463.207 200.263 463.199 189.995C463.207 178.508 454.682 174.054 445.875 174.21H413.252V231.482H426.238V209.827H441.881C448.133 209.738 448.964 213.775 449.142 215.204C449.084 218.149 449.107 231.459 449.21 231.482ZM448.226 188.519C447.424 187.634 446.349 187.115 445.216 187.065H426.238V196.253H445.216C446.314 196.275 447.378 195.828 448.185 195.006C448.992 194.183 449.479 193.048 449.544 191.839C449.499 190.589 449.028 189.404 448.226 188.519Z" fill="#00487F"/>
<path fill-rule="evenodd" clip-rule="evenodd" d="M316.423 582.338L312.502 572.298H294.984L277.978 610.057L273.172 621.862H289.066L292.092 614.762H314.235L316.793 621.862H333.057L316.423 582.338ZM296.716 604.146L302.746 590.083L309.422 604.146H296.716ZM334.582 572.48H351.576L371.495 597.19L371.332 572.48H388.045V621.862H371.122L351.347 598.825V621.862H334.582V572.48ZM238.231 572.48H254.682L254.688 608.741H272.062L272.009 622.16H238.07L238.231 572.48ZM230.477 578.983C225.267 572.361 210.469 572.321 198.687 573.276C192.656 573.758 187.122 575.747 184.639 580.205C181.532 585.76 181.416 598.412 182.421 607.111C182.974 611.95 184.072 615.874 186.856 618.117C194.191 624.017 219.514 624.257 227.888 618.931C235.235 614.257 236.736 586.946 230.477 578.983ZM214.347 609.032C211.258 610.053 203.852 610.495 201.762 609.358C197.652 607.106 197.463 587.466 201.507 586.065C204.816 584.908 213.125 584.562 214.859 586.078C218.802 589.507 218.691 607.588 214.347 609.032ZM432.77 575.664C422.182 571.415 390.908 572.87 390.908 572.87L390.992 622.16C390.992 622.16 425.344 623.938 434.157 618.933C444.475 613.044 443.316 579.889 432.77 575.664ZM421.96 608.741C419.026 610.703 411.471 609.555 407.174 609.555V585.098C411.333 585.098 417.814 584.042 421.222 585.506C425.252 587.226 425.816 606.142 421.96 608.741ZM178.354 618.117L170.592 606.703L169.006 604.749C169.006 604.749 170.466 604.18 171.702 603.44C177.984 599.607 181.241 586.538 175.767 578.983C173.284 575.559 166.226 572.955 160.982 572.868C150.769 572.675 127.996 572.478 127.996 572.478L128.082 622.194H145.084V605.889H149.521L151.369 609.147L159.871 621.788H180.572L178.354 618.117ZM160.388 592.456C157.443 594.607 144.939 593.923 144.939 593.923V585.426C144.939 585.426 154.363 585.027 157.862 585.654C160.496 586.123 159.92 586.168 161.295 587.915C161.311 586.74 162.527 590.871 160.388 592.456ZM322.206 514.727H339.2L359.115 539.441L358.956 514.727H375.59L375.753 564.057H358.746L338.971 541.071V564.057H322.206V514.727ZM304.039 524.764L300.118 514.724H282.596L265.591 552.483L260.786 564.055H276.682L279.708 557.188H301.849L304.407 564.055H320.671L304.039 524.764ZM284.33 546.572L290.36 532.512L297.036 546.572H284.33ZM243.707 514.727H259.111V564.057H243.046L242.676 541.071L226.782 559.011C226.782 559.011 211.152 541.291 210.888 541.071L210.982 564.057H193.654V514.727H210.982L227.154 534.55L243.707 514.727Z" fill="black"/>
<path fill-rule="evenodd" clip-rule="evenodd" d="M366.363 435.881C342.408 425.302 311.825 416.381 277.51 418.51C190.574 423.896 130.886 478.455 99.8013 547.229C90.182 568.474 81.6487 594.416 78.3145 623.851H101.51C102.929 611.815 104.971 600.428 107.882 589.986C127.785 518.377 180.101 462.982 251.257 447.463C282.469 440.644 320.448 443.665 346.978 453.699C406.149 476.07 461.569 538.128 468.716 623.851H491.516C490.362 610.776 488.248 598.165 485.51 586.869C467.84 514.086 426.164 462.272 366.363 435.881Z" fill="#00ACEC"/>
</svg>
