<svg width="265" height="267" viewBox="0 0 265 267" fill="none" xmlns="http://www.w3.org/2000/svg">
<circle cx="96.99" cy="200.234" r="23.6638" stroke="#337AB7" stroke-width="3"/>
<path d="M114.55 240.127C120.871 241.397 127.41 242.063 134.105 242.063C188.624 242.063 232.82 197.867 232.82 143.348C232.82 120.948 225.36 100.291 212.788 83.7262M59.043 207.463C44.2954 190.214 35.3896 167.821 35.3896 143.348C35.3896 132.554 37.122 122.165 40.3239 112.443M183.01 57.5792C168.593 49.3409 151.899 44.6328 134.105 44.6328C123.761 44.6328 113.788 46.2239 104.418 49.1747" stroke="#337AB7" stroke-width="3"/>
<path d="M135.181 200.233C135.181 210.357 129.975 220.103 122.525 229.814C117.801 235.971 112.314 241.952 106.824 247.938C103.618 251.433 100.41 254.929 97.3529 258.462C97.1384 258.71 96.7674 258.709 96.558 258.479C95.0523 256.831 93.3766 255.046 91.5912 253.144C85.8028 246.977 78.8617 239.582 72.8216 231.646C64.8871 221.222 58.7949 210.216 58.7949 200.233C58.7949 179.14 75.8945 162.04 96.988 162.04C118.081 162.04 135.181 179.14 135.181 200.233Z" stroke="#337AB7" stroke-width="3"/>
<rect x="18.8398" y="26.4731" width="86.5771" height="86.5771" rx="3.5" stroke="#337AB7" stroke-width="3"/>
<path d="M51.2959 27.4067V63.804C51.2959 64.7037 52.3912 65.1458 53.0157 64.4982L62.9374 54.209C63.3257 53.8064 63.9688 53.8005 64.3643 54.1961L74.7431 64.5747C75.373 65.2046 76.4502 64.7584 76.4502 63.8675V27.4067" stroke="#337AB7" stroke-width="3"/>
<path d="M139.643 110.8L155.692 126.851C213.28 35.6929 170.888 11.9226 105.214 48.4348V44.7591C133.15 13.1482 203.478 1.43466 213.28 44.7593C223.082 88.0839 191.716 129.138 174.808 144.249L193.186 163.608L134.619 169.734L139.643 110.8Z" stroke="#337AB7" stroke-width="3"/>
<path d="M172.947 234.621C161.475 221.4 144.524 182.253 168.69 166.213" stroke="#337AB7" stroke-width="3"/>
<path d="M185.089 155.187C189.485 156.088 198.716 155.998 200.474 148.423C202.672 138.955 196.923 122.724 209.435 122.555C221.946 122.386 223.468 117.99 231.753 126.951" stroke="#337AB7" stroke-width="3"/>
<path d="M106.946 99.1899H120.197C125.324 98.1646 135.909 93.8896 137.234 84.9926C138.559 76.0956 147.094 74.1869 151.195 74.3447C159.778 75.2648 175.373 71.9078 169.094 51.1187" stroke="#337AB7" stroke-width="3"/>
<path d="M35.6094 147.773H76.4612C81.1599 148.636 92.7436 147.658 101.489 136.841C110.235 126.024 130.257 122.745 139.176 122.457" stroke="#337AB7" stroke-width="3"/>
</svg>
