<svg width="265" height="266" viewBox="0 0 265 266" fill="none" xmlns="http://www.w3.org/2000/svg">
<circle cx="64.2794" cy="224.073" r="19.0431" stroke="#337AB7" stroke-width="3"/>
<circle cx="202.743" cy="226.248" r="19.0431" stroke="#337AB7" stroke-width="3"/>
<path d="M241.116 44.4865C241.116 50.8164 237.896 57.2102 233.148 63.755C229.933 68.1855 226.141 72.5311 222.341 76.8852C220.642 78.832 218.941 80.7806 217.29 82.7392C216.645 82.0148 215.969 81.2628 215.271 80.4857C211.176 75.9275 206.309 70.5103 202.195 64.7854C197.209 57.846 193.562 50.7593 193.562 44.4865C193.562 31.3548 204.207 20.7095 217.339 20.7095C230.47 20.7095 241.116 31.3548 241.116 44.4865Z" stroke="#337AB7" stroke-width="3"/>
<circle cx="64.2795" cy="224.073" r="9.27848" stroke="#337AB7" stroke-width="3"/>
<circle cx="202.745" cy="226.248" r="9.27848" stroke="#337AB7" stroke-width="3"/>
<circle cx="217.341" cy="44.6213" r="9.27848" stroke="#337AB7" stroke-width="3"/>
<rect x="19.9736" y="19.313" width="65.6224" height="65.6224" rx="3" stroke="#337AB7" stroke-width="3"/>
<path d="M50.3246 210.359H39.2978C37.641 210.359 36.2979 209.016 36.2979 207.359V102.626C36.2979 100.97 37.641 99.6265 39.2979 99.6265H144.031C145.688 99.6265 147.031 100.97 147.031 102.626V207.359C147.031 209.016 145.688 210.359 144.031 210.359H77.7403" stroke="#337AB7" stroke-width="3"/>
<path d="M214.303 210.359L244.973 210.36V226.896C244.973 228.552 243.63 229.896 241.973 229.896H221.745M190.863 210.359L77.8803 210.359M183.422 229.896H82.6439M50.0427 210.359L22.9736 210.36C21.3168 210.36 19.9736 211.703 19.9736 213.36V226.896C19.9736 228.552 21.3168 229.896 22.9736 229.896H45.3498" stroke="#337AB7" stroke-width="3"/>
<path d="M38.6084 19.313V42.8725C38.6084 44.5294 39.9515 45.8725 41.6084 45.8725H63.9605C65.6174 45.8725 66.9605 44.5294 66.9605 42.8725V19.313" stroke="#337AB7" stroke-width="3"/>
<path d="M85.4756 55.6128H195.538" stroke="#337AB7" stroke-width="3" stroke-linecap="round"/>
<path d="M163.603 210.168C164.081 209.212 163.756 153.422 163.548 122.759C163.537 121.094 164.883 119.741 166.548 119.741H210.179C212.741 119.741 215.205 120.724 217.064 122.488L241.91 146.071C243.899 147.959 245.026 150.581 245.026 153.324V210.527" stroke="#337AB7" stroke-width="3" stroke-linecap="round"/>
<path d="M179.023 187.726H192.198M128.604 193.264V172.159M128.604 172.159L120.725 180.039M128.604 172.159L136.484 180.039M48.0146 180.039H83.5352M48.0145 193.264H73.0265M206.844 135.948C209.456 138.517 220.259 149.158 226.175 155.268C226.534 155.64 226.732 156.135 226.732 156.652V170.159C226.732 171.264 225.837 172.159 224.732 172.159H181.023C179.919 172.159 179.023 171.264 179.023 170.159V137.378C179.023 136.273 179.915 135.378 181.019 135.378C189.087 135.378 202.082 135.378 205.447 135.378C205.971 135.378 206.47 135.58 206.844 135.948Z" stroke="#337AB7" stroke-width="3" stroke-linecap="round"/>
<path d="M68.0605 99.6392V145.399C68.0605 145.844 68.5991 146.068 68.9141 145.753L75.4122 139.254C75.6074 139.059 75.924 139.059 76.1193 139.254L83.1174 146.253C83.3126 146.448 83.6292 146.448 83.8245 146.253L90.8225 139.254C91.0178 139.059 91.3344 139.059 91.5296 139.254L98.5277 146.253C98.723 146.448 99.0396 146.448 99.2348 146.253L106.233 139.254C106.428 139.059 106.745 139.059 106.94 139.254L113.438 145.753C113.753 146.068 114.292 145.844 114.292 145.399V99.6392" stroke="#337AB7" stroke-width="3" stroke-linecap="round"/>
<path d="M244.787 183.344C244.126 183.344 235.376 183.344 229.152 183.344C227.495 183.344 226.153 184.687 226.153 186.344V197.326C226.153 198.983 227.496 200.326 229.153 200.326H244.787" stroke="#337AB7" stroke-width="3" stroke-linecap="round"/>
</svg>
