<svg width="266" height="266" viewBox="0 0 266 266" fill="none" xmlns="http://www.w3.org/2000/svg">
<path d="M93.9883 227.384C89.3291 227.384 62.9488 227.384 47.178 227.384C44.9689 227.384 43.1865 225.593 43.1865 223.384V26.5874C43.1865 24.3783 44.9774 22.5874 47.1865 22.5874H160.666M160.666 22.5874L199.165 61.0859M160.666 22.5874V57.0859C160.666 59.2951 162.457 61.0859 164.666 61.0859H199.165M199.165 61.0859V122.604M63.5968 61.0859H120.55M63.5968 81.8819H175.705M63.5968 104.663H175.705" stroke="#337AB7" stroke-width="3" stroke-linecap="round"/>
<path d="M114.042 151.255L87.4034 194.891C85.9749 197.231 82.9287 197.984 80.5743 196.58L66.2891 188.059L100.434 131.152L111.037 138.035C115.453 140.902 116.785 146.762 114.042 151.255V151.255ZM114.042 151.255C117.744 153.997 126.465 158.553 131.727 154.846C136.988 151.139 146.345 153.301 151.028 154.846M146.211 236.278L156.294 243.961C162.809 248.429 172.646 241.993 167.605 232.695M167.605 232.695L157.414 226.176M167.605 232.695C171.246 234.935 179.197 239.671 183.04 234.476C187.84 227.988 184.347 225.196 183.04 222.675M183.04 222.675L164.135 210.632M183.04 222.675C186.121 224.962 193.77 227.044 197.131 222.675C200.491 218.306 196.203 213.76 193.963 211.332M193.963 211.332L171.837 197.049M193.963 211.332C198.864 215.16 207.266 219.302 211.354 213.613C214.782 208.842 212.343 204.911 209.132 202.024M192.563 151.255C190.835 152.143 185.925 154.104 180.099 154.846C172.818 155.774 169.177 150.417 158.114 152.658C149.264 154.45 146.491 157.606 146.211 158.959V178.564C145.838 181.038 146.543 185.902 152.355 185.566C158.166 185.23 161.603 177.584 162.595 173.803L207.266 200.55C207.836 200.937 208.477 201.435 209.132 202.024M192.563 151.255L198.024 160.22M192.563 151.255C190.742 148.269 188.193 141.735 192.563 139.494C196.932 137.254 203.345 133.613 206.006 132.073L240.034 186.966L230.323 193.209C225.945 196.024 220.114 194.749 217.31 190.363V190.363M206.006 172.683L217.31 190.363M217.31 190.363C214.506 191.848 208.944 196.257 209.132 202.024" stroke="#337AB7" stroke-width="3" stroke-linecap="round"/>
<rect x="100.06" y="191.626" width="13.0315" height="22.5674" rx="6.51574" transform="rotate(39.9706 100.06 191.626)" stroke="#337AB7" stroke-width="3"/>
<rect x="117.923" y="191.626" width="16.4941" height="33.0912" rx="8.24704" transform="rotate(39.9706 117.923 191.626)" stroke="#337AB7" stroke-width="3"/>
<rect x="130.44" y="203.233" width="16.4941" height="31.7566" rx="8.24704" transform="rotate(39.9706 130.44 203.233)" stroke="#337AB7" stroke-width="3"/>
<rect x="141.767" y="215.694" width="16.4941" height="25.5345" rx="8.24704" transform="rotate(39.9706 141.767 215.694)" stroke="#337AB7" stroke-width="3"/>
</svg>
