<svg width="266" height="266" viewBox="0 0 266 266" fill="none" xmlns="http://www.w3.org/2000/svg">
<path d="M230.003 94.6489H136.67C131.147 94.6489 126.67 99.1206 126.67 104.643V233.63C126.67 239.118 131.081 243.558 136.569 243.597C156.055 243.736 200.105 243.985 230.201 243.658C235.654 243.598 240.003 239.15 240.003 233.697V104.649C240.003 99.1261 235.526 94.6489 230.003 94.6489Z" stroke="#337AB7" stroke-width="3"/>
<path d="M193.326 56.9571L161.403 22.1812M193.326 56.9571V94.2325M193.326 56.9571H163.403C162.298 56.9571 161.403 56.0617 161.403 54.9571V22.1812M64.6787 162.45C64.6787 125.851 64.6787 68.9407 64.6787 32.1697C64.6787 26.6468 69.1559 22.1812 74.6787 22.1812H161.403" stroke="#337AB7" stroke-width="3"/>
<path d="M218.62 108.402H146.105C143.318 108.402 141.038 110.673 141.038 113.461L141.038 133.996C141.038 136.752 143.252 138.982 146.008 138.988C159.173 139.016 195.521 139.08 218.655 138.998C221.406 138.988 223.62 136.753 223.62 134.002V113.402C223.62 110.64 221.381 108.402 218.62 108.402Z" stroke="#337AB7" stroke-width="3"/>
<path d="M221.208 226.813L221.208 184.368C221.208 182.697 219.846 181.332 218.175 181.332L204.254 181.332C202.6 181.332 201.263 182.663 201.259 184.317C201.241 192.089 201.2 213.289 201.253 226.834C201.259 228.484 202.6 229.813 204.25 229.813L218.208 229.813C219.865 229.813 221.208 228.47 221.208 226.813Z" stroke="#337AB7" stroke-width="3"/>
<path d="M221.208 168.352L221.208 156.071C221.208 154.409 219.861 153.058 218.198 153.058L204.24 153.058C202.592 153.058 201.257 154.386 201.249 156.034C201.233 159.205 201.214 164.319 201.238 168.399C201.248 170.039 202.583 171.352 204.223 171.352L218.208 171.352C219.865 171.352 221.208 170.009 221.208 168.352Z" stroke="#337AB7" stroke-width="3"/>
<path d="M193.327 168.352L193.327 156.071C193.327 154.409 191.98 153.058 190.318 153.058L176.359 153.058C174.711 153.058 173.376 154.386 173.368 156.034C173.352 159.205 173.334 164.319 173.357 168.399C173.367 170.039 174.702 171.352 176.342 171.352L190.327 171.352C191.984 171.352 193.327 170.009 193.327 168.352Z" stroke="#337AB7" stroke-width="3"/>
<path d="M193.327 197.582L193.327 185.301C193.327 183.639 191.98 182.287 190.318 182.287L176.359 182.287C174.711 182.287 173.376 183.616 173.368 185.264C173.352 188.434 173.334 193.548 173.357 197.629C173.367 199.268 174.702 200.582 176.342 200.582L190.327 200.582C191.984 200.582 193.327 199.239 193.327 197.582Z" stroke="#337AB7" stroke-width="3"/>
<path d="M193.327 226.812L193.327 214.531C193.327 212.869 191.98 211.518 190.318 211.518L176.359 211.518C174.711 211.518 173.376 212.846 173.368 214.494C173.352 217.665 173.334 222.779 173.357 226.859C173.367 228.499 174.702 229.812 176.342 229.812L190.327 229.812C191.984 229.812 193.327 228.469 193.327 226.812Z" stroke="#337AB7" stroke-width="3"/>
<path d="M165.444 168.352L165.444 156.071C165.444 154.409 164.097 153.058 162.435 153.058L148.476 153.058C146.828 153.058 145.494 154.386 145.485 156.034C145.469 159.205 145.451 164.319 145.475 168.399C145.484 170.039 146.82 171.352 148.459 171.352L162.444 171.352C164.101 171.352 165.444 170.009 165.444 168.352Z" stroke="#337AB7" stroke-width="3"/>
<path d="M117.106 173.825L117.106 166.088C117.106 164.43 115.769 163.085 114.111 163.085L52.159 163.085C50.5412 163.085 49.2177 164.365 49.1835 165.982C49.1364 168.208 49.0943 171.345 49.1487 174.023C49.1808 175.601 50.4861 176.825 52.0653 176.825L114.106 176.825C115.763 176.825 117.106 175.482 117.106 173.825Z" stroke="#337AB7" stroke-width="3"/>
<path d="M76.7932 191.973L114.106 191.973C115.763 191.973 117.106 190.63 117.106 188.973L117.106 181.236C117.106 179.578 115.769 178.233 114.111 178.233C102.864 178.233 63.2421 178.233 52.159 178.233C50.5412 178.233 49.2176 179.515 49.1835 181.133C49.1503 182.7 49.1197 184.717 49.1234 186.708" stroke="#337AB7" stroke-width="3"/>
<path d="M79.3998 193.712C93.2489 193.712 107.95 193.712 114.114 193.712C115.772 193.712 117.106 195.057 117.106 196.715L117.106 204.452C117.106 206.109 115.763 207.452 114.106 207.452L87.2198 207.452" stroke="#337AB7" stroke-width="3"/>
<path d="M87.7545 209.191C98.7929 209.191 109.174 209.191 114.106 209.191C115.764 209.191 117.106 210.536 117.106 212.194L117.106 219.931C117.106 221.588 115.763 222.931 114.106 222.931L86.1504 222.931" stroke="#337AB7" stroke-width="3"/>
<path d="M66.5981 237.881L115.85 238.068C117.511 238.075 118.861 236.73 118.861 235.068L118.861 227.343C118.861 225.685 117.521 224.34 115.863 224.34C110.285 224.34 97.7353 224.34 85.1468 224.34" stroke="#337AB7" stroke-width="3"/>
<path d="M165.444 197.582L165.444 185.301C165.444 183.639 164.097 182.287 162.435 182.287L148.476 182.287C146.828 182.287 145.494 183.616 145.485 185.264C145.469 188.434 145.451 193.548 145.475 197.629C145.484 199.268 146.82 200.582 148.459 200.582L162.444 200.582C164.101 200.582 165.444 199.239 165.444 197.582Z" stroke="#337AB7" stroke-width="3"/>
<path d="M165.444 226.812L165.444 214.531C165.444 212.869 164.097 211.518 162.435 211.518L148.476 211.518C146.828 211.518 145.494 212.846 145.485 214.494C145.469 217.665 145.451 222.779 145.475 226.859C145.484 228.499 146.82 229.812 148.459 229.812L162.444 229.812C164.101 229.812 165.444 228.469 165.444 226.812Z" stroke="#337AB7" stroke-width="3"/>
<path d="M89.0049 68.8726C90.2291 69.0766 142.726 68.9576 168.822 68.8726" stroke="#337AB7" stroke-width="3" stroke-linecap="round"/>
<path d="M114.925 86.7373C115.84 86.8899 151.865 86.8009 171.374 86.7373" stroke="#337AB7" stroke-width="3" stroke-linecap="round"/>
<path d="M89.6406 86.6533C90.5558 86.8059 88.7978 86.7169 108.307 86.6533" stroke="#337AB7" stroke-width="3" stroke-linecap="round"/>
<path d="M102.537 108.884C103.113 106.003 102.381 100.889 94.7566 100.889M94.7566 100.889C88.2319 100.888 84.3838 104.901 84.3838 108.884C84.3831 112.36 85.1461 116.643 94.7566 120.304C105.184 124.275 104.049 128.538 104.049 131.792C104.049 136.772 100.412 141.034 93.3046 141.034M94.7566 100.889V95.6982M93.3046 141.034C88.0735 141.034 84.3838 137.627 84.3838 131.792M93.3046 141.034V147.137" stroke="#337AB7" stroke-width="3" stroke-linecap="round"/>
<path d="M66.0744 206.009C66.39 204.431 65.9889 201.629 61.8114 201.629M61.8114 201.629C58.2364 201.628 56.1279 203.827 56.1279 206.009C56.1275 207.914 56.5456 210.261 61.8114 212.266C67.5249 214.442 66.9029 216.778 66.9029 218.561C66.9029 221.289 64.9099 223.625 61.0157 223.625M61.8114 201.629V198.785M61.0157 223.625C58.1496 223.625 56.1279 221.758 56.1279 218.561M61.0157 223.625V226.969" stroke="#337AB7" stroke-width="3" stroke-linecap="round"/>
<circle cx="62.661" cy="212.877" r="24.8651" stroke="#337AB7" stroke-width="3"/>
<path d="M62.0458 187.623L49.9096 187.623C35.3486 187.623 26.7939 198.948 26.7939 213.509C26.7939 228.07 35.3486 238.121 49.9096 238.121H61.7239" stroke="#337AB7" stroke-width="3"/>
</svg>
