<svg width="265" height="266" viewBox="0 0 265 266" fill="none" xmlns="http://www.w3.org/2000/svg">
<rect x="89.8477" y="92.4326" width="79.7861" height="79.7861" rx="2.5" stroke="#337AB7" stroke-width="3"/>
<rect x="29.8125" y="178.628" width="203.477" height="52.4196" rx="26.2098" stroke="#337AB7" stroke-width="3"/>
<rect x="118.991" y="92.4326" width="21.5036" height="38.9173" stroke="#337AB7" stroke-width="3"/>
<circle cx="107.13" cy="204.838" r="13.4798" stroke="#337AB7" stroke-width="3"/>
<circle cx="56.9202" cy="204.838" r="13.4798" stroke="#337AB7" stroke-width="3"/>
<circle cx="159.734" cy="204.838" r="13.4798" stroke="#337AB7" stroke-width="3"/>
<circle cx="205.063" cy="204.838" r="13.4798" stroke="#337AB7" stroke-width="3"/>
<path d="M123.916 91.3462C123.916 72.846 108.919 59.4912 90.4185 59.4912C71.9183 59.4912 56.9209 74.4886 56.9209 92.9888C56.9209 111.489 70.2757 126.486 88.7759 126.486" stroke="#337AB7" stroke-width="3"/>
<path d="M88.9515 159.319L80.0285 157.451C79.1019 157.257 78.4382 156.44 78.4382 155.494V150.431C78.4382 149.599 77.924 148.855 77.1467 148.56L63.2536 143.298C62.6552 143.071 61.9844 143.144 61.4491 143.495L56.5704 146.691C55.778 147.211 54.7301 147.103 54.0602 146.433L39.2952 131.669C38.6023 130.976 38.5134 129.883 39.0854 129.087L43.0747 123.537C43.4749 122.98 43.562 122.257 43.3054 121.621L38.4975 109.707C38.2454 109.082 37.6956 108.626 37.035 108.494L29.9212 107.071C28.9864 106.884 28.3135 106.063 28.3135 105.11V84.2988C28.3135 83.1942 29.2089 82.2988 30.3135 82.2988H36.6726C37.5234 82.2988 38.2811 81.7605 38.5611 80.957L43.3873 67.1089C43.5951 66.5126 43.5091 65.8531 43.1552 65.3301L39.0541 59.2678C38.5013 58.4508 38.6269 57.3527 39.3497 56.6815L53.9519 43.1233C54.6756 42.4512 55.7816 42.4081 56.5555 43.0219L61.3706 46.8406C61.9442 47.2955 62.7205 47.4007 63.3945 47.1147L77.2193 41.2495C77.9583 40.936 78.4382 40.211 78.4382 39.4083V33.6855C78.4382 32.581 79.3336 31.6855 80.4382 31.6855H102.6C103.705 31.6855 104.6 32.581 104.6 33.6855V40.5411C104.6 41.3885 105.134 42.1439 105.933 42.4265L119.47 47.2167C120.108 47.4424 120.817 47.3302 121.354 46.9184L126.498 42.9751C127.267 42.3849 128.35 42.4322 129.065 43.0871L143.864 56.6351C144.617 57.325 144.73 58.4716 144.125 59.2947C142.621 61.3401 140.726 63.9165 139.741 65.257C139.328 65.8188 139.237 66.5549 139.501 67.2L144.745 79.9951C145.019 80.6631 145.632 81.1317 146.348 81.2212L153.217 82.0798C154.218 82.2049 154.969 83.0557 154.969 84.0644V91.3456" stroke="#337AB7" stroke-width="3"/>
<rect x="89.8477" y="92.4326" width="79.7861" height="79.7861" rx="2.5" stroke="#337AB7" stroke-width="3"/>
<rect x="118.991" y="92.4326" width="21.5036" height="38.9173" stroke="#337AB7" stroke-width="3"/>
<circle cx="107.129" cy="204.838" r="13.4798" stroke="#337AB7" stroke-width="3"/>
<circle cx="56.9202" cy="204.838" r="13.4798" stroke="#337AB7" stroke-width="3"/>
<circle cx="159.733" cy="204.838" r="13.4798" stroke="#337AB7" stroke-width="3"/>
<circle cx="205.062" cy="204.838" r="13.4798" stroke="#337AB7" stroke-width="3"/>
<path d="M123.917 91.3462C123.917 72.846 108.92 59.4912 90.4195 59.4912C71.9193 59.4912 56.9219 74.4886 56.9219 92.9888C56.9219 111.489 70.2767 126.486 88.7769 126.486" stroke="#337AB7" stroke-width="3"/>
<path d="M88.9505 159.319L80.0275 157.451C79.1009 157.257 78.4372 156.44 78.4372 155.494V150.431C78.4372 149.599 77.9231 148.855 77.1457 148.56L63.2527 143.298C62.6542 143.071 61.9834 143.144 61.4482 143.495L56.5694 146.691C55.777 147.211 54.7291 147.103 54.0592 146.433L39.2943 131.669C38.6013 130.976 38.5125 129.883 39.0844 129.087L43.0737 123.537C43.4739 122.98 43.561 122.257 43.3044 121.621L38.4965 109.707C38.2444 109.082 37.6947 108.626 37.034 108.494L29.9203 107.071C28.9854 106.884 28.3125 106.063 28.3125 105.11V84.2988C28.3125 83.1942 29.2079 82.2988 30.3125 82.2988H36.6716C37.5224 82.2988 38.2802 81.7605 38.5602 80.957L43.3863 67.1089C43.5941 66.5126 43.5081 65.8531 43.1542 65.3301L39.0531 59.2678C38.5004 58.4508 38.6259 57.3527 39.3488 56.6815L53.9509 43.1233C54.6747 42.4512 55.7807 42.4081 56.5545 43.0219L61.3696 46.8406C61.9432 47.2955 62.7195 47.4007 63.3935 47.1147L77.2183 41.2495C77.9573 40.936 78.4372 40.211 78.4372 39.4083V33.6855C78.4372 32.581 79.3327 31.6855 80.4372 31.6855H102.599C103.704 31.6855 104.599 32.581 104.599 33.6855V40.5411C104.599 41.3885 105.133 42.1439 105.932 42.4265L119.469 47.2167C120.107 47.4424 120.816 47.3302 121.353 46.9184L126.497 42.9751C127.266 42.3849 128.349 42.4322 129.064 43.0871L143.863 56.6351C144.616 57.325 144.729 58.4716 144.124 59.2947C142.62 61.3401 140.725 63.9165 139.74 65.257C139.327 65.8188 139.236 66.5549 139.501 67.2L144.744 79.9951C145.018 80.6631 145.631 81.1317 146.347 81.2212L153.216 82.0798C154.217 82.2049 154.968 83.0557 154.968 84.0644V91.3456" stroke="#337AB7" stroke-width="3"/>
<circle cx="207.485" cy="88.2571" r="9.60376" stroke="#337AB7" stroke-width="3"/>
<path d="M197.727 91.5835L187.206 104.664C186.912 105.03 186.911 105.55 187.204 105.916L198.827 120.444C199.285 121.017 200.184 120.917 200.506 120.258L202.667 115.834C202.835 115.489 202.792 115.079 202.555 114.778L194.854 104.951C194.539 104.55 194.577 103.977 194.941 103.62L201.452 97.2446" stroke="#337AB7" stroke-width="3" stroke-linecap="round"/>
<path d="M218.067 91.5835L228.588 104.664C228.882 105.03 228.882 105.55 228.59 105.916L216.967 120.444C216.509 121.017 215.61 120.917 215.288 120.258L213.127 115.834C212.959 115.489 213.002 115.079 213.238 114.778L220.94 104.951C221.255 104.55 221.217 103.977 220.853 103.62L214.342 97.2446" stroke="#337AB7" stroke-width="3" stroke-linecap="round"/>
<path d="M200.793 79.895L202.084 55.978H212.649L214.176 79.895" stroke="#337AB7" stroke-width="3" stroke-linecap="round"/>
<path d="M177.479 38.7534H237.49V45.978C237.49 50.6724 233.685 54.478 228.99 54.478H185.979C181.284 54.478 177.479 50.6724 177.479 45.978V38.7534Z" stroke="#337AB7" stroke-width="3"/>
</svg>
