<svg width="265" height="266" viewBox="0 0 265 266" fill="none" xmlns="http://www.w3.org/2000/svg">
<g clip-path="url(#clip0_171_118)">
<path d="M101.135 210.272C100.792 208.553 100.992 131.053 101.135 92.5181M101.135 210.272L20.3531 179.922C18.793 179.336 17.7598 177.844 17.7599 176.178L17.7635 61.5754M101.135 210.272L148.38 191.471M101.135 92.5181L17.7635 61.5754M101.135 92.5181L185.37 61.5754M17.7635 61.5754L99.7336 30.7305C100.637 30.3904 101.634 30.3888 102.538 30.7258L185.37 61.5754M185.37 61.5754V95.3021" stroke="#337AB7" stroke-width="3"/>
<path d="M208.22 216.242C215.443 225.403 225.233 238.952 225.444 237.472C225.651 236.021 227.061 222.263 227.78 215.166C227.805 214.921 228.003 214.736 228.248 214.722L249.604 213.494C250.049 213.469 250.241 212.917 249.907 212.621L222.53 188.316" stroke="#337AB7" stroke-width="3"/>
<path d="M170.255 209.137C163.032 218.298 146.594 239.475 146.383 237.995C146.176 236.545 144.766 222.281 144.047 215.165C144.022 214.92 143.824 214.735 143.579 214.721L122.304 213.498C121.848 213.472 121.663 212.899 122.018 212.611L148.067 191.487" stroke="#337AB7" stroke-width="3"/>
<path d="M131.593 41.647L48.0244 72.6806L48.026 104.008C48.026 104.364 48.3859 104.606 48.7147 104.471L58.5595 100.457C58.9482 100.299 59.3946 100.4 59.677 100.711L69.8258 111.874C70.125 112.204 70.6728 112.007 70.6951 111.563L72.1857 81.9087L155.312 50.0704" stroke="#337AB7" stroke-width="3"/>
<circle cx="185.37" cy="150.367" r="31.9156" stroke="#337AB7" stroke-width="3"/>
<path d="M169.546 148.321C174.775 154.459 180.913 163.551 182.731 162.187C184.186 161.096 198.946 150.064 206.144 144.684" stroke="#337AB7" stroke-width="3"/>
<path d="M218.932 93.548L220.867 109.593C221.405 114.055 224.723 117.679 229.119 118.609L244.931 121.953C250.364 123.102 252.708 129.552 249.279 133.921L239.302 146.635C236.528 150.17 236.311 155.079 238.762 158.845L247.578 172.391C250.607 177.045 247.703 183.263 242.19 183.928L226.144 185.863C221.683 186.401 218.059 189.718 217.129 194.115L213.785 209.927C212.635 215.36 206.186 217.703 201.817 214.275L189.103 204.297C185.567 201.523 180.659 201.306 176.893 203.757L163.347 212.573C158.693 215.603 152.475 212.699 151.81 207.185L149.875 191.14C149.337 186.679 146.02 183.054 141.623 182.124L125.811 178.78C120.378 177.631 118.034 171.181 121.463 166.812L131.44 154.098C134.215 150.563 134.432 145.654 131.981 141.888L123.165 128.343C120.135 123.688 123.039 117.47 128.552 116.805L144.598 114.87C149.059 114.332 152.684 111.015 153.613 106.619L156.958 90.8067C158.107 85.3734 164.557 83.03 168.926 86.4584L181.64 96.436C185.175 99.2102 190.083 99.4273 193.85 96.9761L207.395 88.1601C212.05 85.1307 218.267 88.0345 218.932 93.548Z" stroke="#337AB7" stroke-width="3"/>
</g>
<defs>
<clipPath id="clip0_171_118">
<rect width="265" height="266" fill="white"/>
</clipPath>
</defs>
</svg>
