<svg width="104" height="108" viewBox="0 0 104 108" fill="none" xmlns="http://www.w3.org/2000/svg">
<path d="M13.5928 70.7492C13.5928 57.8578 24.0433 47.4072 36.9348 47.4072C49.8262 47.4072 60.2768 57.8578 60.2768 70.7492C60.2768 78.5558 56.4452 85.4675 50.5569 89.7064H23.3127C17.4243 85.4675 13.5928 78.5558 13.5928 70.7492Z" stroke="#337AB7" stroke-width="1.5"/>
<path d="M34.0693 52.007V62.9574C34.0693 64.54 35.3523 65.823 36.9349 65.823V65.823C38.5175 65.823 39.8005 64.54 39.8005 62.9574V52.007" stroke="#337AB7" stroke-width="1.5" stroke-linecap="round"/>
<path d="M23.797 84.2993C20.426 81.0301 18.2721 76.5165 18.0761 71.4992H55.7945C55.5985 76.5165 53.4446 81.0301 50.0737 84.2993H23.797ZM18.0762 69.9992C18.4699 59.9231 26.7628 51.8754 36.9353 51.8754C47.1079 51.8754 55.4008 59.9231 55.7945 69.9992H18.0762Z" stroke="#337AB7" stroke-width="1.5"/>
<path d="M29.1064 48.2203V41.726C29.1064 40.6214 30.0019 39.726 31.1064 39.726H42.7647C43.8692 39.726 44.7647 40.6214 44.7647 41.726V48.2203" stroke="#337AB7" stroke-width="1.5" stroke-linecap="round"/>
<path d="M31.8174 39.4469V32.0637C31.8174 29.3022 34.056 27.0637 36.8174 27.0637H37.0515C39.8129 27.0637 42.0515 29.3022 42.0515 32.0637V39.4469" stroke="#337AB7" stroke-width="1.5" stroke-linecap="round"/>
<path d="M32 33.1762H35.2748" stroke="#337AB7" stroke-width="1.5" stroke-linecap="round"/>
<path d="M49.3867 49.4692V47.4044C49.3867 41.8815 53.8639 37.4044 59.3867 37.4044H63.6091M53.6018 87.1909H79.6001C85.123 87.1909 89.6001 82.7138 89.6001 77.191V47.4044C89.6001 41.8815 85.123 37.4044 79.6001 37.4044H74.4153M63.6091 37.4044V33.5656H74.4153V37.4044M63.6091 37.4044H74.4153" stroke="#337AB7" stroke-width="1.5" stroke-linecap="round"/>
<path d="M55.0625 53.6375V45.9136C55.0625 44.2568 56.4056 42.9136 58.0625 42.9136H80.9247C82.5815 42.9136 83.9247 44.2568 83.9247 45.9136V78.4022C83.9247 80.0591 82.5815 81.4022 80.9247 81.4022H57.7498" stroke="#337AB7" stroke-width="1.5" stroke-linecap="round"/>
<path d="M66.6207 43.0344V56.1371C66.6207 57.6377 67.8372 58.8542 69.3378 58.8542V58.8542C70.8385 58.8542 72.055 57.6377 72.055 56.1371V43.0344M55.1836 49.9178H83.6834" stroke="#337AB7" stroke-width="1.5" stroke-linecap="round"/>
<rect x="57.3086" y="14.8003" width="23.6918" height="18.4093" rx="4.25" stroke="#337AB7" stroke-width="1.5"/>
</svg>
