<svg width="32" height="32" viewBox="0 0 32 32" fill="none" xmlns="http://www.w3.org/2000/svg">
<path d="M24.2979 15.8345L24.2975 15.8356C23.317 18.5406 21.5713 20.7236 20.058 22.2484C19.2983 23.014 18.5894 23.6214 18.0509 24.0534C17.7815 24.2696 17.5546 24.4419 17.3858 24.5678C17.317 24.6191 17.2573 24.6631 17.21 24.698C17.1996 24.7056 17.1899 24.7128 17.1808 24.7196C17.1547 24.7388 17.1349 24.7535 17.1197 24.7649C17.1071 24.7743 17.102 24.7783 17.1015 24.7787C16.9358 24.9147 16.2723 25.4586 15.3467 25.9712C14.4286 26.4796 13.1799 26.9983 11.86 26.9983C9.40636 26.9983 8.10668 25.6579 7.57236 25.1069C7.5386 25.0721 7.50789 25.0404 7.48014 25.0124L8.01266 24.4843L7.48144 25.0137C6.8406 24.3707 6.68066 23.6084 6.68066 23.1315L6.68066 23.1178C6.68066 22.7413 6.68066 22.4448 6.69937 22.1232C6.69948 21.9377 6.70463 21.5954 6.89096 21.2405C7.08946 20.8625 7.43367 20.5721 7.91053 20.3429C8.38792 20.1084 9.20002 19.7484 9.90133 19.4388C9.96377 19.4112 10.0254 19.384 10.0859 19.3573C10.3704 19.2318 10.6309 19.1168 10.8403 19.0231C10.9674 18.9662 11.0724 18.9185 11.1506 18.882C11.2024 18.8578 11.2317 18.8434 11.2451 18.8368C11.2559 18.8315 11.2565 18.8313 11.2503 18.835L11.2629 18.8274L11.2759 18.8203C11.6015 18.6423 12.1764 18.439 12.8006 18.7788L12.8184 18.7885L12.8356 18.7991C12.8814 18.8274 12.9339 18.8573 12.9916 18.8901C13.1944 19.0055 13.461 19.1573 13.7226 19.4003L13.7251 19.4026C13.7856 19.4593 13.8608 19.5275 13.9428 19.6017C14.1526 19.7918 14.407 20.0222 14.5733 20.2049L14.5826 20.2152L14.5915 20.2257C14.6016 20.2377 14.6109 20.2486 14.6197 20.2588C15.1479 19.8985 16.4867 18.9764 17.5673 17.6506L17.568 17.6498C18.8292 16.1068 19.3398 14.802 19.6178 14.0918C19.6691 13.9607 19.7125 13.8499 19.7512 13.7615L19.756 13.7505L19.7561 13.7505C19.8082 13.6366 19.825 13.5709 19.8305 13.5401C19.8247 13.5336 19.8168 13.5252 19.8063 13.5151L19.7981 13.5072L19.7901 13.4991C19.4955 13.1983 18.5038 12.276 18.0942 11.9898L18.088 11.9854L18.0818 11.9809C17.7291 11.7236 17.4859 11.3839 17.4402 10.9417C17.4035 10.5868 17.5117 10.2454 17.5793 10.0319L17.5833 10.0195L17.5839 10.0175C17.6753 9.73169 18.0186 8.94759 18.3363 8.23367C18.5079 7.84785 18.6787 7.46813 18.8193 7.1554C18.9524 6.85955 19.0584 6.62365 19.1128 6.49923L19.1202 6.48244L19.1283 6.46603C19.1841 6.35359 19.2331 6.24803 19.2808 6.1447L19.2924 6.11953C19.3346 6.02774 19.3793 5.93077 19.4231 5.84328C19.5015 5.68668 19.6521 5.39248 19.9333 5.20808L19.935 5.20697C20.0626 5.12378 20.1932 5.08562 20.2748 5.06612C20.3675 5.04395 20.4632 5.03088 20.5549 5.0233C20.7391 5.00808 20.9522 5.01137 21.1806 5.03232C21.6391 5.07436 22.2085 5.19208 22.8091 5.42235L22.8163 5.42511L22.8163 5.42514C23.2311 5.5891 23.5878 5.8837 23.8783 6.19483C24.1744 6.51198 24.4376 6.88514 24.6585 7.26075C25.0871 7.98979 25.4207 8.84066 25.4827 9.45229L24.2979 15.8345ZM24.2979 15.8345C25.0755 13.679 25.4063 12.3364 25.5216 11.3913C25.6207 10.5797 25.5567 10.0625 25.508 9.66809C25.4986 9.59202 25.4897 9.52052 25.4827 9.45236L24.2979 15.8345Z" stroke="#337AB7" stroke-width="1.5"/>
</svg>
