<svg width="14" height="17" viewBox="0 0 14 17" fill="none" xmlns="http://www.w3.org/2000/svg">
<path fill-rule="evenodd" clip-rule="evenodd" d="M1.15959 12.24C0.583639 12.5161 0.569651 12.8228 0.569651 13.0836C0.555664 13.3138 0.555664 13.5602 0.555664 13.821C0.555664 14.0656 0.639588 14.4801 0.990916 14.8327C1.34142 15.1861 2.16996 16.1519 3.86819 16.1519C5.56723 16.1519 7.20951 14.8021 7.43413 14.6177C7.65874 14.4343 11.2518 12.0098 12.6423 8.17352C13.7934 4.9829 13.5688 4.33812 13.498 3.64748C13.4281 2.95774 12.6703 1.42268 11.8558 1.10074C11.056 0.794087 10.3542 0.794085 10.2135 0.88581C10.0736 0.977537 9.98887 1.23922 9.80621 1.60703C9.63836 1.99102 8.79583 3.83183 8.68311 4.18434C8.57121 4.53776 8.51526 4.78326 8.85178 5.02876C9.20311 5.27427 9.97488 5.99548 10.1995 6.2248C10.4241 6.44062 10.4521 6.66994 10.2834 7.03865C10.1156 7.42174 9.75026 8.63395 8.57121 10.0764C7.65792 11.1969 6.52166 11.9487 6.18514 12.1789C5.83382 12.3929 5.65116 12.2095 5.48249 12.0098C5.32863 11.8408 5.07603 11.6258 4.87939 11.4415C4.68192 11.258 4.52806 11.1969 4.30344 11.0584C4.07882 10.9361 3.86819 10.9972 3.70034 11.089C3.54566 11.1816 1.84743 11.9019 1.15959 12.24Z" fill="#337AB7"/>
</svg>
