<svg width="104" height="108" viewBox="0 0 104 108" fill="none" xmlns="http://www.w3.org/2000/svg">
<path d="M75.9092 36.1346L72.5312 34.8901" stroke="#337AB7" stroke-width="1.5" stroke-linecap="round"/>
<path d="M68.3535 38.5442L64.9756 37.2997" stroke="#337AB7" stroke-width="1.5" stroke-linecap="round"/>
<path d="M67.5537 33.8945L64.1758 32.65" stroke="#337AB7" stroke-width="1.5" stroke-linecap="round"/>
<path d="M44.3056 68.2342V94.0238C44.3056 95.9567 42.7386 97.5238 40.8056 97.5238H22.2676C20.3346 97.5238 18.7676 95.9567 18.7676 94.0238V63.9224C18.7676 59.2269 20.3663 54.6712 23.3006 51.0054V51.0054C25.6371 48.0862 26.9101 44.4586 26.9101 40.7195V35.8219C26.9101 34.9935 27.5817 34.3219 28.4101 34.3219H34.6631C35.4915 34.3219 36.1631 34.9935 36.1631 35.8219V40.7195C36.1631 44.4586 37.4361 48.0863 39.7727 51.0054L40.8666 52.3721C43.0928 55.1532 44.3056 58.6094 44.3056 62.1718V62.1718" stroke="#337AB7" stroke-width="1.5" stroke-linecap="round"/>
<rect x="26.7236" y="19.6421" width="9.62574" height="11.9474" rx="1.75" stroke="#337AB7" stroke-width="1.5"/>
<rect x="22.916" y="58.7393" width="15.7552" height="27.9053" rx="1.75" stroke="#337AB7" stroke-width="1.5"/>
<path d="M37.2432 38.7016L40.9927 41.1585C41.4658 41.4685 42.073 41.486 42.5632 41.2038L46.2198 39.0987C46.6512 38.8503 47.1777 38.8322 47.6252 39.0502L52.4121 41.3823C52.7813 41.5621 53.208 41.5828 53.5927 41.4394L60.1413 38.9998C60.6375 38.8149 61.1944 38.9054 61.6066 39.2378L64.9883 41.965C65.4639 42.3484 66.1244 42.4053 66.6584 42.1086L71.822 39.2399C72.398 38.92 73.1152 39.0133 73.5902 39.4699L75.9088 41.6994C76.4461 42.216 77.2813 42.2597 77.8696 41.8019L80.495 39.7591C81.4693 39.001 82.8912 39.6786 82.9159 40.9128L83.9167 90.8395C83.9335 91.6795 83.2572 92.3695 82.417 92.3695H75.5634" stroke="#337AB7" stroke-width="1.5" stroke-linecap="round"/>
<path d="M45.3503 73.1205H49.8578M43.8125 94.1687H66.0085C71.8208 94.1687 76.5326 89.4569 76.5326 83.6446V83.0899C76.5326 77.584 72.0691 73.1205 66.5632 73.1205V73.1205M61.3718 73.4927V83.5426C61.3718 84.9762 62.534 86.1383 63.9675 86.1383V86.1383C65.4011 86.1383 66.5632 84.9762 66.5632 83.5426V73.1205M66.5632 73.1205H55.8477M49.8578 73.1205V83.1433C49.8578 84.7974 51.1987 86.1383 52.8528 86.1383V86.1383C54.5068 86.1383 55.8477 84.7974 55.8477 83.1433V73.1205M49.8578 73.1205H55.8477" stroke="#337AB7" stroke-width="1.5" stroke-linecap="round"/>
<path d="M60.7254 38.478L61.7327 32.8874C62.4614 28.8436 66.322 26.1498 70.3688 26.8613V26.8613C74.8673 27.6522 77.606 32.2626 76.1487 36.5914L74.9658 40.1055M59.9118 38.8849C62.1786 34.545 64.125 28.3149 57.5868 24.9933C54.3905 23.3695 51.8324 23.5639 49.248 26.1257C49.1676 26.2054 49.0365 26.2054 48.9551 26.1267C46.5544 23.807 42.0786 23.9464 39.4155 28.9457C35.9035 35.5385 40.8177 40.323 41.8252 41.3498" stroke="#337AB7" stroke-width="1.5" stroke-linecap="round"/>
<path d="M52.0358 15.2872C48.7262 17.1823 47.9027 18.4327 47.9905 21.5234C48.0191 22.5296 49.0819 23.1643 49.9626 22.6767C52.9951 20.9979 53.0976 19.2332 52.7708 15.6715C52.738 15.3144 52.347 15.1091 52.0358 15.2872Z" stroke="#337AB7" stroke-width="1.5" stroke-linecap="round"/>
<path d="M66.5155 27.1616L64.6456 23.623C64.0218 22.4427 64.4072 20.9813 65.5319 20.2621V20.2621C66.6375 19.5551 68.0984 19.7961 68.9183 20.8209L69.2605 21.2487C69.3073 21.3072 69.4004 21.2573 69.3776 21.1859L67.3544 14.8677C66.8847 13.401 67.6494 11.8239 69.0919 11.2845V11.2845C70.7139 10.6779 72.501 11.6263 72.908 13.3094L73.0845 14.0398C73.1026 14.1145 73.2075 14.1178 73.2302 14.0444L74.8968 8.65993C75.2584 7.49164 76.427 6.76964 77.6336 6.969V6.969C79.2238 7.23174 80.1302 8.93331 79.4611 10.3996L77.7611 14.1245C77.7237 14.2065 77.7877 14.2987 77.8777 14.2922L80.229 14.1225C81.3904 14.0387 82.5036 14.601 83.1254 15.5855V15.5855C84.0754 17.0896 83.5956 19.0813 82.0648 19.9878L76.9318 23.0274C76.8384 23.0828 76.8608 23.2238 76.9667 23.2475L78.9941 23.7007C79.9454 23.9134 80.6808 24.6688 80.8678 25.6256V25.6256C81.1275 26.9546 80.262 28.2429 78.9334 28.5048L74.8417 29.3117" stroke="#337AB7" stroke-width="1.5" stroke-linecap="round"/>
</svg>
