<svg width="104" height="103" viewBox="0 0 104 103" fill="none" xmlns="http://www.w3.org/2000/svg">
<rect x="0.896484" y="0.0958862" width="102.542" height="102.542" rx="15" fill="white"/>
<rect x="33.958" y="28.6743" width="36.5154" height="36.5154" rx="3.25" stroke="#337AB7" stroke-width="1.5"/>
<rect x="14.6504" y="68.2776" width="77.1051" height="19.598" rx="9.79901" stroke="#337AB7" stroke-width="1.5"/>
<rect x="17.7363" y="70.9708" width="71.1857" height="14.2115" rx="7.10573" stroke="#337AB7" stroke-width="1.5"/>
<rect x="47.3389" y="28.6743" width="9.75206" height="17.7484" stroke="#337AB7" stroke-width="1.5"/>
<circle cx="44.1227" cy="78.0765" r="4.61102" stroke="#337AB7" stroke-width="1.5"/>
<circle cx="26.154" cy="78.0765" r="4.61102" stroke="#337AB7" stroke-width="1.5"/>
<circle cx="62.9479" cy="78.0765" r="4.61102" stroke="#337AB7" stroke-width="1.5"/>
<circle cx="79.1725" cy="78.0765" r="4.61102" stroke="#337AB7" stroke-width="1.5"/>
<mask id="path-10-inside-1_102_4" fill="white">
<path fill-rule="evenodd" clip-rule="evenodd" d="M94.0201 16.1606H92.5201H71.918H70.418C70.418 16.6718 70.461 17.173 70.5436 17.6606C71.24 21.7695 74.7483 24.9217 79.0197 25.0682L78.4167 35.6476C78.2643 35.9981 78.159 36.3738 78.1088 36.7667L74.2955 41.196C73.3999 42.2364 73.4087 43.778 74.3162 44.8081L77.6324 48.5724C78.4253 49.4724 79.8087 49.5292 80.6727 48.6972C81.4948 47.9055 81.5364 46.603 80.7665 45.7604L78.9744 43.7993C78.55 43.3349 78.5369 42.6274 78.9438 42.1476L80.0578 40.834C80.687 41.2193 81.4269 41.4414 82.2187 41.4414C83.0109 41.4414 83.7511 41.2191 84.3805 40.8334L85.495 42.1476C85.902 42.6274 85.8889 43.3349 85.4645 43.7993L83.6724 45.7604C82.9025 46.603 82.9441 47.9055 83.7662 48.6972C84.6301 49.5292 86.0136 49.4724 86.8064 48.5724L90.1218 44.8091C91.0298 43.7784 91.038 42.2357 90.141 41.1954L86.3297 36.7753C86.2759 36.3483 86.1573 35.9416 85.9838 35.5653L85.4181 25.0682C89.6896 24.9218 93.1981 21.7696 93.8944 17.6606C93.9771 17.173 94.0201 16.6718 94.0201 16.1606ZM84.3846 33.7646L83.9162 25.0736H80.5218L80.0255 33.7815C80.6615 33.3839 81.4133 33.1542 82.2187 33.1542C83.0126 33.1542 83.7544 33.3774 84.3846 33.7646ZM86.0857 38.7893C85.9401 39.1665 85.741 39.517 85.4976 39.8315L86.639 41.1774C87.5343 42.2329 87.5055 43.7894 86.5718 44.8111L84.7797 46.7723C84.5583 47.0146 84.5703 47.3891 84.8067 47.6168C85.0551 47.856 85.4529 47.8397 85.6809 47.5809L88.9963 43.8176C89.409 43.3491 89.4127 42.6478 89.005 42.175L86.0857 38.7893ZM78.9405 39.8324C78.6959 39.5166 78.496 39.1644 78.3501 38.7854L75.4323 42.1747C75.0252 42.6476 75.0292 43.3483 75.4417 43.8165L78.758 47.5809C78.9859 47.8397 79.3837 47.856 79.6322 47.6168C79.8686 47.3891 79.8805 47.0146 79.6591 46.7723L77.8671 44.8111C76.9334 43.7894 76.9046 42.2329 77.7998 41.1774L78.9405 39.8324ZM92.3683 17.6606H72.0698C72.7634 21.0356 75.7507 23.5736 79.3309 23.5736H85.1072C88.6873 23.5736 91.6747 21.0356 92.3683 17.6606ZM84.8623 37.2978C84.8623 38.7578 83.6787 39.9414 82.2187 39.9414C80.7586 39.9414 79.5751 38.7578 79.5751 37.2978C79.5751 35.8377 80.7586 34.6542 82.2187 34.6542C83.6787 34.6542 84.8623 35.8377 84.8623 37.2978Z"/>
</mask>
<path fill-rule="evenodd" clip-rule="evenodd" d="M94.0201 16.1606H92.5201H71.918H70.418C70.418 16.6718 70.461 17.173 70.5436 17.6606C71.24 21.7695 74.7483 24.9217 79.0197 25.0682L78.4167 35.6476C78.2643 35.9981 78.159 36.3738 78.1088 36.7667L74.2955 41.196C73.3999 42.2364 73.4087 43.778 74.3162 44.8081L77.6324 48.5724C78.4253 49.4724 79.8087 49.5292 80.6727 48.6972C81.4948 47.9055 81.5364 46.603 80.7665 45.7604L78.9744 43.7993C78.55 43.3349 78.5369 42.6274 78.9438 42.1476L80.0578 40.834C80.687 41.2193 81.4269 41.4414 82.2187 41.4414C83.0109 41.4414 83.7511 41.2191 84.3805 40.8334L85.495 42.1476C85.902 42.6274 85.8889 43.3349 85.4645 43.7993L83.6724 45.7604C82.9025 46.603 82.9441 47.9055 83.7662 48.6972C84.6301 49.5292 86.0136 49.4724 86.8064 48.5724L90.1218 44.8091C91.0298 43.7784 91.038 42.2357 90.141 41.1954L86.3297 36.7753C86.2759 36.3483 86.1573 35.9416 85.9838 35.5653L85.4181 25.0682C89.6896 24.9218 93.1981 21.7696 93.8944 17.6606C93.9771 17.173 94.0201 16.6718 94.0201 16.1606ZM84.3846 33.7646L83.9162 25.0736H80.5218L80.0255 33.7815C80.6615 33.3839 81.4133 33.1542 82.2187 33.1542C83.0126 33.1542 83.7544 33.3774 84.3846 33.7646ZM86.0857 38.7893C85.9401 39.1665 85.741 39.517 85.4976 39.8315L86.639 41.1774C87.5343 42.2329 87.5055 43.7894 86.5718 44.8111L84.7797 46.7723C84.5583 47.0146 84.5703 47.3891 84.8067 47.6168C85.0551 47.856 85.4529 47.8397 85.6809 47.5809L88.9963 43.8176C89.409 43.3491 89.4127 42.6478 89.005 42.175L86.0857 38.7893ZM78.9405 39.8324C78.6959 39.5166 78.496 39.1644 78.3501 38.7854L75.4323 42.1747C75.0252 42.6476 75.0292 43.3483 75.4417 43.8165L78.758 47.5809C78.9859 47.8397 79.3837 47.856 79.6322 47.6168C79.8686 47.3891 79.8805 47.0146 79.6591 46.7723L77.8671 44.8111C76.9334 43.7894 76.9046 42.2329 77.7998 41.1774L78.9405 39.8324ZM92.3683 17.6606H72.0698C72.7634 21.0356 75.7507 23.5736 79.3309 23.5736H85.1072C88.6873 23.5736 91.6747 21.0356 92.3683 17.6606ZM84.8623 37.2978C84.8623 38.7578 83.6787 39.9414 82.2187 39.9414C80.7586 39.9414 79.5751 38.7578 79.5751 37.2978C79.5751 35.8377 80.7586 34.6542 82.2187 34.6542C83.6787 34.6542 84.8623 35.8377 84.8623 37.2978Z" fill="white"/>
<path d="M94.0201 16.1606H95.5201V14.6606H94.0201V16.1606ZM70.418 16.1606V14.6606H68.918V16.1606H70.418ZM70.5436 17.6606L69.0647 17.9113L70.5436 17.6606ZM79.0197 25.0682L80.5172 25.1536L80.6045 23.6217L79.0711 23.5691L79.0197 25.0682ZM78.4167 35.6476L79.7924 36.2455L79.899 36.0001L79.9142 35.733L78.4167 35.6476ZM78.1088 36.7667L79.2456 37.7453L79.5395 37.4039L79.5967 36.957L78.1088 36.7667ZM74.2955 41.196L75.4323 42.1747L75.4323 42.1747L74.2955 41.196ZM74.3162 44.8081L73.1906 45.7996L73.1906 45.7996L74.3162 44.8081ZM77.6324 48.5724L76.5069 49.564L76.5069 49.564L77.6324 48.5724ZM80.6727 48.6972L81.7132 49.7776L81.7132 49.7776L80.6727 48.6972ZM80.7665 45.7604L79.6591 46.7723L79.6591 46.7723L80.7665 45.7604ZM78.9744 43.7993L77.8671 44.8111L77.8671 44.8111L78.9744 43.7993ZM78.9438 42.1476L80.0878 43.1178L80.0878 43.1178L78.9438 42.1476ZM80.0578 40.834L80.8412 39.5548L79.7451 38.8837L78.9139 39.8638L80.0578 40.834ZM84.3805 40.8334L85.5245 39.8632L84.693 38.8828L83.5968 39.5544L84.3805 40.8334ZM85.495 42.1476L84.3511 43.1178L84.3511 43.1178L85.495 42.1476ZM85.4645 43.7993L86.5718 44.8111L86.5718 44.8111L85.4645 43.7993ZM83.6724 45.7604L84.7797 46.7723L84.7797 46.7723L83.6724 45.7604ZM83.7662 48.6972L82.7257 49.7776L82.7257 49.7776L83.7662 48.6972ZM86.8064 48.5724L87.932 49.564L87.932 49.564L86.8064 48.5724ZM90.1218 44.8091L91.2473 45.8007L91.2473 45.8007L90.1218 44.8091ZM90.141 41.1954L89.005 42.175L89.005 42.175L90.141 41.1954ZM86.3297 36.7753L84.8414 36.9625L84.8979 37.4118L85.1936 37.7548L86.3297 36.7753ZM85.9838 35.5653L84.486 35.6461L84.5015 35.9326L84.6216 36.1932L85.9838 35.5653ZM85.4181 25.0682L85.3667 23.5691L83.8379 23.6215L83.9203 25.149L85.4181 25.0682ZM93.8944 17.6606L95.3733 17.9113L95.3733 17.9113L93.8944 17.6606ZM84.3846 33.7646L83.5994 35.0427L86.0364 36.5398L85.8824 33.6839L84.3846 33.7646ZM83.9162 25.0736L85.414 24.9928L85.3375 23.5736H83.9162V25.0736ZM80.5218 25.0736V23.5736H79.1049L79.0242 24.9882L80.5218 25.0736ZM80.0255 33.7815L78.5279 33.6962L78.363 36.5896L80.8205 35.0535L80.0255 33.7815ZM85.4976 39.8315L84.3113 38.9135L83.5674 39.8747L84.3536 40.8017L85.4976 39.8315ZM86.0857 38.7893L87.2217 37.8098L85.5875 35.9145L84.6863 38.2492L86.0857 38.7893ZM86.639 41.1774L87.783 40.2071L87.783 40.2071L86.639 41.1774ZM86.5718 44.8111L85.4645 43.7993L85.4645 43.7993L86.5718 44.8111ZM84.7797 46.7723L83.6724 45.7604L83.6724 45.7604L84.7797 46.7723ZM84.8067 47.6168L83.7662 48.6972L83.7662 48.6972L84.8067 47.6168ZM85.6809 47.5809L84.5554 46.5893L84.5554 46.5893L85.6809 47.5809ZM88.9963 43.8176L87.8707 42.826L87.8707 42.826L88.9963 43.8176ZM89.005 42.175L87.869 43.1545L87.869 43.1545L89.005 42.175ZM78.3501 38.7854L79.7501 38.2467L78.8495 35.9063L77.2134 37.8068L78.3501 38.7854ZM78.9405 39.8324L80.0845 40.8026L80.8709 39.8754L80.1265 38.9141L78.9405 39.8324ZM75.4323 42.1747L76.5691 43.1533L76.5691 43.1533L75.4323 42.1747ZM75.4417 43.8165L76.5672 42.825L76.5672 42.825L75.4417 43.8165ZM78.758 47.5809L79.8835 46.5893L79.8835 46.5893L78.758 47.5809ZM79.6322 47.6168L80.6727 48.6972L80.6727 48.6972L79.6322 47.6168ZM79.6591 46.7723L80.7665 45.7604L80.7665 45.7604L79.6591 46.7723ZM77.8671 44.8111L78.9744 43.7993L78.9744 43.7993L77.8671 44.8111ZM77.7998 41.1774L76.6559 40.2071L76.6559 40.2071L77.7998 41.1774ZM72.0698 17.6606V16.1606H70.2302L70.6005 17.9626L72.0698 17.6606ZM92.3683 17.6606L93.8376 17.9626L94.2079 16.1606H92.3683V17.6606ZM92.5201 17.6606H94.0201V14.6606H92.5201V17.6606ZM71.918 17.6606H92.5201V14.6606H71.918V17.6606ZM70.418 17.6606H71.918V14.6606H70.418V17.6606ZM72.0226 17.41C71.9539 17.0048 71.918 16.5875 71.918 16.1606H68.918C68.918 16.7562 68.9681 17.3411 69.0647 17.9113L72.0226 17.41ZM79.0711 23.5691C75.5211 23.4473 72.6015 20.826 72.0226 17.41L69.0647 17.9113C69.8785 22.7131 73.9754 26.396 78.9682 26.5673L79.0711 23.5691ZM79.9142 35.733L80.5172 25.1536L77.5221 24.9829L76.9191 35.5623L79.9142 35.733ZM77.041 35.0498C76.8331 35.5281 76.6894 36.0409 76.6209 36.5763L79.5967 36.957C79.6287 36.7068 79.6956 36.4681 79.7924 36.2455L77.041 35.0498ZM76.972 35.788L73.1588 40.2174L75.4323 42.1747L79.2456 37.7453L76.972 35.788ZM73.1588 40.2174C71.7746 41.8253 71.7882 44.2077 73.1906 45.7996L75.4417 43.8165C75.0292 43.3483 75.0252 42.6476 75.4323 42.1747L73.1588 40.2174ZM73.1906 45.7996L76.5069 49.564L78.758 47.5809L75.4417 43.8165L73.1906 45.7996ZM76.5069 49.564C77.8647 51.1052 80.2337 51.2024 81.7132 49.7776L79.6322 47.6167C79.3838 47.856 78.9859 47.8397 78.758 47.5809L76.5069 49.564ZM81.7132 49.7776C83.121 48.4219 83.1922 46.1914 81.8738 44.7486L79.6591 46.7723C79.8805 47.0146 79.8686 47.3891 79.6322 47.6168L81.7132 49.7776ZM81.8738 44.7486L80.0817 42.7874L77.8671 44.8111L79.6591 46.7723L81.8738 44.7486ZM80.0817 42.7874C80.1666 42.8803 80.1692 43.0218 80.0878 43.1178L77.7998 41.1774C76.9046 42.2329 76.9334 43.7894 77.8671 44.8111L80.0817 42.7874ZM80.0878 43.1178L81.2018 41.8042L78.9139 39.8638L77.7998 41.1774L80.0878 43.1178ZM79.2745 42.1132C80.1327 42.6388 81.1426 42.9414 82.2187 42.9414V39.9414C81.7112 39.9414 81.2413 39.7998 80.8412 39.5548L79.2745 42.1132ZM82.2187 42.9414C83.2953 42.9414 84.3057 42.6384 85.1642 42.1124L83.5968 39.5544C83.1966 39.7997 82.7265 39.9414 82.2187 39.9414V42.9414ZM83.2365 41.8036L84.3511 43.1178L86.639 41.1774L85.5245 39.8632L83.2365 41.8036ZM84.3511 43.1178C84.2697 43.0218 84.2723 42.8803 84.3572 42.7874L86.5718 44.8111C87.5055 43.7894 87.5343 42.2329 86.639 41.1774L84.3511 43.1178ZM84.3572 42.7874L82.5651 44.7486L84.7797 46.7723L86.5718 44.8111L84.3572 42.7874ZM82.5651 44.7486C81.2467 46.1914 81.3179 48.4219 82.7257 49.7776L84.8067 47.6168C84.5703 47.3891 84.5583 47.0146 84.7797 46.7723L82.5651 44.7486ZM82.7257 49.7776C84.2051 51.2024 86.5742 51.1052 87.932 49.564L85.6809 47.5809C85.4529 47.8397 85.0551 47.856 84.8067 47.6167L82.7257 49.7776ZM87.932 49.564L91.2473 45.8007L88.9963 43.8176L85.6809 47.5809L87.932 49.564ZM91.2473 45.8007C92.6506 44.2078 92.6633 41.8237 91.277 40.2159L89.005 42.175C89.4127 42.6478 89.409 43.3491 88.9963 43.8176L91.2473 45.8007ZM91.277 40.2159L87.4657 35.7957L85.1936 37.7548L89.005 42.175L91.277 40.2159ZM87.8179 36.588C87.7447 36.0061 87.5828 35.451 87.3461 34.9375L84.6216 36.1932C84.7317 36.4323 84.8072 36.6906 84.8414 36.9625L87.8179 36.588ZM83.9203 25.149L84.486 35.6461L87.4817 35.4846L86.9159 24.9875L83.9203 25.149ZM92.4155 17.41C91.8366 20.826 88.9168 23.4474 85.3667 23.5691L85.4695 26.5674C90.4624 26.3962 94.5596 22.7132 95.3733 17.9113L92.4155 17.41ZM92.5201 16.1606C92.5201 16.5875 92.4842 17.0048 92.4155 17.41L95.3733 17.9113C95.47 17.3411 95.5201 16.7562 95.5201 16.1606H92.5201ZM85.8824 33.6839L85.414 24.9928L82.4184 25.1543L82.8868 33.8454L85.8824 33.6839ZM83.9162 23.5736H80.5218V26.5736H83.9162V23.5736ZM79.0242 24.9882L78.5279 33.6962L81.523 33.8669L82.0194 25.1589L79.0242 24.9882ZM82.2187 31.6542C81.124 31.6542 80.0979 31.9673 79.2304 32.5096L80.8205 35.0535C81.2251 34.8006 81.7025 34.6542 82.2187 34.6542V31.6542ZM85.1698 32.4865C84.3101 31.9584 83.2976 31.6542 82.2187 31.6542V34.6542C82.7276 34.6542 83.1986 34.7965 83.5994 35.0427L85.1698 32.4865ZM86.6839 40.7495C87.015 40.3217 87.2864 39.8442 87.4851 39.3295L84.6863 38.2492C84.5939 38.4888 84.467 38.7123 84.3113 38.9135L86.6839 40.7495ZM87.783 40.2071L86.6416 38.8613L84.3536 40.8017L85.495 42.1476L87.783 40.2071ZM87.6791 45.823C89.1221 44.2439 89.1666 41.8385 87.783 40.2071L85.495 42.1476C85.902 42.6274 85.8889 43.3349 85.4645 43.7993L87.6791 45.823ZM85.887 47.7841L87.6791 45.823L85.4645 43.7993L83.6724 45.7604L85.887 47.7841ZM85.8472 46.5363C86.1965 46.8727 86.2142 47.4262 85.887 47.7841L83.6724 45.7604C82.9025 46.603 82.9441 47.9055 83.7662 48.6972L85.8472 46.5363ZM84.5554 46.5893C84.8923 46.2069 85.4801 46.1828 85.8472 46.5363L83.7662 48.6972C84.6301 49.5292 86.0136 49.4724 86.8064 48.5724L84.5554 46.5893ZM87.8707 42.826L84.5554 46.5893L86.8064 48.5724L90.1218 44.8091L87.8707 42.826ZM87.869 43.1545C87.7875 43.0599 87.7882 42.9197 87.8707 42.826L90.1218 44.8091C91.0298 43.7784 91.038 42.2357 90.141 41.1954L87.869 43.1545ZM84.9497 39.7689L87.869 43.1545L90.141 41.1954L87.2217 37.8098L84.9497 39.7689ZM76.9502 39.3241C77.1492 39.8414 77.4218 40.3211 77.7545 40.7508L80.1265 38.9141C79.97 38.712 79.8427 38.4875 79.7501 38.2467L76.9502 39.3241ZM76.5691 43.1533L79.4869 39.7641L77.2134 37.8068L74.2955 41.196L76.5691 43.1533ZM76.5672 42.825C76.6497 42.9186 76.6505 43.0588 76.5691 43.1533L74.2955 41.196C73.3999 42.2364 73.4087 43.778 74.3162 44.8081L76.5672 42.825ZM79.8835 46.5893L76.5672 42.825L74.3162 44.8081L77.6324 48.5724L79.8835 46.5893ZM78.5917 46.5363C78.9588 46.1828 79.5466 46.2069 79.8835 46.5893L77.6324 48.5724C78.4253 49.4724 79.8087 49.5292 80.6727 48.6972L78.5917 46.5363ZM78.5518 47.7841C78.2247 47.4262 78.2424 46.8727 78.5917 46.5363L80.6727 48.6972C81.4948 47.9055 81.5364 46.603 80.7665 45.7604L78.5518 47.7841ZM76.7597 45.823L78.5518 47.7841L80.7665 45.7604L78.9744 43.7993L76.7597 45.823ZM76.6559 40.2071C75.2723 41.8385 75.3168 44.2439 76.7598 45.823L78.9744 43.7993C78.55 43.3349 78.5369 42.6274 78.9438 42.1476L76.6559 40.2071ZM77.7965 38.8622L76.6559 40.2071L78.9438 42.1476L80.0845 40.8026L77.7965 38.8622ZM72.0698 19.1606H92.3683V16.1606H72.0698V19.1606ZM79.3309 22.0736C76.4769 22.0736 74.0922 20.0501 73.5391 17.3587L70.6005 17.9626C71.4345 22.021 75.0245 25.0736 79.3309 25.0736V22.0736ZM85.1072 22.0736H79.3309V25.0736H85.1072V22.0736ZM90.899 17.3587C90.3459 20.0501 87.9611 22.0736 85.1072 22.0736V25.0736C89.4136 25.0736 93.0036 22.021 93.8376 17.9626L90.899 17.3587ZM82.2187 41.4414C84.5071 41.4414 86.3623 39.5862 86.3623 37.2978H83.3623C83.3623 37.9294 82.8503 38.4414 82.2187 38.4414V41.4414ZM78.0751 37.2978C78.0751 39.5862 79.9302 41.4414 82.2187 41.4414V38.4414C81.5871 38.4414 81.0751 37.9294 81.0751 37.2978H78.0751ZM82.2187 33.1542C79.9302 33.1542 78.0751 35.0093 78.0751 37.2978H81.0751C81.0751 36.6662 81.5871 36.1542 82.2187 36.1542V33.1542ZM86.3623 37.2978C86.3623 35.0093 84.5071 33.1542 82.2187 33.1542V36.1542C82.8503 36.1542 83.3623 36.6662 83.3623 37.2978H86.3623Z" fill="#337AB7" mask="url(#path-10-inside-1_102_4)"/>
<path d="M43.2807 29.1853C43.2807 23.8899 38.988 20.0673 33.6926 20.0673C28.3972 20.0673 24.1045 24.3601 24.1045 29.6554C24.1045 34.9508 27.9271 39.2435 33.2225 39.2435" stroke="#337AB7" stroke-width="1.5"/>
<path d="M33.2716 48.6412L31.4843 48.2671C30.7723 48.118 30.2624 47.4903 30.2624 46.7629V46.7629C30.2624 46.1242 29.8673 45.5521 29.27 45.3258L26.5173 44.2831C25.9683 44.0751 25.3529 44.1425 24.8618 44.4642V44.4642C24.1347 44.9405 23.1733 44.8414 22.5587 44.2269L19.8978 41.5661C19.2154 40.8837 19.1279 39.8075 19.6911 39.0239V39.0239C20.0853 38.4756 20.171 37.7636 19.9183 37.1374L19.1184 35.155C18.8662 34.5303 18.3165 34.0744 17.6559 33.9423L17.5228 33.9157C16.588 33.7287 15.915 32.9079 15.915 31.9545V28.2321C15.915 27.3282 16.6478 26.5955 17.5516 26.5955V26.5955C18.2479 26.5955 18.8679 26.1549 19.0971 25.4975L19.9939 22.924C20.2017 22.3277 20.1157 21.6682 19.7619 21.1452L19.675 21.0167C19.1222 20.1996 19.2478 19.1016 19.9706 18.4304L22.4916 16.0897C23.1371 15.4903 24.1234 15.4519 24.8135 15.9992V15.9992C25.3251 16.4049 26.0174 16.4987 26.6185 16.2437L29.3129 15.1006C29.8885 14.8564 30.2624 14.2916 30.2624 13.6663V13.6663C30.2624 12.8058 30.9599 12.1083 31.8204 12.1083H36.0287C36.9797 12.1083 37.7507 12.8793 37.7507 13.8304V13.8304C37.7507 14.56 38.2105 15.2104 38.8984 15.4538L41.32 16.3107C41.9312 16.5269 42.6103 16.4194 43.1248 16.025V16.025C43.8622 15.4597 44.8989 15.5049 45.5842 16.1323L48.0437 18.384C48.7973 19.0738 48.9095 20.2211 48.3043 21.0442C48.2974 21.0535 48.2906 21.0628 48.2838 21.072C47.8708 21.6338 47.7802 22.37 48.0446 23.0151L48.9424 25.2059C49.2057 25.8482 49.7946 26.2988 50.4834 26.3849V26.3849C51.4458 26.5052 52.168 27.3233 52.168 28.2932V29.185" stroke="#337AB7" stroke-width="1.5"/>
</svg>
