<svg width="104" height="107" viewBox="0 0 104 107" fill="none" xmlns="http://www.w3.org/2000/svg">
<path d="M53.9419 25.3713C54.9469 24.3818 54.9482 22.7786 53.9443 21.7905C52.9406 20.8024 51.3121 20.8035 50.3069 21.793C49.3017 22.7825 49.3006 24.3856 50.3043 25.3737C51.3082 26.3618 52.9367 26.3607 53.9419 25.3713Z" fill="#337AB7"/>
<path d="M53.8584 31.5521C54.8198 30.6056 54.8209 29.0721 53.8607 28.127C52.9007 27.1818 51.3429 27.1829 50.3815 28.1294C49.42 29.0758 49.419 30.6093 50.379 31.5544C51.3392 32.4996 52.8969 32.4985 53.8584 31.5521Z" fill="#337AB7"/>
<path d="M53.7917 37.6237C54.7181 36.7117 54.7192 35.2341 53.7939 34.3232C52.8687 33.4124 51.3676 33.4135 50.4411 34.3255C49.5147 35.2375 49.5136 36.7152 50.4388 37.626C51.3641 38.5368 52.8652 38.5358 53.7917 37.6237Z" fill="#337AB7"/>
<path d="M53.7238 43.5399C54.6066 42.6708 54.6076 41.2628 53.7261 40.395C52.8444 39.5272 51.4142 39.5281 50.5313 40.3971C49.6486 41.2662 49.6476 42.6741 50.5292 43.542C51.4107 44.4098 52.841 44.4088 53.7238 43.5399Z" fill="#337AB7"/>
<path d="M53.656 49.3001C54.4951 48.4741 54.496 47.1359 53.6581 46.3111C52.8202 45.4861 51.4607 45.4871 50.6216 46.3131C49.7826 47.1391 49.7816 48.4774 50.6196 49.3023C51.4574 50.1271 52.8169 50.1261 53.656 49.3001Z" fill="#337AB7"/>
<path d="M53.5893 55.1229C54.3934 54.3314 54.3944 53.0488 53.5913 52.2584C52.7883 51.4679 51.4854 51.4687 50.6813 52.2603C49.8772 53.0519 49.8763 54.3344 50.6794 55.125C51.4823 55.9154 52.7851 55.9145 53.5893 55.1229Z" fill="#337AB7"/>
<path d="M53.5215 61.1946C54.2819 60.446 54.2828 59.2332 53.5233 58.4856C52.764 57.7381 51.532 57.739 50.7716 58.4875C50.0111 59.2361 50.0103 60.4489 50.7696 61.1964C51.529 61.944 52.7611 61.9431 53.5215 61.1946Z" fill="#337AB7"/>
<path d="M53.4547 67.0173C54.1802 66.3032 54.181 65.1461 53.4566 64.4329C52.7321 63.7198 51.5567 63.7206 50.8313 64.4347C50.1057 65.1488 50.105 66.3059 50.8294 67.0191C51.5539 67.7322 52.7292 67.7315 53.4547 67.0173Z" fill="#337AB7"/>
<path d="M53.387 72.6841C54.0688 72.013 54.0695 70.9257 53.3887 70.2555C52.7078 69.5853 51.6032 69.5861 50.9215 70.2572C50.2397 70.9283 50.239 72.0157 50.9198 72.6858C51.6007 73.3561 52.7052 73.3553 53.387 72.6841Z" fill="#337AB7"/>
<path d="M53.3035 79.0518C53.9416 78.4238 53.9423 77.406 53.3051 76.7788C52.6679 76.1515 51.6342 76.1523 50.9961 76.7804C50.358 77.4085 50.3573 78.4262 50.9945 79.0535C51.6317 79.6806 52.6655 79.6799 53.3035 79.0518Z" fill="#337AB7"/>
<path d="M53.2353 85.6218C53.8384 85.0281 53.8391 84.0662 53.2368 83.4732C52.6345 82.8804 51.6574 82.8811 51.0543 83.4748C50.4512 84.0685 50.4506 85.0304 51.0528 85.6232C51.6551 86.2161 52.6322 86.2154 53.2353 85.6218Z" fill="#337AB7"/>
<path d="M47.6441 31.5716C48.6055 30.6252 48.6066 29.0917 47.6464 28.1466C46.6863 27.2014 45.1285 27.2025 44.1671 28.149C43.2056 29.0954 43.2046 30.6289 44.1647 31.574C45.1249 32.5192 46.6825 32.5181 47.6441 31.5716Z" fill="#337AB7"/>
<path d="M47.5758 37.6436C48.5023 36.7317 48.5033 35.254 47.5781 34.3431C46.6529 33.4324 45.1519 33.4335 44.2253 34.3454C43.2988 35.2575 43.2978 36.7352 44.223 37.6459C45.1482 38.5568 46.6493 38.5557 47.5758 37.6436Z" fill="#337AB7"/>
<path d="M47.4924 43.544C48.3751 42.6751 48.3762 41.267 47.4946 40.3993C46.6131 39.5314 45.1827 39.5323 44.3 40.4014C43.4171 41.2704 43.4162 42.6784 44.2978 43.5462C45.1793 44.414 46.6097 44.413 47.4924 43.544Z" fill="#337AB7"/>
<path d="M47.4261 49.3044C48.2652 48.4784 48.266 47.1401 47.4281 46.3152C46.5902 45.4904 45.2307 45.4913 44.3916 46.3173C43.5525 47.1433 43.5517 48.4815 44.3895 49.3065C45.2275 50.1314 46.587 50.1304 47.4261 49.3044Z" fill="#337AB7"/>
<path d="M47.3579 55.1271C48.1619 54.3355 48.1629 53.053 47.3598 52.2625C46.5568 51.472 45.2541 51.4729 44.4499 52.2645C43.6458 53.0561 43.6448 54.3387 44.4479 55.1291C45.2509 55.9196 46.5538 55.9187 47.3579 55.1271Z" fill="#337AB7"/>
<path d="M47.29 61.1988C48.0505 60.4502 48.0513 59.2374 47.292 58.4899C46.5325 57.7423 45.3005 57.7431 44.5401 58.4917C43.7797 59.2403 43.7788 60.4531 44.5383 61.2007C45.2976 61.9482 46.5296 61.9473 47.29 61.1988Z" fill="#337AB7"/>
<path d="M47.2389 67.0371C47.9643 66.323 47.9652 65.1659 47.2408 64.4527C46.5163 63.7396 45.3409 63.7404 44.6155 64.4545C43.8899 65.1686 43.8892 66.3257 44.6136 67.0389C45.3381 67.752 46.5135 67.7512 47.2389 67.0371Z" fill="#337AB7"/>
<path d="M47.1556 72.6883C47.8373 72.0172 47.838 70.9299 47.1573 70.2596C46.4764 69.5894 45.3718 69.5901 44.69 70.2613C44.0083 70.9324 44.0075 72.0198 44.6883 72.69C45.3692 73.3602 46.4738 73.3595 47.1556 72.6883Z" fill="#337AB7"/>
<path d="M47.0721 79.056C47.71 78.4279 47.7108 77.4103 47.0737 76.783C46.4364 76.1558 45.4027 76.1565 44.7646 76.7845C44.1266 77.4127 44.1259 78.4303 44.763 79.0576C45.4002 79.6848 46.434 79.6842 47.0721 79.056Z" fill="#337AB7"/>
<path d="M41.3444 37.6478C42.2708 36.7357 42.2719 35.258 41.3467 34.3473C40.4214 33.4364 38.9203 33.4375 37.9939 34.3495C37.0674 35.2615 37.0663 36.7392 37.9916 37.65C38.9168 38.5608 40.4179 38.5597 41.3444 37.6478Z" fill="#337AB7"/>
<path d="M41.2932 43.5482C42.176 42.6792 42.1769 41.2711 41.2954 40.4034C40.4138 39.5356 38.9835 39.5366 38.1007 40.4055C37.2179 41.2745 37.217 42.6825 38.0985 43.5503C38.9801 44.4182 40.4104 44.4173 41.2932 43.5482Z" fill="#337AB7"/>
<path d="M41.2102 49.3242C42.0493 48.4982 42.0502 47.16 41.2123 46.3351C40.3744 45.5101 39.0149 45.5111 38.1758 46.3371C37.3368 47.1631 37.3358 48.5014 38.1738 49.3263C39.0116 50.1511 40.3711 50.1502 41.2102 49.3242Z" fill="#337AB7"/>
<path d="M41.1586 55.1313C41.9627 54.3397 41.9637 53.0572 41.1606 52.2668C40.3576 51.4762 39.0547 51.4772 38.2506 52.2687C37.4466 53.0602 37.4456 54.3428 38.2487 55.1333C39.0517 55.9237 40.3544 55.9229 41.1586 55.1313Z" fill="#337AB7"/>
<path d="M41.0757 61.2186C41.8361 60.47 41.837 59.2572 41.0776 58.5097C40.3182 57.7621 39.0862 57.763 38.3257 58.5115C37.5653 59.2601 37.5645 60.4729 38.3239 61.2205C39.0832 61.968 40.3153 61.9672 41.0757 61.2186Z" fill="#337AB7"/>
<path d="M41.0075 67.0412C41.7329 66.3271 41.7337 65.1701 41.0093 64.4569C40.2849 63.7437 39.1094 63.7446 38.384 64.4587C37.6585 65.1729 37.6577 66.3299 38.3822 67.043C39.1066 67.7563 40.2821 67.7554 41.0075 67.0412Z" fill="#337AB7"/>
<path d="M40.9411 72.7084C41.6228 72.0372 41.6236 70.9499 40.9428 70.2796C40.262 69.6094 39.1574 69.6102 38.4757 70.2813C37.7939 70.9524 37.7932 72.0398 38.474 72.71C39.1547 73.3802 40.2593 73.3795 40.9411 72.7084Z" fill="#337AB7"/>
<path d="M35.0618 43.5527C35.9445 42.6837 35.9455 41.2757 35.064 40.4079C34.1823 39.54 32.7521 39.541 31.8692 40.4101C30.9865 41.2791 30.9855 42.6871 31.867 43.5549C32.7487 44.4226 34.1789 44.4217 35.0618 43.5527Z" fill="#337AB7"/>
<path d="M34.9803 49.3285C35.8194 48.5025 35.8203 47.1643 34.9823 46.3393C34.1444 45.5145 32.7849 45.5155 31.9458 46.3415C31.1067 47.1675 31.1059 48.5058 31.9437 49.3306C32.7817 50.1555 34.1412 50.1545 34.9803 49.3285Z" fill="#337AB7"/>
<path d="M34.9273 55.1354C35.7313 54.3438 35.7322 53.0613 34.9292 52.2708C34.1262 51.4804 32.8233 51.4812 32.0193 52.2727C31.2151 53.0644 31.2142 54.3468 32.0172 55.1374C32.8203 55.9279 34.1231 55.9269 34.9273 55.1354Z" fill="#337AB7"/>
<path d="M34.8609 61.2385C35.6213 60.4899 35.6221 59.2771 34.8627 58.5295C34.1034 57.7821 32.8713 57.7829 32.1109 58.5315C31.3505 59.28 31.3496 60.4928 32.109 61.2403C32.8684 61.9879 34.1004 61.9871 34.8609 61.2385Z" fill="#337AB7"/>
<path d="M34.7926 67.0609C35.518 66.3468 35.5189 65.1897 34.7945 64.4766C34.07 63.7634 32.8946 63.7643 32.1692 64.4784C31.4436 65.1925 31.4429 66.3496 32.1673 67.0627C32.8918 67.7759 34.0672 67.775 34.7926 67.0609Z" fill="#337AB7"/>
<path d="M28.7639 49.3482C29.603 48.5222 29.604 47.184 28.766 46.3591C27.9281 45.5343 26.5686 45.5351 25.7295 46.3611C24.8904 47.1871 24.8895 48.5254 25.7274 49.3503C26.5654 50.1752 27.9249 50.1742 28.7639 49.3482Z" fill="#337AB7"/>
<path d="M28.7128 55.1554C29.5169 54.3638 29.5178 53.0813 28.7148 52.2908C27.9118 51.5002 26.609 51.5012 25.8048 52.2927C25.0007 53.0844 24.9998 54.3669 25.8028 55.1573C26.6058 55.9479 27.9087 55.9469 28.7128 55.1554Z" fill="#337AB7"/>
<path d="M28.6294 61.2425C29.3898 60.494 29.3907 59.2811 28.6313 58.5337C27.8719 57.7861 26.6399 57.7869 25.8795 58.5355C25.119 59.284 25.1182 60.4968 25.8776 61.2444C26.6369 61.9919 27.869 61.9911 28.6294 61.2425Z" fill="#337AB7"/>
<path d="M22.4965 55.1751C23.3006 54.3834 23.3015 53.101 22.4985 52.3105C21.6955 51.52 20.3927 51.5209 19.5885 52.3125C18.7844 53.104 18.7835 54.3866 19.5865 55.177C20.3895 55.9675 21.6924 55.9666 22.4965 55.1751Z" fill="#337AB7"/>
<path d="M60.0899 31.5478C61.0513 30.6014 61.0524 29.0679 60.0922 28.1228C59.1321 27.1776 57.5743 27.1787 56.6129 28.1251C55.6514 29.0716 55.6504 30.6051 56.6105 31.5502C57.5707 32.4954 59.1283 32.4943 60.0899 31.5478Z" fill="#337AB7"/>
<path d="M60.023 37.6195C60.9495 36.7074 60.9506 35.2297 60.0253 34.319C59.1002 33.4082 57.5991 33.4092 56.6726 34.3212C55.7462 35.2333 55.7451 36.711 56.6702 37.6217C57.5955 38.5325 59.0966 38.5315 60.023 37.6195Z" fill="#337AB7"/>
<path d="M59.9382 43.52C60.821 42.6511 60.8219 41.243 59.9404 40.3753C59.0588 39.5074 57.6286 39.5083 56.7457 40.3774C55.863 41.2464 55.862 42.6544 56.7435 43.5222C57.6252 44.39 59.0554 44.389 59.9382 43.52Z" fill="#337AB7"/>
<path d="M59.8719 49.2805C60.711 48.4545 60.7118 47.1162 59.874 46.2913C59.036 45.4664 57.6765 45.4673 56.8374 46.2933C55.9983 47.1193 55.9975 48.4576 56.8353 49.2825C57.6733 50.1073 59.0328 50.1065 59.8719 49.2805Z" fill="#337AB7"/>
<path d="M59.8056 55.103C60.6097 54.3114 60.6105 53.0289 59.8076 52.2384C59.0046 51.4479 57.7017 51.4488 56.8976 52.2403C56.0935 53.032 56.0926 54.3144 56.8957 55.105C57.6986 55.8955 59.0014 55.8945 59.8056 55.103Z" fill="#337AB7"/>
<path d="M59.7373 61.1749C60.4977 60.4263 60.4986 59.2135 59.7391 58.466C58.9798 57.7184 57.7478 57.7193 56.9874 58.4678C56.227 59.2164 56.2261 60.4292 56.9854 61.1768C57.7449 61.9243 58.9769 61.9235 59.7373 61.1749Z" fill="#337AB7"/>
<path d="M59.6691 66.9976C60.3946 66.2834 60.3953 65.1264 59.6709 64.4131C58.9464 63.7 57.7711 63.7008 57.0456 64.4149C56.3202 65.1291 56.3193 66.2861 57.0438 66.9993C57.7682 67.7125 58.9436 67.7117 59.6691 66.9976Z" fill="#337AB7"/>
<path d="M59.6027 72.6645C60.2844 71.9934 60.2852 70.906 59.6044 70.2357C58.9236 69.5656 57.819 69.5663 57.1373 70.2374C56.4555 70.9085 56.4548 71.9959 57.1356 72.6662C57.8164 73.3363 58.9209 73.3356 59.6027 72.6645Z" fill="#337AB7"/>
<path d="M59.5198 79.0319C60.1579 78.4038 60.1585 77.3862 59.5214 76.7589C58.8842 76.1317 57.8504 76.1323 57.2123 76.7605C56.5744 77.3886 56.5736 78.4062 57.2108 79.0335C57.848 79.6607 58.8817 79.66 59.5198 79.0319Z" fill="#337AB7"/>
<path d="M66.2379 37.5997C67.1644 36.6877 67.1654 35.2099 66.2402 34.2992C65.315 33.3884 63.814 33.3894 62.8874 34.3015C61.9609 35.2135 61.9599 36.6912 62.8851 37.602C63.8103 38.5127 65.3114 38.5118 66.2379 37.5997Z" fill="#337AB7"/>
<path d="M66.1696 43.5159C67.0524 42.6468 67.0534 41.2389 66.1718 40.371C65.2903 39.5032 63.86 39.5042 62.9772 40.3731C62.0944 41.2422 62.0934 42.6501 62.975 43.518C63.8566 44.3858 65.2868 44.3848 66.1696 43.5159Z" fill="#337AB7"/>
<path d="M66.0882 49.2606C66.9273 48.4346 66.9282 47.0963 66.0903 46.2714C65.2523 45.4466 63.8928 45.4475 63.0538 46.2734C62.2147 47.0994 62.2137 48.4377 63.0517 49.2626C63.8897 50.0875 65.2491 50.0866 66.0882 49.2606Z" fill="#337AB7"/>
<path d="M66.0199 55.0832C66.8241 54.2916 66.825 53.0091 66.022 52.2186C65.219 51.4282 63.9161 51.429 63.112 52.2207C62.3078 53.0122 62.307 54.2948 63.11 55.0852C63.9129 55.8757 65.2158 55.8748 66.0199 55.0832Z" fill="#337AB7"/>
<path d="M65.9687 61.1704C66.7292 60.4218 66.73 59.209 65.9707 58.4615C65.2113 57.714 63.9792 57.7148 63.2188 58.4634C62.4584 59.212 62.4575 60.4248 63.217 61.1723C63.9763 61.9198 65.2083 61.9189 65.9687 61.1704Z" fill="#337AB7"/>
<path d="M65.9006 66.9932C66.626 66.2791 66.6269 65.122 65.9024 64.4088C65.1779 63.6957 64.0026 63.6965 63.277 64.4106C62.5516 65.1247 62.5507 66.2818 63.2753 66.995C63.9997 67.7081 65.1751 67.7073 65.9006 66.9932Z" fill="#337AB7"/>
<path d="M65.8177 72.6447C66.4994 71.9736 66.5001 70.8862 65.8194 70.2161C65.1385 69.5458 64.0339 69.5465 63.3521 70.2176C62.6704 70.8887 62.6697 71.9761 63.3504 72.6464C64.0313 73.3165 65.1359 73.3158 65.8177 72.6447Z" fill="#337AB7"/>
<path d="M72.386 43.496C73.2687 42.6269 73.2697 41.219 72.3882 40.3511C71.5065 39.4833 70.0763 39.4843 69.1936 40.3532C68.3107 41.2223 68.3097 42.6302 69.1912 43.4981C70.0729 44.3659 71.5031 44.3649 72.386 43.496Z" fill="#337AB7"/>
<path d="M72.3181 49.2562C73.1572 48.4303 73.1581 47.092 72.3202 46.2672C71.4823 45.4423 70.1228 45.4432 69.2837 46.2692C68.4447 47.0952 68.4437 48.4335 69.2817 49.2584C70.1195 50.0832 71.479 50.0822 72.3181 49.2562Z" fill="#337AB7"/>
<path d="M72.2514 55.079C73.0555 54.2875 73.0565 53.0049 72.2534 52.2145C71.4504 51.4239 70.1475 51.4248 69.3434 52.2164C68.5393 53.008 68.5384 54.2905 69.3415 55.081C70.1444 55.8715 71.4472 55.8706 72.2514 55.079Z" fill="#337AB7"/>
<path d="M72.168 61.1663C72.9284 60.4177 72.9292 59.2049 72.1699 58.4574C71.4105 57.7098 70.1784 57.7107 69.418 58.4592C68.6576 59.2078 68.6568 60.4206 69.4162 61.1682C70.1755 61.9157 71.4075 61.9149 72.168 61.1663Z" fill="#337AB7"/>
<path d="M72.1169 66.9732C72.8423 66.2591 72.8431 65.102 72.1187 64.3889C71.3942 63.6757 70.2188 63.6766 69.4934 64.3907C68.7678 65.1048 68.7671 66.2619 69.4916 66.975C70.216 67.6882 71.3913 67.6873 72.1169 66.9732Z" fill="#337AB7"/>
<path d="M78.5339 49.2366C79.373 48.4106 79.374 47.0723 78.536 46.2474C77.6981 45.4226 76.3387 45.4235 75.4996 46.2495C74.6605 47.0755 74.6595 48.4137 75.4974 49.2387C76.3354 50.0634 77.6948 50.0626 78.5339 49.2366Z" fill="#337AB7"/>
<path d="M78.4657 55.0593C79.2699 54.2677 79.2708 52.9851 78.4678 52.1947C77.6648 51.4042 76.3619 51.4051 75.5578 52.1967C74.7536 52.9883 74.7528 54.2708 75.5558 55.0613C76.3587 55.8518 77.6616 55.8509 78.4657 55.0593Z" fill="#337AB7"/>
<path d="M78.3994 61.1622C79.1598 60.4136 79.1607 59.2008 78.4014 58.4532C77.6419 57.7057 76.4099 57.7065 75.6495 58.4551C74.8891 59.2037 74.8882 60.4165 75.6476 61.164C76.407 61.9116 77.639 61.9107 78.3994 61.1622Z" fill="#337AB7"/>
<path d="M84.6972 55.055C85.5013 54.2633 85.5022 52.9809 84.6992 52.1904C83.8962 51.3998 82.5933 51.4008 81.7892 52.1923C80.9852 52.9839 80.9842 54.2664 81.7872 55.0569C82.5903 55.8474 83.893 55.8465 84.6972 55.055Z" fill="#337AB7"/>
</svg>
