<svg width="46" height="47" viewBox="0 0 46 47" fill="none" xmlns="http://www.w3.org/2000/svg">
<rect x="0.369629" y="0.932007" width="45.1125" height="45.1125" rx="10" fill="#1F496E"/>
<path d="M24.9258 9.84314C24.9258 8.73857 24.0304 7.84314 22.9258 7.84314C21.8212 7.84314 20.9258 8.73857 20.9258 9.84314H24.9258ZM21.5116 31.9629C22.2926 32.744 23.5589 32.744 24.34 31.9629L37.0679 19.235C37.849 18.454 37.849 17.1876 37.0679 16.4066C36.2869 15.6256 35.0205 15.6256 34.2395 16.4066L22.9258 27.7203L11.6121 16.4066C10.831 15.6256 9.56469 15.6256 8.78365 16.4066C8.0026 17.1876 8.0026 18.454 8.78365 19.235L21.5116 31.9629ZM20.9258 9.84314V30.5487H24.9258V9.84314H20.9258Z" fill="white"/>
<path d="M36.0439 38.8126L9.80762 38.8126" stroke="white" stroke-width="3" stroke-linecap="round"/>
</svg>
