<svg width="15" height="16" viewBox="0 0 15 16" fill="none" xmlns="http://www.w3.org/2000/svg">
<path fill-rule="evenodd" clip-rule="evenodd" d="M4.3951 0.197051C5.17557 0.159774 5.42434 0.151093 7.41161 0.151093C9.39936 0.151093 9.64765 0.160284 10.4276 0.197051C11.2066 0.234328 11.7393 0.364543 12.2047 0.552973C12.6927 0.745416 13.1348 1.04688 13.5002 1.4364C13.8724 1.81904 14.1604 2.28206 14.3441 2.79319C14.5251 3.28035 14.649 3.83747 14.6846 4.65297C14.7202 5.47001 14.7285 5.73044 14.7285 7.81083C14.7285 9.89121 14.7202 10.1516 14.6846 10.9687C14.649 11.7842 14.5251 12.3413 14.3446 12.8285C14.1608 13.3394 13.8728 13.8022 13.5007 14.1847C13.1349 14.5749 12.6924 14.8762 12.2047 15.0682C11.7393 15.2576 11.2071 15.3873 10.4281 15.4246C9.64765 15.4619 9.39887 15.4706 7.41161 15.4706C5.42434 15.4706 5.17557 15.4619 4.3951 15.4246C3.6161 15.3873 3.08392 15.2576 2.61856 15.0687C2.13053 14.8762 1.68842 14.5748 1.32299 14.1853C0.950314 13.8023 0.662517 13.3391 0.479107 12.8285C0.298136 12.3413 0.174237 11.7842 0.138628 10.9687C0.103019 10.1516 0.0947266 9.89172 0.0947266 7.81083C0.0947266 5.72993 0.103507 5.47001 0.138628 4.65348C0.174237 3.83798 0.298624 3.28035 0.478619 2.79319C0.662447 2.28228 0.950422 1.81945 1.3225 1.43691C1.68834 1.04677 2.13077 0.745488 2.61856 0.553484C3.08392 0.364033 3.6161 0.234328 4.3951 0.197051ZM3.56825 7.71464C5.70127 6.74177 7.12362 6.10039 7.83529 5.79051C9.86727 4.90574 10.2895 4.75205 10.5647 4.74692C10.6252 4.74586 10.7606 4.76156 10.8482 4.83603C10.9222 4.89891 10.9426 4.98385 10.9524 5.04346C10.9621 5.10308 10.9742 5.23888 10.9646 5.345C10.8545 6.55619 10.378 9.49541 10.1356 10.852C10.0331 11.426 9.8311 11.6184 9.63559 11.6373C9.29911 11.6697 9.02675 11.4664 8.7236 11.2402C8.64393 11.1807 8.56213 11.1197 8.47649 11.0609C8.14032 10.8302 7.8805 10.645 7.62001 10.4593C7.38148 10.2892 7.14239 10.1188 6.8436 9.91264C6.22185 9.48372 6.48212 9.22106 6.82919 8.8708C6.88538 8.8141 6.94384 8.7551 7.0012 8.69273C7.0268 8.66489 7.15206 8.54298 7.32865 8.37112C7.8951 7.81982 8.98969 6.7545 9.01732 6.63122C9.02185 6.61099 9.02606 6.5356 8.98327 6.49579C8.94049 6.45599 8.87735 6.4696 8.83178 6.48043C8.76719 6.49577 7.73842 7.20761 5.74548 8.61594C5.45347 8.82586 5.18897 8.92814 4.95199 8.92278C4.69074 8.91687 4.1882 8.76814 3.81461 8.64101C3.75975 8.62234 3.70623 8.60473 3.65459 8.58773L3.65458 8.58772C3.27486 8.46273 2.996 8.37093 3.02392 8.13783C3.04044 7.99989 3.22188 7.85883 3.56825 7.71464Z" fill="#337AB7"/>
</svg>
