<svg width="104" height="103" viewBox="0 0 104 103" fill="none" xmlns="http://www.w3.org/2000/svg">
<path d="M41.3311 46.9256V40.7199M62.617 81.926L77.7981 82.1916C81.1523 82.2503 83.903 79.5473 83.903 76.1925V71.2522M41.3311 40.7199V35.4254C41.3311 32.1117 44.0173 29.4254 47.3311 29.4254H77.903C81.2167 29.4254 83.903 32.1117 83.903 35.4254V40.7199M41.3311 40.7199H83.903M83.903 40.7199V71.2522M83.903 71.2522C83.208 71.2522 69.4228 71.2522 62.617 71.2522" stroke="#337AB7" stroke-width="1.5" stroke-linecap="round"/>
<path d="M58.9349 49.2598H41.4569H17.5234C15.8666 49.2598 14.5234 50.6029 14.5234 52.2598V80.6395C14.5234 82.2964 15.8666 83.6395 17.5234 83.6395H58.9349C60.5918 83.6395 61.9349 82.2964 61.9349 80.6395V52.2598C61.9349 50.6029 60.5918 49.2598 58.9349 49.2598Z" stroke="#337AB7" stroke-width="1.5" stroke-linecap="round"/>
<path d="M62.0358 63.1748C65.8783 63.1748 68.9933 60.0598 68.9933 56.2173C68.9933 52.3748 65.8783 49.2598 62.0358 49.2598C61.4769 49.2541 60.6742 49.4629 60.1914 49.6989" stroke="#337AB7" stroke-width="1.5"/>
<path d="M53.7129 19.4802H47.6982C46.5937 19.4802 45.6982 20.3756 45.6982 21.4802V25.2767C45.6982 26.3813 46.5937 27.2767 47.6982 27.2767H53.7129M53.7129 19.4802V27.2767M53.7129 19.4802H62.7258M53.7129 27.2767H62.7258M62.7258 27.2767V19.4802M62.7258 27.2767H70.5247M62.7258 19.4802H70.5247M70.5247 19.4802H76.3237C77.4283 19.4802 78.3237 20.3756 78.3237 21.4802V25.2767C78.3237 26.3813 77.4283 27.2767 76.3237 27.2767H70.5247M70.5247 19.4802V27.2767" stroke="#337AB7" stroke-width="1.5"/>
<rect x="40.2783" y="70.2272" width="12.5352" height="6.21826" rx="3.10913" stroke="#337AB7" stroke-width="1.5"/>
<path d="M46.3779 70.4648V76.2075" stroke="#337AB7" stroke-width="1.5"/>
<rect x="40.2783" y="55.9796" width="12.5352" height="6.21826" rx="3.10913" stroke="#337AB7" stroke-width="1.5"/>
<path d="M46.3779 56.2172V61.9598" stroke="#337AB7" stroke-width="1.5"/>
<rect x="22.4355" y="70.2272" width="12.5352" height="6.21826" rx="3.10913" stroke="#337AB7" stroke-width="1.5"/>
<path d="M28.5352 70.4648V76.2075" stroke="#337AB7" stroke-width="1.5"/>
<rect x="22.4355" y="55.9796" width="12.5352" height="6.21826" rx="3.10913" stroke="#337AB7" stroke-width="1.5"/>
<path d="M28.5352 56.2172V61.9598" stroke="#337AB7" stroke-width="1.5"/>
</svg>
